<svg viewBox="-581.5 -290.5 1163 581" width="1163" height="581" style="background-color: rgb(255, 255, 255);" xmlns="http://www.w3.org/2000/svg"><path d="M34.45593624903464,-3.3509657546043714L24.689663178839254,-6.031945584190489M24.689663178839254,-188.6152894489998L24.689663178839254,-6.031945584190489M24.689663178839254,-6.031945584190489L-79.1190030685167,79.32819167790149M34.45593624903464,-185.93430961941368L34.45593624903464,-3.3509657546043714M34.45593624903464,-3.3509657546043714L-69.35272999832134,82.0091715074876M77.92886051759127,6.435269975458917L47.11969971620663,-2.0222796016731492M47.11969971620663,-173.1941644749319L47.11969971620663,-2.0222796016731492M47.11969971620663,-2.0222796016731492L-50.2009248906896,78.00284908153806" style="fill:none;stroke:rgb(0,0,0);stroke-width:1;stroke-linecap:round"></path><path d="M34.45593624903464,-3.3509657546043754L24.689663178839254,-6.031945584190489L24.689663178839254,-188.61528944899982z" style="fill:rgb(238,238,238); fill-opacity: 0.33"></path><path d="M77.92886051759127,-164.7366148977998L77.92886051759127,6.435269975458917M77.92886051759127,6.435269975458917L-19.391764089304957,86.46039865867013M121.40178460887695,16.221505656858845L90.59262380749232,7.763956079726778M90.59262380749232,-151.9964698019814L90.59262380749232,7.763956079726778M90.59262380749232,7.763956079726778L-0.23995915894415298,82.45407618405724" style="fill:none;stroke:rgb(0,0,0);stroke-width:1;stroke-linecap:round"></path><path d="M-79.11900306851673,79.32819167790147L24.689663178839254,-6.031945584190489L34.45593624903464,-3.3509657546043754zM77.92886051759126,6.4352699754589215L47.11969971620663,-2.0222796016731492L47.11969971620663,-173.1941644749319z" style="fill:rgb(238,238,238); fill-opacity: 0.33"></path><path d="M121.40178460887695,-143.5389202248493L121.40178460887695,16.221505656858845M121.40178460887695,16.221505656858845L30.569201642440483,90.9116257611893" style="fill:none;stroke:rgb(0,0,0);stroke-width:1;stroke-linecap:round"></path><path d="M34.45593624903464,-185.93430961941368L34.45593624903464,-3.3509657546043754L24.689663178839254,-188.61528944899982zM-50.20092489068959,78.00284908153806L47.11969971620663,-2.0222796016731492L77.92886051759126,6.4352699754589215zM121.40178460887695,16.221505656858845L90.59262380749232,7.763956079726778L90.59262380749232,-151.9964698019814zM-69.35272999832134,82.0091715074876L34.45593624903464,-3.3509657546043754L34.45593624903464,-185.93430961941368zM77.92886051759126,-164.7366148977998L77.92886051759126,6.4352699754589215L47.11969971620663,-173.1941644749319z" style="fill:rgb(238,238,238); fill-opacity: 0.33"></path><path d="M34.45593624903464,-185.93430961941368L24.689663178839254,-188.6152894489998M24.689663178839254,-188.6152894489998L-79.1190030685167,-103.25515218690784M38.23487990826406,6.510355824356696L7.4257191068794235,-1.9471937527753742M7.4257191068794235,-4.324581042681746L7.4257191068794235,-1.9471937527753742M7.4257191068794235,-1.9471937527753742L6.0740437651169765,-0.8357336321752186M38.23487990826406,4.132968534450326L7.4257191068794235,-4.324581042681746M7.4257191068794235,-4.324581042681746L6.0740437651169765,-3.2131209220815893" style="fill:none;stroke:rgb(0,0,0);stroke-width:1;stroke-linecap:round"></path><path d="M7.425719106879433,-4.324581042681742L7.425719106879433,-1.9471937527753758L6.074043765116991,-3.2131209220815924zM7.425719106879433,-1.9471937527753758L6.074043765116991,-0.835733632175218L6.074043765116991,-3.2131209220815924z" style="fill:rgb(153,221,255); fill-opacity: 0.4"></path><path d="M6.0740437651169765,-3.2131209220815893L6.0740437651169765,-0.8357336321752186M6.0740437651169765,-0.8357336321752186L36.88320456650161,7.621815944956853M6.0740437651169765,-3.2131209220815893L36.88320456650161,5.244428655050481M34.45593624903464,-185.93430961941368L-69.35272999832134,-100.57417235732173M109.19077583004932,-34.260912640687096L78.38161502866467,-42.718462217819166M78.38161502866467,-43.669417133781714L78.38161502866467,-42.718462217819166M78.38161502866467,-42.718462217819166L77.84094489195968,-42.273878169579106" style="fill:none;stroke:rgb(0,0,0);stroke-width:1;stroke-linecap:round"></path><path d="M-0.23995915894415298,82.45407618405724L90.59262380749232,7.763956079726778L121.40178460887695,16.221505656858845z" style="fill:rgb(238,238,238); fill-opacity: 0.33"></path><path d="M109.19077583004932,-35.21186755664964L78.38161502866467,-43.669417133781714M78.38161502866467,-43.669417133781714L77.84094489195968,-43.22483308554165" style="fill:none;stroke:rgb(0,0,0);stroke-width:1;stroke-linecap:round"></path><path d="M78.38161502866467,-43.669417133781714L78.38161502866467,-42.71846221781917L77.84094489195968,-43.224833085541654zM38.23487990826406,6.510355824356695L7.425719106879433,-1.9471937527753758L7.425719106879433,-4.324581042681742zM78.38161502866467,-42.71846221781917L77.84094489195968,-42.2738781695791L77.84094489195968,-43.224833085541654z" style="fill:rgb(153,221,255); fill-opacity: 0.4"></path><path d="M77.84094489195968,-43.22483308554165L77.84094489195968,-42.273878169579106M77.84094489195968,-42.273878169579106L108.65010569334433,-33.816328592447036" style="fill:none;stroke:rgb(0,0,0);stroke-width:1;stroke-linecap:round"></path><path d="M6.074043765116991,-0.835733632175218L7.425719106879433,-1.9471937527753758L38.23487990826406,6.510355824356695z" style="fill:rgb(153,221,255); fill-opacity: 0.4"></path><path d="M77.84094489195968,-43.22483308554165L108.65010569334433,-34.767283508409584" style="fill:none;stroke:rgb(0,0,0);stroke-width:1;stroke-linecap:round"></path><path d="M6.074043765116991,-3.2131209220815924L36.88320456650161,5.244428655050478L7.425719106879433,-4.324581042681742zM6.074043765116991,-3.2131209220815924L6.074043765116991,-0.835733632175218L36.88320456650161,5.244428655050478z" style="fill:rgb(153,221,255); fill-opacity: 0.4"></path><path d="M-69.35272999832134,82.0091715074876L-79.11900306851673,79.32819167790147L34.45593624903464,-3.3509657546043754z" style="fill:rgb(238,238,238); fill-opacity: 0.33"></path><path d="M109.1907758300493,-34.2609126406871L78.38161502866467,-42.71846221781917L78.38161502866467,-43.669417133781714zM77.84094489195968,-42.2738781695791L78.38161502866467,-42.71846221781917L109.1907758300493,-34.2609126406871zM77.84094489195968,-43.224833085541654L108.65010569334432,-34.767283508409584L78.38161502866467,-43.669417133781714zM38.23487990826406,4.132968534450329L38.23487990826406,6.510355824356695L7.425719106879433,-4.324581042681742zM77.84094489195968,-43.224833085541654L77.84094489195968,-42.2738781695791L108.65010569334432,-34.767283508409584zM36.88320456650161,7.621815944956853L6.074043765116991,-0.835733632175218L38.23487990826406,6.510355824356695zM36.88320456650161,5.244428655050478L38.23487990826406,4.132968534450329L7.425719106879433,-4.324581042681742zM6.074043765116991,-0.835733632175218L36.88320456650161,7.621815944956853L36.88320456650161,5.244428655050478z" style="fill:rgb(153,221,255); fill-opacity: 0.4"></path><path d="M77.92886051759127,-164.7366148977998L47.11969971620663,-173.1941644749319M47.11969971620663,-173.1941644749319L-50.2009248906896,-93.16903579172067M38.2348807516103,4.1329695309275L38.2348807516103,6.5103568208338745M38.2348807516103,6.5103568208338745L36.883204894224626,7.621817365422418M38.2348807516103,6.5103568208338745L52.91412780269918,7.243269344210181M38.23487990826406,4.132968534450326L38.23487990826406,6.510355824356696M38.23487990826406,6.510355824356696L36.88320456650161,7.621815944956853" style="fill:none;stroke:rgb(0,0,0);stroke-width:1;stroke-linecap:round"></path><path d="M109.1907758300493,-35.21186755664965L109.1907758300493,-34.2609126406871L78.38161502866467,-43.669417133781714zM108.65010569334432,-33.816328592447036L77.84094489195968,-42.2738781695791L109.1907758300493,-34.2609126406871zM108.65010569334432,-34.767283508409584L109.1907758300493,-35.21186755664965L78.38161502866467,-43.669417133781714zM77.84094489195968,-42.2738781695791L108.65010569334432,-33.816328592447036L108.65010569334432,-34.767283508409584z" style="fill:rgb(153,221,255); fill-opacity: 0.4"></path><path d="M38.2348795312838,4.1329684309639285L38.2348795312838,6.510355720870295L36.88320418952136,7.621815841470453z" style="fill:rgb(255,187,187); fill-opacity: 0.4"></path><path d="M36.88320456650161,7.621815944956853L38.23487990826406,6.510355824356695L38.23487990826406,4.132968534450329z" style="fill:rgb(153,221,255); fill-opacity: 0.4"></path><path d="M38.2348807516103,4.1329695309275L36.883204894224626,5.244430075516043M38.2348807516103,4.1329695309275L52.91412780269918,7.243269344210181M38.23487990826406,4.132968534450326L36.88320456650161,5.244428655050481M36.883204894224626,7.621817365422418L36.883204894224626,5.244430075516043M36.883204894224626,7.621817365422418L52.91412780269918,7.243269344210181M36.88320456650161,5.244428655050481L36.88320456650161,7.621815944956853" style="fill:none;stroke:rgb(0,0,0);stroke-width:1;stroke-linecap:round"></path><path d="M-19.39176408930496,86.46039865867013L77.92886051759126,6.4352699754589215L77.92886051759126,-164.7366148977998z" style="fill:rgb(238,238,238); fill-opacity: 0.33"></path><path d="M38.2348795312838,4.1329684309639285L36.88320418952136,7.621815841470453L36.88320418952136,5.244428551564078z" style="fill:rgb(255,187,187); fill-opacity: 0.4"></path><path d="M36.88320456650161,5.244428655050478L36.88320456650161,7.621815944956853L38.23487990826406,4.132968534450329z" style="fill:rgb(153,221,255); fill-opacity: 0.4"></path><path d="M36.883204894224626,5.244430075516043L52.91412780269918,7.243269344210181" style="fill:none;stroke:rgb(0,0,0);stroke-width:1;stroke-linecap:round"></path><path d="M24.689663178839254,-188.61528944899982L24.689663178839254,-6.031945584190489L-79.11900306851673,-103.25515218690784z" style="fill:rgb(238,238,238); fill-opacity: 0.33"></path><path d="M38.2348795312838,6.510355720870295L38.2348795312838,4.1329684309639285L52.91412712294471,7.243270296508201zM36.88320418952136,7.621815841470453L38.2348795312838,6.510355720870295L52.91412712294471,7.243270296508201z" style="fill:rgb(255,187,187); fill-opacity: 0.4"></path><path d="M109.19077583004932,-35.21186755664964L109.19077583004932,-34.260912640687096M109.19077583004932,-34.260912640687096L108.65010569334433,-33.816328592447036M109.19077425457735,-35.211865985743934L109.19077425457735,-34.260911069781386M109.19077425457735,-34.260911069781386L108.65010411787235,-33.816327021541326M109.19077425457735,-34.260911069781386L108.36075073916787,-26.04696042726223" style="fill:none;stroke:rgb(0,0,0);stroke-width:1;stroke-linecap:round"></path><path d="M109.19077545306907,-35.21186766013605L109.19077545306907,-34.2609127441735L108.65010531636406,-33.816328695933436z" style="fill:rgb(255,187,187); fill-opacity: 0.4"></path><path d="M108.65010569334432,-33.816328592447036L109.1907758300493,-34.2609126406871L109.1907758300493,-35.21186755664965z" style="fill:rgb(153,221,255); fill-opacity: 0.4"></path><path d="M109.19077583004932,-35.21186755664964L108.65010569334433,-34.767283508409584M109.19077425457735,-35.211865985743934L108.65010411787235,-34.76728193750387M109.19077425457735,-35.211865985743934L108.36075073916787,-26.04696042726223" style="fill:none;stroke:rgb(0,0,0);stroke-width:1;stroke-linecap:round"></path><path d="M38.2348795312838,4.1329684309639285L36.88320418952136,5.244428551564078L52.91412712294471,7.243270296508201z" style="fill:rgb(255,187,187); fill-opacity: 0.4"></path><path d="M108.65010569334433,-34.767283508409584L108.65010569334433,-33.816328592447036M108.65010411787235,-33.816327021541326L108.65010411787235,-34.76728193750387M108.65010411787235,-33.816327021541326L108.36075073916787,-26.04696042726223" style="fill:none;stroke:rgb(0,0,0);stroke-width:1;stroke-linecap:round"></path><path d="M109.19077545306907,-35.21186766013605L108.65010531636406,-33.816328695933436L108.65010531636406,-34.76728361189599z" style="fill:rgb(255,187,187); fill-opacity: 0.4"></path><path d="M108.65010569334432,-34.767283508409584L108.65010569334432,-33.816328592447036L109.1907758300493,-35.21186755664965z" style="fill:rgb(153,221,255); fill-opacity: 0.4"></path><path d="M36.88320418952136,5.244428551564078L36.88320418952136,7.621815841470453L52.91412712294471,7.243270296508201z" style="fill:rgb(255,187,187); fill-opacity: 0.4"></path><path d="M121.40178460887695,-143.5389202248493L121.40178460887695,16.221505656858845L90.59262380749232,-151.9964698019814z" style="fill:rgb(238,238,238); fill-opacity: 0.33"></path><path d="M108.65010411787235,-34.76728193750387L108.36075073916787,-26.04696042726223M77.92886051759127,-164.7366148977998L-19.391764089304957,-84.7114862145886" style="fill:none;stroke:rgb(0,0,0);stroke-width:1;stroke-linecap:round"></path><path d="M-19.39176408930496,86.46039865867013L-50.20092489068959,78.00284908153806L77.92886051759126,6.4352699754589215zM47.11969971620663,-173.1941644749319L47.11969971620663,-2.0222796016731492L-50.20092489068959,-93.16903579172067z" style="fill:rgb(238,238,238); fill-opacity: 0.33"></path><path d="M145.4105837787834,7.778390100249265L114.60142297739877,-0.6791594768828043M114.60142297739877,-80.55937241773688L114.60142297739877,-0.6791594768828043M114.60142297739877,-0.6791594768828043L69.18513149418054,36.66590057528243" style="fill:none;stroke:rgb(0,0,0);stroke-width:1;stroke-linecap:round"></path><path d="M109.19077545306907,-34.2609127441735L109.19077545306907,-35.21186766013605L108.36075143078894,-26.046961239099993zM108.65010531636406,-33.816328695933436L109.19077545306907,-34.2609127441735L108.36075143078894,-26.046961239099993zM109.19077545306907,-35.21186766013605L108.65010531636406,-34.76728361189599L108.36075143078894,-26.046961239099993zM108.65010531636406,-34.76728361189599L108.65010531636406,-33.816328695933436L108.36075143078894,-26.046961239099993z" style="fill:rgb(255,187,187); fill-opacity: 0.4"></path><path d="M-5.774805023405843,-105.46837245186165L-15.541078093601238,-108.14935228144778M-15.541078093601238,-110.52673957135416L-15.541078093601238,-108.14935228144778M-15.541078093601238,-108.14935228144778L-16.892753435363687,-107.03789216084762M-5.774805023405843,-107.84575974176802L-15.541078093601238,-110.52673957135416M-15.541078093601238,-110.52673957135416L-16.892753435363687,-109.415279450754" style="fill:none;stroke:rgb(0,0,0);stroke-width:1;stroke-linecap:round"></path><path d="M-15.54107809360123,-110.52673957135417L-15.54107809360123,-108.14935228144779L-16.892753435363687,-109.415279450754zM-15.54107809360123,-108.14935228144779L-16.892753435363687,-107.03789216084762L-16.892753435363687,-109.415279450754z" style="fill:rgb(153,221,255); fill-opacity: 0.4"></path><path d="M-16.892753435363687,-109.415279450754L-16.892753435363687,-107.03789216084762M-16.892753435363687,-107.03789216084762L-7.126480365168292,-104.35691233126151" style="fill:none;stroke:rgb(0,0,0);stroke-width:1;stroke-linecap:round"></path><path d="M-5.7748050234058415,-105.46837245186167L-15.54107809360123,-108.14935228144779L-15.54107809360123,-110.52673957135417zM-16.892753435363687,-107.03789216084762L-15.54107809360123,-108.14935228144779L-5.7748050234058415,-105.46837245186167z" style="fill:rgb(153,221,255); fill-opacity: 0.4"></path><path d="M-16.892753435363687,-109.415279450754L-7.126480365168292,-106.73429962116786" style="fill:none;stroke:rgb(0,0,0);stroke-width:1;stroke-linecap:round"></path><path d="M24.689663178839254,-6.031945584190489L-79.11900306851673,79.32819167790147L-79.11900306851673,-103.25515218690784z" style="fill:rgb(238,238,238); fill-opacity: 0.33"></path><path d="M-5.7748050234058415,-107.84575974176803L-5.7748050234058415,-105.46837245186167L-15.54107809360123,-110.52673957135417zM-16.892753435363687,-109.415279450754L-7.1264803651683,-106.73429962116786L-15.54107809360123,-110.52673957135417zM-16.892753435363687,-109.415279450754L-16.892753435363687,-107.03789216084762L-7.1264803651683,-106.73429962116786zM-7.1264803651683,-104.35691233126153L-16.892753435363687,-107.03789216084762L-5.7748050234058415,-105.46837245186167z" style="fill:rgb(153,221,255); fill-opacity: 0.4"></path><path d="M121.40178460887695,-143.5389202248493L90.59262380749232,-151.9964698019814M90.59262380749232,-151.9964698019814L-0.23995915894415298,-77.30634969765092M-5.774804775063932,-107.8457587933988L-5.774804775063932,-105.46837150349242M-5.774804775063932,-105.46837150349242L-7.126480116826374,-104.35691138289228M-5.774804775063932,-105.46837150349242L8.769782630723395,-98.35075126958309M-5.774805023405843,-107.84575974176802L-5.774805023405843,-105.46837245186165M-5.774805023405843,-105.46837245186165L-7.126480365168292,-104.35691233126151" style="fill:none;stroke:rgb(0,0,0);stroke-width:1;stroke-linecap:round"></path><path d="M-7.1264803651683,-106.73429962116786L-5.7748050234058415,-107.84575974176803L-15.54107809360123,-110.52673957135417zM-16.892753435363687,-107.03789216084762L-7.1264803651683,-104.35691233126153L-7.1264803651683,-106.73429962116786z" style="fill:rgb(153,221,255); fill-opacity: 0.4"></path><path d="M-5.774805223115167,-107.84575979659107L-5.774805223115167,-105.4683725066847L-7.126480564877626,-104.35691238608455z" style="fill:rgb(255,187,187); fill-opacity: 0.4"></path><path d="M-7.1264803651683,-104.35691233126153L-5.7748050234058415,-105.46837245186167L-5.7748050234058415,-107.84575974176803z" style="fill:rgb(153,221,255); fill-opacity: 0.4"></path><path d="M-5.774804775063932,-107.8457587933988L-7.126480116826374,-106.73429867279864M-5.774804775063932,-107.8457587933988L8.769782630723395,-98.35075126958309M-5.774805023405843,-107.84575974176802L-7.126480365168292,-106.73429962116786M-7.126480116826374,-104.35691138289228L-7.126480116826374,-106.73429867279864M-7.126480116826374,-104.35691138289228L8.769782630723395,-98.35075126958309M-7.126480365168292,-106.73429962116786L-7.126480365168292,-104.35691233126151" style="fill:none;stroke:rgb(0,0,0);stroke-width:1;stroke-linecap:round"></path><path d="M-5.774805223115167,-107.84575979659107L-7.126480564877626,-104.35691238608455L-7.126480564877626,-106.73429967599091z" style="fill:rgb(255,187,187); fill-opacity: 0.4"></path><path d="M-7.1264803651683,-106.73429962116786L-7.1264803651683,-104.35691233126153L-5.7748050234058415,-107.84575974176803z" style="fill:rgb(153,221,255); fill-opacity: 0.4"></path><path d="M-7.126480116826374,-106.73429867279864L8.769782630723395,-98.35075126958309" style="fill:none;stroke:rgb(0,0,0);stroke-width:1;stroke-linecap:round"></path><path d="M-5.774805223115167,-105.4683725066847L-5.774805223115167,-107.84575979659107L8.769782333822773,-98.35075163747774zM-7.126480564877626,-104.35691238608455L-5.774805223115167,-105.4683725066847L8.769782333822773,-98.35075163747774z" style="fill:rgb(255,187,187); fill-opacity: 0.4"></path><path d="M30.56920164244048,90.9116257611893L121.40178460887695,16.221505656858845L121.40178460887695,-143.5389202248493z" style="fill:rgb(238,238,238); fill-opacity: 0.33"></path><path d="M-5.774805223115167,-107.84575979659107L-7.126480564877626,-106.73429967599091L8.769782333822773,-98.35075163747774zM-7.126480564877626,-106.73429967599091L-7.126480564877626,-104.35691238608455L8.769782333822773,-98.35075163747774z" style="fill:rgb(255,187,187); fill-opacity: 0.4"></path><path d="M145.4105837787834,-72.10182284060481L145.4105837787834,7.778390100249265M145.4105837787834,7.778390100249265L99.99429229556516,45.12345015241449" style="fill:none;stroke:rgb(0,0,0);stroke-width:1;stroke-linecap:round"></path><path d="M47.11969971620663,-2.0222796016731492L-50.20092489068959,78.00284908153806L-50.20092489068959,-93.16903579172067zM145.4105837787834,7.778390100249265L114.60142297739877,-0.6791594768828023L114.60142297739877,-80.55937241773688zM-69.35272999832134,-100.57417235732173L34.45593624903464,-185.93430961941368L24.689663178839254,-188.61528944899982z" style="fill:rgb(238,238,238); fill-opacity: 0.33"></path><path d="M121.40178460887695,-143.5389202248493L30.569201642440483,-68.84880012051885" style="fill:none;stroke:rgb(0,0,0);stroke-width:1;stroke-linecap:round"></path><path d="M30.56920164244048,90.9116257611893L-0.23995915894415298,82.45407618405724L121.40178460887695,16.221505656858845zM90.59262380749232,-151.9964698019814L90.59262380749232,7.763956079726778L-0.23995915894415298,-77.30634969765092z" style="fill:rgb(238,238,238); fill-opacity: 0.33"></path><path d="M-79.1190030685167,-103.25515218690784L-79.1190030685167,79.32819167790149M-79.1190030685167,79.32819167790149L-69.35272999832134,82.0091715074876M196.66734929418166,20.775247985573216L159.69635847428657,10.626189080959861M159.69635847428657,-63.548294364118924L159.69635847428657,10.626189080959861M159.69635847428657,10.626189080959861L117.52408781129823,45.303744843684726" style="fill:none;stroke:rgb(0,0,0);stroke-width:1;stroke-linecap:round"></path><path d="M69.18513149418052,36.66590057528243L114.60142297739877,-0.6791594768828023L145.4105837787834,7.778390100249265z" style="fill:rgb(238,238,238); fill-opacity: 0.33"></path><path d="M-69.35272999832134,-100.57417235732173L-69.35272999832134,82.0091715074876M-50.2009248906896,-93.16903579172067L-50.2009248906896,78.00284908153806M-50.2009248906896,78.00284908153806L-19.391764089304957,86.46039865867013" style="fill:none;stroke:rgb(0,0,0);stroke-width:1;stroke-linecap:round"></path><path d="M145.4105837787834,-72.10182284060481L145.4105837787834,7.778390100249265L114.60142297739877,-80.55937241773688zM-19.39176408930496,-84.7114862145886L77.92886051759126,-164.7366148977998L47.11969971620663,-173.1941644749319zM90.59262380749232,7.763956079726778L-0.23995915894415298,82.45407618405724L-0.23995915894415298,-77.30634969765092z" style="fill:rgb(238,238,238); fill-opacity: 0.33"></path><path d="M145.4105837787834,-72.10182284060481L114.60142297739877,-80.55937241773688M114.60142297739877,-80.55937241773688L69.18513149418054,-43.21431236557165" style="fill:none;stroke:rgb(0,0,0);stroke-width:1;stroke-linecap:round"></path><path d="M-69.35272999832134,-100.57417235732173L-69.35272999832134,82.0091715074876L34.45593624903464,-185.93430961941368z" style="fill:rgb(238,238,238); fill-opacity: 0.33"></path><path d="M196.66734929418166,-53.39923545950557L196.66734929418166,20.775247985573216M196.66734929418166,20.775247985573216L154.4950786311933,55.452803748298074" style="fill:none;stroke:rgb(0,0,0);stroke-width:1;stroke-linecap:round"></path><path d="M196.66734929418166,20.775247985573216L159.69635847428657,10.626189080959861L159.69635847428657,-63.54829436411893zM114.60142297739877,-80.55937241773688L114.60142297739877,-0.6791594768828023L69.18513149418052,-43.21431236557165z" style="fill:rgb(238,238,238); fill-opacity: 0.33"></path><path d="M-19.391764089304957,-84.7114862145886L-19.391764089304957,86.46039865867013" style="fill:none;stroke:rgb(0,0,0);stroke-width:1;stroke-linecap:round"></path><path d="M99.99429229556516,45.12345015241449L145.4105837787834,7.778390100249265L145.4105837787834,-72.10182284060481zM117.52408781129822,45.30374484368471L159.69635847428657,10.626189080959861L196.66734929418166,20.775247985573216zM99.99429229556516,45.12345015241449L69.18513149418052,36.66590057528243L145.4105837787834,7.778390100249265z" style="fill:rgb(238,238,238); fill-opacity: 0.33"></path><path d="M-0.23995915894415298,-77.30634969765092L-0.23995915894415298,82.45407618405724M-0.23995915894415298,82.45407618405724L30.569201642440483,90.9116257611893M254.08594860387015,35.4636162348833L210.9531241958538,23.623047022880105M210.9531241958538,-44.84570692642338L210.9531241958538,23.623047022880105M210.9531241958538,23.623047022880105L172.02487435309533,55.63309849616459M145.4105837787834,-72.10182284060481L99.99429229556516,-34.75676278843957" style="fill:none;stroke:rgb(0,0,0);stroke-width:1;stroke-linecap:round"></path><path d="M114.60142297739877,-0.6791594768828023L69.18513149418052,36.66590057528243L69.18513149418052,-43.21431236557165zM-79.11900306851673,79.32819167790147L-69.35272999832134,82.0091715074876L-69.35272999832134,-100.57417235732173zM30.56920164244048,-68.84880012051885L121.40178460887695,-143.5389202248493L90.59262380749232,-151.9964698019814z" style="fill:rgb(238,238,238); fill-opacity: 0.33"></path><path d="M109.9568190747744,20.36407700234372L79.14765827338977,11.90652742521165M79.14765827338977,10.480095051267826L79.14765827338977,11.90652742521165M79.14765827338977,11.90652742521165L78.3366530683323,12.573403497571743M109.9568190747744,18.937644628399898L79.14765827338977,10.480095051267826M79.14765827338977,10.480095051267826L78.3366530683323,11.14697112362792" style="fill:none;stroke:rgb(0,0,0);stroke-width:1;stroke-linecap:round"></path><path d="M79.14765827338977,10.480095051267822L79.14765827338977,11.906527425211644L78.3366530683323,11.14697112362792zM79.14765827338977,11.906527425211644L78.3366530683323,12.573403497571743L78.3366530683323,11.14697112362792z" style="fill:rgb(153,221,255); fill-opacity: 0.4"></path><path d="M78.3366530683323,11.14697112362792L78.3366530683323,12.573403497571743M78.3366530683323,12.573403497571743L109.14581386971695,21.030953074703813" style="fill:none;stroke:rgb(0,0,0);stroke-width:1;stroke-linecap:round"></path><path d="M-19.39176408930496,-84.7114862145886L-19.39176408930496,86.46039865867013L77.92886051759126,-164.7366148977998z" style="fill:rgb(238,238,238); fill-opacity: 0.33"></path><path d="M78.3366530683323,11.14697112362792L109.14581386971695,19.60452070075999" style="fill:none;stroke:rgb(0,0,0);stroke-width:1;stroke-linecap:round"></path><path d="M196.66734929418166,-53.39923545950556L196.66734929418166,20.775247985573216L159.69635847428657,-63.54829436411893z" style="fill:rgb(238,238,238); fill-opacity: 0.33"></path><path d="M196.66734929418166,-53.39923545950557L159.69635847428657,-63.548294364118924M159.69635847428657,-63.548294364118924L117.52408781129823,-28.870738601394066" style="fill:none;stroke:rgb(0,0,0);stroke-width:1;stroke-linecap:round"></path><path d="M109.95681907477442,20.364077002343713L79.14765827338977,11.906527425211644L79.14765827338977,10.480095051267822zM78.3366530683323,12.573403497571743L79.14765827338977,11.906527425211644L109.95681907477442,20.364077002343713z" style="fill:rgb(153,221,255); fill-opacity: 0.4"></path><path d="M69.18513149418054,-43.21431236557165L69.18513149418054,36.66590057528243M69.18513149418054,36.66590057528243L99.99429229556516,45.12345015241449" style="fill:none;stroke:rgb(0,0,0);stroke-width:1;stroke-linecap:round"></path><path d="M78.3366530683323,11.14697112362792L109.14581386971696,19.604520700759988L79.14765827338977,10.480095051267822zM78.3366530683323,11.14697112362792L78.3366530683323,12.573403497571743L109.14581386971696,19.604520700759988z" style="fill:rgb(153,221,255); fill-opacity: 0.4"></path><path d="M-79.11900306851673,-103.25515218690784L-69.35272999832134,-100.57417235732173L24.689663178839254,-188.61528944899982z" style="fill:rgb(238,238,238); fill-opacity: 0.33"></path><path d="M109.95681907477442,18.93764462839989L109.95681907477442,20.364077002343713L79.14765827338977,10.480095051267822z" style="fill:rgb(153,221,255); fill-opacity: 0.4"></path><path d="M30.569201642440483,-68.84880012051885L30.569201642440483,90.9116257611893" style="fill:none;stroke:rgb(0,0,0);stroke-width:1;stroke-linecap:round"></path><path d="M109.14581386971696,21.03095307470381L78.3366530683323,12.573403497571743L109.95681907477442,20.364077002343713zM109.14581386971696,19.604520700759988L109.95681907477442,18.93764462839989L79.14765827338977,10.480095051267822zM78.3366530683323,12.573403497571743L109.14581386971696,21.03095307470381L109.14581386971696,19.604520700759988z" style="fill:rgb(153,221,255); fill-opacity: 0.4"></path><path d="M159.69635847428657,-63.54829436411893L159.69635847428657,10.626189080959861L117.52408781129822,-28.870738601394063zM99.99429229556516,-34.75676278843957L145.4105837787834,-72.10182284060481L114.60142297739877,-80.55937241773688zM-50.20092489068959,78.00284908153806L-19.39176408930496,86.46039865867013L-19.39176408930496,-84.7114862145886zM254.08594860387012,35.4636162348833L210.95312419585383,23.623047022880108L210.95312419585383,-44.84570692642338z" style="fill:rgb(238,238,238); fill-opacity: 0.33"></path><path d="M109.9568190747744,18.937644628399898L109.9568190747744,20.36407700234372M109.9568190747744,20.36407700234372L109.14581386971695,21.030953074703813M109.95681715068821,18.937643581512532L109.95681715068821,20.364075955456354M109.95681715068821,20.364075955456354L109.14581194563075,21.030952027816454M109.95681715068821,20.364075955456354L126.39846592494074,21.960246240188475" style="fill:none;stroke:rgb(0,0,0);stroke-width:1;stroke-linecap:round"></path><path d="M109.95681869779416,18.937644524913487L109.95681869779416,20.364076898857313L109.14581349273669,21.03095297121741z" style="fill:rgb(255,187,187); fill-opacity: 0.4"></path><path d="M109.14581386971696,21.03095307470381L109.95681907477442,20.364077002343713L109.95681907477442,18.93764462839989z" style="fill:rgb(153,221,255); fill-opacity: 0.4"></path><path d="M109.9568190747744,18.937644628399898L109.14581386971695,19.60452070075999M109.95681715068821,18.937643581512532L109.14581194563075,19.60451965387263M109.95681715068821,18.937643581512532L126.39846592494074,21.960246240188475M109.14581386971695,19.60452070075999L109.14581386971695,21.030953074703813M109.14581194563075,21.030952027816454L109.14581194563075,19.60451965387263M109.14581194563075,21.030952027816454L126.39846592494074,21.960246240188475" style="fill:none;stroke:rgb(0,0,0);stroke-width:1;stroke-linecap:round"></path><path d="M109.95681869779416,18.937644524913487L109.14581349273669,21.03095297121741L109.14581349273669,19.604520597273588z" style="fill:rgb(255,187,187); fill-opacity: 0.4"></path><path d="M109.14581386971696,19.604520700759988L109.14581386971696,21.03095307470381L109.95681907477442,18.93764462839989z" style="fill:rgb(153,221,255); fill-opacity: 0.4"></path><path d="M254.08594860387015,-33.005137714420194L254.08594860387015,35.4636162348833M254.08594860387015,35.4636162348833L215.15769876111167,67.47366770816778M109.14581194563075,19.60451965387263L126.39846592494074,21.960246240188475" style="fill:none;stroke:rgb(0,0,0);stroke-width:1;stroke-linecap:round"></path><path d="M154.49507863119328,55.45280374829808L196.66734929418166,20.775247985573216L196.66734929418166,-53.39923545950556z" style="fill:rgb(238,238,238); fill-opacity: 0.33"></path><path d="M109.95681869779416,20.364076898857313L109.95681869779416,18.937644524913487L126.3984667854232,21.960247037380523z" style="fill:rgb(255,187,187); fill-opacity: 0.4"></path><path d="M174.6609440319541,0.9557397723918022L137.689953212059,-9.193319132221548M137.689953212059,-10.619751506165372L137.689953212059,-9.193319132221548M137.689953212059,-9.193319132221548L136.87894800700155,-8.526443059861457" style="fill:none;stroke:rgb(0,0,0);stroke-width:1;stroke-linecap:round"></path><path d="M109.14581349273669,21.03095297121741L109.95681869779416,20.364076898857313L126.3984667854232,21.960247037380523zM109.95681869779416,18.937644524913487L109.14581349273669,19.604520597273588L126.3984667854232,21.960247037380523z" style="fill:rgb(255,187,187); fill-opacity: 0.4"></path><path d="M174.6609440319541,-0.4706926015520209L137.689953212059,-10.619751506165372M137.689953212059,-10.619751506165372L136.87894800700155,-9.952875433805279" style="fill:none;stroke:rgb(0,0,0);stroke-width:1;stroke-linecap:round"></path><path d="M109.14581349273669,19.604520597273588L109.14581349273669,21.03095297121741L126.3984667854232,21.960247037380523z" style="fill:rgb(255,187,187); fill-opacity: 0.4"></path><path d="M137.689953212059,-10.619751506165372L137.689953212059,-9.193319132221552L136.87894800700155,-9.95287543380528zM137.689953212059,-9.193319132221552L136.87894800700155,-8.526443059861457L136.87894800700155,-9.95287543380528z" style="fill:rgb(153,221,255); fill-opacity: 0.4"></path><path d="M136.87894800700155,-9.952875433805279L136.87894800700155,-8.526443059861457M136.87894800700155,-8.526443059861457L173.84993882689665,1.622615844751896" style="fill:none;stroke:rgb(0,0,0);stroke-width:1;stroke-linecap:round"></path><path d="M154.49507863119328,55.45280374829808L117.52408781129822,45.30374484368471L196.66734929418166,20.775247985573216z" style="fill:rgb(238,238,238); fill-opacity: 0.33"></path><path d="M136.87894800700155,-9.952875433805279L173.84993882689665,0.19618347080807283" style="fill:none;stroke:rgb(0,0,0);stroke-width:1;stroke-linecap:round"></path><path d="M159.69635847428657,10.626189080959861L117.52408781129822,45.30374484368471L117.52408781129822,-28.870738601394063zM-50.20092489068959,-93.16903579172067L-19.39176408930496,-84.7114862145886L47.11969971620663,-173.1941644749319z" style="fill:rgb(238,238,238); fill-opacity: 0.33"></path><path d="M99.99429229556516,-34.75676278843957L99.99429229556516,45.12345015241449" style="fill:none;stroke:rgb(0,0,0);stroke-width:1;stroke-linecap:round"></path><path d="M30.56920164244048,-68.84880012051885L30.56920164244048,90.9116257611893L121.40178460887695,-143.5389202248493zM172.0248743530953,55.63309849616459L210.95312419585383,23.623047022880108L254.08594860387012,35.4636162348833z" style="fill:rgb(238,238,238); fill-opacity: 0.33"></path><path d="M196.66734929418166,-53.39923545950557L154.4950786311933,-18.72167969678071" style="fill:none;stroke:rgb(0,0,0);stroke-width:1;stroke-linecap:round"></path><path d="M174.6609440319541,0.9557397723918012L137.689953212059,-9.193319132221552L137.689953212059,-10.619751506165372zM136.87894800700155,-8.526443059861457L137.689953212059,-9.193319132221552L174.6609440319541,0.9557397723918012zM136.87894800700155,-9.95287543380528L173.84993882689665,0.19618347080807183L137.689953212059,-10.619751506165372zM136.87894800700155,-9.95287543380528L136.87894800700155,-8.526443059861457L173.84993882689665,0.19618347080807183z" style="fill:rgb(153,221,255); fill-opacity: 0.4"></path><path d="M99.99429229556516,-34.75676278843957L99.99429229556516,45.12345015241449L145.4105837787834,-72.10182284060481z" style="fill:rgb(238,238,238); fill-opacity: 0.33"></path><path d="M117.52408781129823,-28.870738601394066L117.52408781129823,45.303744843684726M117.52408781129823,45.303744843684726L154.4950786311933,55.452803748298074" style="fill:none;stroke:rgb(0,0,0);stroke-width:1;stroke-linecap:round"></path><path d="M-79.11900306851673,-103.25515218690784L-79.11900306851673,79.32819167790147L-69.35272999832134,-100.57417235732173zM69.18513149418052,36.66590057528243L99.99429229556516,45.12345015241449L99.99429229556516,-34.75676278843957zM69.18513149418052,-43.21431236557165L99.99429229556516,-34.75676278843957L114.60142297739877,-80.55937241773688z" style="fill:rgb(238,238,238); fill-opacity: 0.33"></path><path d="M174.6609440319541,-0.4706926015520219L174.6609440319541,0.9557397723918012L137.689953212059,-10.619751506165372zM173.84993882689665,1.6226158447518948L136.87894800700155,-8.526443059861457L174.6609440319541,0.9557397723918012zM173.84993882689665,0.19618347080807183L174.6609440319541,-0.4706926015520219L137.689953212059,-10.619751506165372z" style="fill:rgb(153,221,255); fill-opacity: 0.4"></path><path d="M254.08594860387015,-33.005137714420194L210.9531241958538,-44.84570692642338M210.9531241958538,-44.84570692642338L172.02487435309533,-12.835655453138902" style="fill:none;stroke:rgb(0,0,0);stroke-width:1;stroke-linecap:round"></path><path d="M136.87894800700155,-8.526443059861457L173.84993882689665,1.6226158447518948L173.84993882689665,0.19618347080807183z" style="fill:rgb(153,221,255); fill-opacity: 0.4"></path><path d="M-0.23995915894415298,82.45407618405724L30.56920164244048,90.9116257611893L30.56920164244048,-68.84880012051885zM254.08594860387012,-33.0051377144202L254.08594860387012,35.4636162348833L210.95312419585383,-44.84570692642338z" style="fill:rgb(238,238,238); fill-opacity: 0.33"></path><path d="M174.66094217313042,-0.4706931905900049L174.66094217313042,0.9557392967164762M174.66094217313042,0.9557392967164762L173.84993703252587,1.6226153160780217M174.66094217313042,0.9557392967164762L190.26520690940592,4.977551385022444M174.6609440319541,-0.4706926015520209L174.6609440319541,0.9557397723918022M174.6609440319541,0.9557397723918022L173.84993882689665,1.622615844751896" style="fill:none;stroke:rgb(0,0,0);stroke-width:1;stroke-linecap:round"></path><path d="M173.84993882689665,1.6226158447518948L174.6609440319541,0.9557397723918012L174.6609440319541,-0.4706926015520219z" style="fill:rgb(153,221,255); fill-opacity: 0.4"></path><path d="M174.660944650461,-0.4706924317631402L174.660944650461,0.955739942180683L173.84993944540358,1.6226160145407766z" style="fill:rgb(255,187,187); fill-opacity: 0.4"></path><path d="M174.66094217313042,-0.4706931905900049L173.84993703252587,0.19618282877154078M174.66094217313042,-0.4706931905900049L190.26520690940592,4.977551385022444M174.6609440319541,-0.4706926015520209L173.84993882689665,0.19618347080807283" style="fill:none;stroke:rgb(0,0,0);stroke-width:1;stroke-linecap:round"></path><path d="M154.49507863119328,-18.72167969678071L196.66734929418166,-53.39923545950556L159.69635847428657,-63.54829436411893z" style="fill:rgb(238,238,238); fill-opacity: 0.33"></path><path d="M173.84993703252587,1.6226153160780217L173.84993703252587,0.19618282877154078M173.84993703252587,1.6226153160780217L190.26520690940592,4.977551385022444M173.84993882689665,0.19618347080807283L173.84993882689665,1.622615844751896" style="fill:none;stroke:rgb(0,0,0);stroke-width:1;stroke-linecap:round"></path><path d="M173.84993882689665,0.19618347080807183L173.84993882689665,1.6226158447518948L174.6609440319541,-0.4706926015520219z" style="fill:rgb(153,221,255); fill-opacity: 0.4"></path><path d="M174.660944650461,-0.4706924317631402L173.84993944540358,1.6226160145407766L173.84993944540358,0.1961836405969536z" style="fill:rgb(255,187,187); fill-opacity: 0.4"></path><path d="M173.84993703252587,0.19618282877154078L190.26520690940592,4.977551385022444" style="fill:none;stroke:rgb(0,0,0);stroke-width:1;stroke-linecap:round"></path><path d="M210.95312419585383,-44.84570692642338L210.95312419585383,23.623047022880108L172.0248743530953,-12.835655453138902zM69.18513149418052,-43.21431236557165L69.18513149418052,36.66590057528243L99.99429229556516,-34.75676278843957zM-50.20092489068959,-93.16903579172067L-50.20092489068959,78.00284908153806L-19.39176408930496,-84.7114862145886z" style="fill:rgb(238,238,238); fill-opacity: 0.33"></path><path d="M174.660944650461,0.955739942180683L174.660944650461,-0.4706924317631402L190.2652094145824,4.97755196456411z" style="fill:rgb(255,187,187); fill-opacity: 0.4"></path><path d="M-0.23995915894415298,-77.30634969765092L30.56920164244048,-68.84880012051885L90.59262380749232,-151.9964698019814z" style="fill:rgb(238,238,238); fill-opacity: 0.33"></path><path d="M173.84993944540358,1.6226160145407766L174.660944650461,0.955739942180683L190.2652094145824,4.97755196456411zM174.660944650461,-0.4706924317631402L173.84993944540358,0.1961836405969536L190.2652094145824,4.97755196456411zM173.84993944540358,0.1961836405969536L173.84993944540358,1.6226160145407766L190.2652094145824,4.97755196456411z" style="fill:rgb(255,187,187); fill-opacity: 0.4"></path><path d="M210.95312419585383,23.623047022880108L172.0248743530953,55.63309849616459L172.0248743530953,-12.835655453138902z" style="fill:rgb(238,238,238); fill-opacity: 0.33"></path><path d="M154.4950786311933,-18.72167969678071L154.4950786311933,55.452803748298074M69.18513149418054,-43.21431236557165L99.99429229556516,-34.75676278843957" style="fill:none;stroke:rgb(0,0,0);stroke-width:1;stroke-linecap:round"></path><path d="M215.15769876111162,67.47366770816777L254.08594860387012,35.4636162348833L254.08594860387012,-33.0051377144202z" style="fill:rgb(238,238,238); fill-opacity: 0.33"></path><path d="M303.3944950736658,42.55642125167708L260.26167066564943,30.7158520396739M260.26167066564943,-3.518524934977852L260.26167066564943,30.7158520396739M260.26167066564943,30.7158520396739L240.79754574427017,46.72087777631613" style="fill:none;stroke:rgb(0,0,0);stroke-width:1;stroke-linecap:round"></path><path d="M215.15769876111162,67.47366770816777L172.0248743530953,55.63309849616459L254.08594860387012,35.4636162348833zM154.49507863119328,-18.72167969678071L154.49507863119328,55.45280374829808L196.66734929418166,-53.39923545950556zM117.52408781129822,-28.870738601394063L154.49507863119328,-18.72167969678071L159.69635847428657,-63.54829436411893z" style="fill:rgb(238,238,238); fill-opacity: 0.33"></path><path d="M254.08594860387015,-33.005137714420194L215.15769876111167,-0.9950862411357113" style="fill:none;stroke:rgb(0,0,0);stroke-width:1;stroke-linecap:round"></path><path d="M117.52408781129822,45.30374484368471L154.49507863119328,55.45280374829808L154.49507863119328,-18.72167969678071z" style="fill:rgb(238,238,238); fill-opacity: 0.33"></path><path d="M172.02487435309533,-12.835655453138902L172.02487435309533,55.63309849616459M172.02487435309533,55.63309849616459L215.15769876111167,67.47366770816778M224.61658388318816,31.98467084818486L181.48375947517178,20.14410163618167M181.48375947517178,19.19314672021912L181.48375947517178,20.14410163618167M181.48375947517178,20.14410163618167L180.9430893384668,20.58868568442173M224.61658388318816,31.03371593222231L181.48375947517178,19.19314672021912M181.48375947517178,19.19314672021912L180.9430893384668,19.637730768459182" style="fill:none;stroke:rgb(0,0,0);stroke-width:1;stroke-linecap:round"></path><path d="M181.48375947517178,19.193146720219122L181.48375947517178,20.144101636181666L180.9430893384668,19.637730768459182zM181.48375947517178,20.144101636181666L180.9430893384668,20.588685684421733L180.9430893384668,19.637730768459182z" style="fill:rgb(153,221,255); fill-opacity: 0.4"></path><path d="M180.9430893384668,19.637730768459182L180.9430893384668,20.58868568442173M180.9430893384668,20.58868568442173L224.07591374648317,32.42925489642492M180.9430893384668,19.637730768459182L224.07591374648317,31.47829998046237" style="fill:none;stroke:rgb(0,0,0);stroke-width:1;stroke-linecap:round"></path><path d="M-0.23995915894415298,-77.30634969765092L-0.23995915894415298,82.45407618405724L30.56920164244048,-68.84880012051885z" style="fill:rgb(238,238,238); fill-opacity: 0.33"></path><path d="M-79.1190030685167,-103.25515218690784L-69.35272999832134,-100.57417235732173" style="fill:none;stroke:rgb(0,0,0);stroke-width:1;stroke-linecap:round"></path><path d="M117.52408781129822,-28.870738601394063L117.52408781129822,45.30374484368471L154.49507863119328,-18.72167969678071z" style="fill:rgb(238,238,238); fill-opacity: 0.33"></path><path d="M224.61658388318816,31.98467084818486L181.48375947517178,20.144101636181666L181.48375947517178,19.193146720219122zM180.9430893384668,20.588685684421733L181.48375947517178,20.144101636181666L224.61658388318816,31.98467084818486z" style="fill:rgb(153,221,255); fill-opacity: 0.4"></path><path d="M303.3944950736658,42.556421251677094L260.26167066564943,30.715852039673894L260.26167066564943,-3.518524934977852z" style="fill:rgb(238,238,238); fill-opacity: 0.33"></path><path d="M180.9430893384668,19.637730768459182L224.07591374648317,31.478299980462378L181.48375947517178,19.193146720219122zM180.9430893384668,19.637730768459182L180.9430893384668,20.588685684421733L224.07591374648317,31.478299980462378z" style="fill:rgb(153,221,255); fill-opacity: 0.4"></path><path d="M-50.2009248906896,-93.16903579172067L-19.391764089304957,-84.7114862145886" style="fill:none;stroke:rgb(0,0,0);stroke-width:1;stroke-linecap:round"></path><path d="M240.79754574427017,46.72087777631613L260.26167066564943,30.715852039673894L303.3944950736658,42.556421251677094zM215.15769876111162,-0.9950862411357134L254.08594860387012,-33.0051377144202L210.95312419585383,-44.84570692642338z" style="fill:rgb(238,238,238); fill-opacity: 0.33"></path><path d="M303.3944950736658,8.322044277025341L260.26167066564943,-3.518524934977852M260.26167066564943,-3.518524934977852L240.79754574427017,12.486500801664391M117.52408781129823,-28.870738601394066L154.4950786311933,-18.72167969678071" style="fill:none;stroke:rgb(0,0,0);stroke-width:1;stroke-linecap:round"></path><path d="M224.61658388318816,31.033715932222318L224.61658388318816,31.98467084818486L181.48375947517178,19.193146720219122zM224.07591374648317,32.42925489642492L180.9430893384668,20.588685684421733L224.61658388318816,31.98467084818486zM224.07591374648317,31.478299980462378L224.61658388318816,31.033715932222318L181.48375947517178,19.193146720219122zM180.9430893384668,20.588685684421733L224.07591374648317,32.42925489642492L224.07591374648317,31.478299980462378z" style="fill:rgb(153,221,255); fill-opacity: 0.4"></path><path d="M303.3944950736658,8.322044277025341L303.3944950736658,42.55642125167708M303.3944950736658,42.55642125167708L283.9303701522865,58.561446988319325" style="fill:none;stroke:rgb(0,0,0);stroke-width:1;stroke-linecap:round"></path><path d="M260.26167066564943,-3.518524934977852L260.26167066564943,30.715852039673894L240.79754574427017,12.48650080166439zM260.26167066564943,30.715852039673894L240.79754574427017,46.72087777631613L240.79754574427017,12.48650080166439zM303.3944950736658,8.322044277025341L303.3944950736658,42.556421251677094L260.26167066564943,-3.518524934977852z" style="fill:rgb(238,238,238); fill-opacity: 0.33"></path><path d="M215.15769876111167,-0.9950862411357113L215.15769876111167,67.47366770816778M224.61657818683486,31.0337142072687L224.61657818683486,31.984669123231253M224.61657818683486,31.984669123231253L224.07590805012987,32.429253171471316M224.61657818683486,31.984669123231253L245.39181533887373,28.849785057550335M224.61658388318816,31.03371593222231L224.61658388318816,31.98467084818486M224.61658388318816,31.98467084818486L224.07591374648317,32.42925489642492" style="fill:none;stroke:rgb(0,0,0);stroke-width:1;stroke-linecap:round"></path><path d="M224.61658371237687,31.033715885332196L224.61658371237687,31.984670801294747L224.07591357567188,32.42925484953481z" style="fill:rgb(255,187,187); fill-opacity: 0.4"></path><path d="M224.07591374648317,32.42925489642492L224.61658388318816,31.98467084818486L224.61658388318816,31.033715932222318z" style="fill:rgb(153,221,255); fill-opacity: 0.4"></path><path d="M224.61657818683486,31.0337142072687L224.07590805012987,31.47829825550876M224.61657818683486,31.0337142072687L245.39181533887373,28.849785057550335M224.61658388318816,31.03371593222231L224.07591374648317,31.47829998046237M224.07590805012987,32.429253171471316L224.07590805012987,31.47829825550876M224.07590805012987,32.429253171471316L245.39181533887373,28.849785057550335M224.07591374648317,31.47829998046237L224.07591374648317,32.42925489642492" style="fill:none;stroke:rgb(0,0,0);stroke-width:1;stroke-linecap:round"></path><path d="M224.61658371237687,31.033715885332196L224.07591357567188,32.42925484953481L224.07591357567188,31.478299933572256z" style="fill:rgb(255,187,187); fill-opacity: 0.4"></path><path d="M224.07591374648317,31.478299980462378L224.07591374648317,32.42925489642492L224.61658388318816,31.033715932222318z" style="fill:rgb(153,221,255); fill-opacity: 0.4"></path><path d="M224.61658371237687,31.984670801294747L224.61658371237687,31.033715885332196L245.39182094194342,28.849786676284168zM224.07591357567188,32.42925484953481L224.61658371237687,31.984670801294747L245.39182094194342,28.849786676284168z" style="fill:rgb(255,187,187); fill-opacity: 0.4"></path><path d="M224.07590805012987,31.47829825550876L245.39181533887373,28.849785057550335" style="fill:none;stroke:rgb(0,0,0);stroke-width:1;stroke-linecap:round"></path><path d="M224.61658371237687,31.033715885332196L224.07591357567188,31.478299933572256L245.39182094194342,28.849786676284168zM224.07591357567188,31.478299933572256L224.07591357567188,32.42925484953481L245.39182094194342,28.849786676284168z" style="fill:rgb(255,187,187); fill-opacity: 0.4"></path><path d="M240.79754574427017,12.486500801664391L240.79754574427017,46.72087777631613M240.79754574427017,46.72087777631613L283.9303701522865,58.561446988319325" style="fill:none;stroke:rgb(0,0,0);stroke-width:1;stroke-linecap:round"></path><path d="M172.0248743530953,-12.835655453138902L215.15769876111162,-0.9950862411357134L210.95312419585383,-44.84570692642338z" style="fill:rgb(238,238,238); fill-opacity: 0.33"></path><path d="M-0.23995915894415298,-77.30634969765092L30.569201642440483,-68.84880012051885" style="fill:none;stroke:rgb(0,0,0);stroke-width:1;stroke-linecap:round"></path><path d="M215.15769876111162,-0.9950862411357134L215.15769876111162,67.47366770816777L254.08594860387012,-33.0051377144202zM172.0248743530953,55.63309849616459L215.15769876111162,67.47366770816777L215.15769876111162,-0.9950862411357134zM283.9303701522865,58.561446988319325L240.79754574427017,46.72087777631613L303.3944950736658,42.556421251677094zM172.0248743530953,-12.835655453138902L172.0248743530953,55.63309849616459L215.15769876111162,-0.9950862411357134z" style="fill:rgb(238,238,238); fill-opacity: 0.33"></path><path d="M319.6139961738313,66.96553523590944L313.99948386885785,65.42427234735335M313.99948386885785,9.06680045847797L313.99948386885785,65.42427234735335M313.99948386885785,65.42427234735335L310.75546304862803,68.09177663679372" style="fill:none;stroke:rgb(0,0,0);stroke-width:1;stroke-linecap:round"></path><path d="M283.9303701522865,58.561446988319325L303.3944950736658,42.556421251677094L303.3944950736658,8.322044277025341z" style="fill:rgb(238,238,238); fill-opacity: 0.33"></path><path d="M303.3944950736658,8.322044277025341L283.9303701522865,24.327070013667576" style="fill:none;stroke:rgb(0,0,0);stroke-width:1;stroke-linecap:round"></path><path d="M310.75546304862803,68.09177663679371L313.99948386885796,65.42427234735334L319.61399617383137,66.96553523590943z" style="fill:rgb(238,238,238); fill-opacity: 0.33"></path><path d="M319.6139961738313,10.608063347034056L319.6139961738313,66.96553523590944M319.6139961738313,66.96553523590944L316.3699753536015,69.63303952534982M172.02487435309533,-12.835655453138902L215.15769876111167,-0.9950862411357113M310.75546304862803,11.734304747918342L310.75546304862803,68.09177663679372M310.75546304862803,68.09177663679372L316.3699753536015,69.63303952534982" style="fill:none;stroke:rgb(0,0,0);stroke-width:1;stroke-linecap:round"></path><path d="M283.9303701522865,24.327070013667583L303.3944950736658,8.322044277025341L260.26167066564943,-3.518524934977852zM316.3699753536015,69.6330395253498L310.75546304862803,68.09177663679371L319.61399617383137,66.96553523590943zM240.79754574427017,12.48650080166439L283.9303701522865,24.327070013667583L260.26167066564943,-3.518524934977852z" style="fill:rgb(238,238,238); fill-opacity: 0.33"></path><path d="M316.3699753536015,13.275567636474431L316.3699753536015,69.63303952534982M296.937564620066,34.3408156041066L306.6070024786314,36.99521280106431M240.79754574427017,12.486500801664391L283.9303701522865,24.327070013667576" style="fill:none;stroke:rgb(0,0,0);stroke-width:1;stroke-linecap:round"></path><path d="M319.61399617383137,66.96553523590943L313.99948386885796,65.42427234735334L313.99948386885796,9.06680045847796zM240.79754574427017,12.48650080166439L240.79754574427017,46.72087777631613L283.9303701522865,24.327070013667583zM240.79754574427017,46.72087777631613L283.9303701522865,58.561446988319325L283.9303701522865,24.327070013667583z" style="fill:rgb(238,238,238); fill-opacity: 0.33"></path><path d="M341.1362933428962,69.74273817541355L335.5217810379227,68.20147528685746M335.5217810379227,18.10594633123717L335.5217810379227,68.20147528685746M335.5217810379227,68.20147528685746L332.2777602176929,70.86897957629783" style="fill:none;stroke:rgb(0,0,0);stroke-width:1;stroke-linecap:round"></path><path d="M313.99948386885796,65.42427234735334L310.75546304862803,68.09177663679371L310.75546304862803,11.734304747918335z" style="fill:rgb(238,238,238); fill-opacity: 0.33"></path><path d="M283.9303701522865,24.327070013667576L283.9303701522865,58.561446988319325" style="fill:none;stroke:rgb(0,0,0);stroke-width:1;stroke-linecap:round"></path><path d="M316.3699753536015,69.6330395253498L319.61399617383137,66.96553523590943L319.61399617383137,10.608063347034049zM332.2777602176929,70.86897957629782L335.52178103792284,68.20147528685744L341.1362933428962,69.74273817541355z" style="fill:rgb(238,238,238); fill-opacity: 0.33"></path><path d="M341.1362933428962,19.64720921979326L341.1362933428962,69.74273817541355M341.1362933428962,69.74273817541355L337.89227252266636,72.41024246485392" style="fill:none;stroke:rgb(0,0,0);stroke-width:1;stroke-linecap:round"></path><path d="M305.96424264175306,37.891070056546525L306.6070024786314,38.183906446017495L311.9095974333285,38.450849973589506zM307.00424988890666,35.70688950235039L306.2097550683562,36.36018936052032L311.9095974333285,38.450849973589506z" style="fill:rgb(0,0,0)"></path><path d="M283.9303701522865,24.327070013667583L283.9303701522865,58.561446988319325L303.3944950736658,8.322044277025341z" style="fill:rgb(238,238,238); fill-opacity: 0.33"></path><path d="M306.2097550683562,36.36018936052032L305.96424264175306,37.891070056546525L311.9095974333285,38.450849973589506z" style="fill:rgb(0,0,0)"></path><path d="M310.75546304862803,68.09177663679371L316.3699753536015,69.6330395253498L316.3699753536015,13.275567636474419z" style="fill:rgb(238,238,238); fill-opacity: 0.33"></path><path d="M332.2777602176929,20.773450620677547L332.2777602176929,70.86897957629783M332.2777602176929,70.86897957629783L337.89227252266636,72.41024246485392" style="fill:none;stroke:rgb(0,0,0);stroke-width:1;stroke-linecap:round"></path><path d="M337.8922725226663,72.41024246485391L332.2777602176929,70.86897957629782L341.1362933428962,69.74273817541355z" style="fill:rgb(238,238,238); fill-opacity: 0.33"></path><path d="M337.89227252266636,22.314713509233634L337.89227252266636,72.41024246485392M318.4598617891308,40.24899001023826L328.1292996476962,42.903387207195955" style="fill:none;stroke:rgb(0,0,0);stroke-width:1;stroke-linecap:round"></path><path d="M313.99948386885796,9.06680045847796L313.99948386885796,65.42427234735334L310.75546304862803,11.734304747918335zM319.61399617383137,10.608063347034049L319.61399617383137,66.96553523590943L313.99948386885796,9.06680045847796zM341.1362933428962,69.74273817541355L335.52178103792284,68.20147528685744L335.52178103792284,18.105946331237163zM335.52178103792284,68.20147528685744L332.2777602176929,70.86897957629782L332.2777602176929,20.773450620677536z" style="fill:rgb(238,238,238); fill-opacity: 0.33"></path><path d="M362.6585905119611,72.51994292872021L357.04407820698765,70.97868004016412M357.04407820698765,27.145090390193815L357.04407820698765,70.97868004016412M357.04407820698765,70.97868004016412L353.80005738675777,73.64618432960451" style="fill:none;stroke:rgb(0,0,0);stroke-width:1;stroke-linecap:round"></path><path d="M337.8922725226663,72.41024246485391L341.1362933428962,69.74273817541355L341.1362933428962,19.64720921979325zM310.75546304862803,11.734304747918335L310.75546304862803,68.09177663679371L316.3699753536015,13.275567636474419zM316.3699753536015,13.275567636474419L316.3699753536015,69.6330395253498L319.61399617383137,10.608063347034049z" style="fill:rgb(238,238,238); fill-opacity: 0.33"></path><path d="M327.4865398108179,43.79924446267817L328.1292996476962,44.092080852149145L333.43189460239336,44.35902437972116zM328.52654705797147,41.61506390848204L327.732052237421,42.26836376665197L333.43189460239336,44.35902437972116zM327.732052237421,42.26836376665197L327.4865398108179,43.79924446267817L333.43189460239336,44.35902437972116z" style="fill:rgb(0,0,0)"></path><path d="M353.80005738675777,73.6461843296045L357.0440782069877,70.97868004016412L362.65859051196117,72.5199429287202z" style="fill:rgb(238,238,238); fill-opacity: 0.33"></path><path d="M362.6585905119611,28.686353278749905L362.6585905119611,72.51994292872021M362.6585905119611,72.51994292872021L359.41456969173123,75.18744721816059" style="fill:none;stroke:rgb(0,0,0);stroke-width:1;stroke-linecap:round"></path><path d="M332.2777602176929,70.86897957629782L337.8922725226663,72.41024246485391L337.8922725226663,22.314713509233627z" style="fill:rgb(238,238,238); fill-opacity: 0.33"></path><path d="M353.80005738675777,29.81259467963419L353.80005738675777,73.64618432960451M353.80005738675777,73.64618432960451L359.41456969173123,75.18744721816059M319.6139961738313,10.608063347034056L313.99948386885785,9.06680045847797M313.99948386885785,9.06680045847797L310.75546304862803,11.734304747918342" style="fill:none;stroke:rgb(0,0,0);stroke-width:1;stroke-linecap:round"></path><path d="M359.41456969173123,75.18744721816057L353.80005738675777,73.6461843296045L362.65859051196117,72.5199429287202z" style="fill:rgb(238,238,238); fill-opacity: 0.33"></path><path d="M339.9821589581958,46.15716441636992L349.6515968167612,48.811561613327626" style="fill:none;stroke:rgb(0,0,0);stroke-width:1;stroke-linecap:round"></path><path d="M335.52178103792284,18.105946331237163L335.52178103792284,68.20147528685744L332.2777602176929,20.773450620677536zM341.1362933428962,19.64720921979325L341.1362933428962,69.74273817541355L335.52178103792284,18.105946331237163z" style="fill:rgb(238,238,238); fill-opacity: 0.33"></path><path d="M359.41456969173123,31.35385756819028L359.41456969173123,75.18744721816059M319.6139961738313,10.608063347034056L316.3699753536015,13.275567636474431" style="fill:none;stroke:rgb(0,0,0);stroke-width:1;stroke-linecap:round"></path><path d="M316.3699753536015,13.275567636474419L319.61399617383137,10.608063347034049L313.99948386885796,9.06680045847796zM362.65859051196117,72.5199429287202L357.0440782069877,70.97868004016412L357.0440782069877,27.14509039019382zM310.75546304862803,11.734304747918335L316.3699753536015,13.275567636474419L313.99948386885796,9.06680045847796z" style="fill:rgb(238,238,238); fill-opacity: 0.33"></path><path d="M310.75546304862803,11.734304747918342L316.3699753536015,13.275567636474431" style="fill:none;stroke:rgb(0,0,0);stroke-width:1;stroke-linecap:round"></path><path d="M357.0440782069877,70.97868004016412L353.80005738675777,73.6461843296045L353.80005738675777,29.812594679634195zM332.2777602176929,20.773450620677536L332.2777602176929,70.86897957629782L337.8922725226663,22.314713509233627zM337.8922725226663,22.314713509233627L337.8922725226663,72.41024246485391L341.1362933428962,19.64720921979325z" style="fill:rgb(238,238,238); fill-opacity: 0.33"></path><path d="M349.00883697988286,49.70741886880982L349.65159681676107,50.0002552582808L354.9541917714583,50.26719878585282z" style="fill:rgb(0,0,0)"></path><path d="M359.41456969173123,75.18744721816057L362.65859051196117,72.5199429287202L362.65859051196117,28.686353278749902z" style="fill:rgb(238,238,238); fill-opacity: 0.33"></path><path d="M350.04884422703634,47.5232383146137L349.25434940648586,48.17653817278363L354.9541917714583,50.26719878585282zM349.25434940648586,48.17653817278363L349.00883697988286,49.70741886880982L354.9541917714583,50.26719878585282z" style="fill:rgb(0,0,0)"></path><path d="M341.1362933428962,19.64720921979326L335.5217810379227,18.10594633123717M335.5217810379227,18.10594633123717L332.2777602176929,20.773450620677547" style="fill:none;stroke:rgb(0,0,0);stroke-width:1;stroke-linecap:round"></path><path d="M353.80005738675777,73.6461843296045L359.41456969173123,75.18744721816057L359.41456969173123,31.353857568190275z" style="fill:rgb(238,238,238); fill-opacity: 0.33"></path><path d="M384.180887681026,67.34270114296716L378.5663753760525,65.80143825441108M378.5663753760525,44.138680988210176L378.5663753760525,65.80143825441108M378.5663753760525,65.80143825441108L375.32235455582264,68.46894254385145M341.1362933428962,19.64720921979326L337.89227252266636,22.314713509233634M361.50445612726065,52.06533882250158L371.17389398582606,54.71973601945929" style="fill:none;stroke:rgb(0,0,0);stroke-width:1;stroke-linecap:round"></path><path d="M357.0440782069877,27.14509039019382L357.0440782069877,70.97868004016412L353.80005738675777,29.812594679634195zM362.65859051196117,28.686353278749902L362.65859051196117,72.5199429287202L357.0440782069877,27.14509039019382zM337.8922725226663,22.314713509233627L341.1362933428962,19.64720921979325L335.52178103792284,18.105946331237163zM332.2777602176929,20.773450620677536L337.8922725226663,22.314713509233627L335.52178103792284,18.105946331237163z" style="fill:rgb(238,238,238); fill-opacity: 0.33"></path><path d="M332.2777602176929,20.773450620677547L337.89227252266636,22.314713509233634" style="fill:none;stroke:rgb(0,0,0);stroke-width:1;stroke-linecap:round"></path><path d="M375.32235455582264,68.46894254385145L378.5663753760526,65.80143825441108L384.18088768102604,67.34270114296716z" style="fill:rgb(238,238,238); fill-opacity: 0.33"></path><path d="M384.180887681026,45.679943876766266L384.180887681026,67.34270114296716M384.180887681026,67.34270114296716L380.9368668607961,70.01020543240755" style="fill:none;stroke:rgb(0,0,0);stroke-width:1;stroke-linecap:round"></path><path d="M353.80005738675777,29.812594679634195L353.80005738675777,73.6461843296045L359.41456969173123,31.353857568190275zM384.18088768102604,67.34270114296716L378.5663753760526,65.80143825441108L378.5663753760526,44.13868098821019z" style="fill:rgb(238,238,238); fill-opacity: 0.33"></path><path d="M375.32235455582264,46.80618527765055L375.32235455582264,68.46894254385145M375.32235455582264,68.46894254385145L380.9368668607961,70.01020543240755" style="fill:none;stroke:rgb(0,0,0);stroke-width:1;stroke-linecap:round"></path><path d="M359.41456969173123,31.353857568190275L359.41456969173123,75.18744721816057L362.65859051196117,28.686353278749902zM380.9368668607961,70.01020543240755L375.32235455582264,68.46894254385145L384.18088768102604,67.34270114296716z" style="fill:rgb(238,238,238); fill-opacity: 0.33"></path><path d="M370.53113414894773,55.615593274941496L371.173893985826,55.90842966441248L376.47648894052315,56.17537319198448zM371.5711413961012,53.43141272074535L370.7766465755507,54.0847125789153L376.47648894052315,56.17537319198448z" style="fill:rgb(0,0,0)"></path><path d="M362.6585905119611,28.686353278749905L357.04407820698765,27.145090390193815M357.04407820698765,27.145090390193815L353.80005738675777,29.81259467963419" style="fill:none;stroke:rgb(0,0,0);stroke-width:1;stroke-linecap:round"></path><path d="M370.7766465755507,54.0847125789153L370.53113414894773,55.615593274941496L376.47648894052315,56.17537319198448z" style="fill:rgb(0,0,0)"></path><path d="M378.5663753760526,65.80143825441108L375.32235455582264,68.46894254385145L375.32235455582264,46.80618527765056z" style="fill:rgb(238,238,238); fill-opacity: 0.33"></path><path d="M380.9368668607961,48.34744816620664L380.9368668607961,70.01020543240755" style="fill:none;stroke:rgb(0,0,0);stroke-width:1;stroke-linecap:round"></path><path d="M380.9368668607961,70.01020543240755L384.18088768102604,67.34270114296716L384.18088768102604,45.67994387676627zM378.5663753760526,44.13868098821019L378.5663753760526,65.80143825441108L375.32235455582264,46.80618527765056z" style="fill:rgb(238,238,238); fill-opacity: 0.33"></path><path d="M362.6585905119611,28.686353278749905L359.41456969173123,31.35385756819028" style="fill:none;stroke:rgb(0,0,0);stroke-width:1;stroke-linecap:round"></path><path d="M384.18088768102604,45.67994387676627L384.18088768102604,67.34270114296716L378.5663753760526,44.13868098821019zM359.41456969173123,31.353857568190275L362.65859051196117,28.686353278749902L357.0440782069877,27.14509039019382zM375.32235455582264,68.46894254385145L380.9368668607961,70.01020543240755L380.9368668607961,48.34744816620665zM353.80005738675777,29.812594679634195L359.41456969173123,31.353857568190275L357.0440782069877,27.14509039019382z" style="fill:rgb(238,238,238); fill-opacity: 0.33"></path><path d="M353.80005738675777,29.81259467963419L359.41456969173123,31.35385756819028M384.180887681026,45.679943876766266L378.5663753760525,44.138680988210176M378.5663753760525,44.138680988210176L375.32235455582264,46.80618527765055" style="fill:none;stroke:rgb(0,0,0);stroke-width:1;stroke-linecap:round"></path><path d="M375.32235455582264,46.80618527765056L375.32235455582264,68.46894254385145L380.9368668607961,48.34744816620665zM380.9368668607961,48.34744816620665L380.9368668607961,70.01020543240755L384.18088768102604,45.67994387676627z" style="fill:rgb(238,238,238); fill-opacity: 0.33"></path><path d="M384.180887681026,45.679943876766266L380.9368668607961,48.34744816620664" style="fill:none;stroke:rgb(0,0,0);stroke-width:1;stroke-linecap:round"></path><path d="M380.9368668607961,48.34744816620665L384.18088768102604,45.67994387676627L378.5663753760526,44.13868098821019zM375.32235455582264,46.80618527765056L380.9368668607961,48.34744816620665L378.5663753760526,44.13868098821019z" style="fill:rgb(238,238,238); fill-opacity: 0.33"></path><path d="M375.32235455582264,46.80618527765055L380.9368668607961,48.34744816620664" style="fill:none;stroke:rgb(0,0,0);stroke-width:1;stroke-linecap:round"></path></svg>