<svg viewBox="-581.5 -290.5 1163 581" width="1163" height="581" style="background-color: rgb(255, 255, 255);" xmlns="http://www.w3.org/2000/svg"><path d="M103.2251304544411,36.28393574798397L95.27043999956027,34.10026092066216M95.27043999956027,-263.3302885269104L95.27043999956027,34.10026092066216M95.27043999956027,34.10026092066216L-73.8351749257107,173.1529915223257M103.2251304544411,-261.14661369958856L103.2251304544411,36.28393574798397M103.2251304544411,36.28393574798397L-65.88048447082987,175.33666634964754M139.9552365935608,45.4922126238275L114.86098256357803,38.603485633568575M114.86098256357803,-254.1797114788857L114.86098256357803,38.603485633568575M114.86098256357803,38.603485633568575L-51.602357128485565,175.48351731958115M139.9552365935608,-247.29098448862675L139.9552365935608,45.4922126238275M139.9552365935608,45.4922126238275L-26.50810309850278,182.3722443098401M180.3830548440335,54.84090789205198L150.26995175253634,46.574435982626255M150.26995175253634,-236.91405645959136L150.26995175253634,46.574435982626255M150.26995175253634,46.574435982626255L-10.908837473112584,179.1090698373368" style="fill:none;stroke:rgb(0,0,0);stroke-width:1;stroke-linecap:round"></path><path d="M103.2251304544411,36.28393574798398L95.27043999956027,34.10026092066215L95.27043999956027,-263.3302885269104z" style="fill:rgb(238,238,238); fill-opacity: 0.33"></path><path d="M180.3830548440335,-228.6475845501656L180.3830548440335,54.84090789205198M180.3830548440335,54.84090789205198L19.204265618384586,187.37554174676256" style="fill:none;stroke:rgb(0,0,0);stroke-width:1;stroke-linecap:round"></path><path d="M139.9552365935608,45.49221262382751L114.86098256357803,38.60348563356858L114.86098256357803,-254.17971147888568zM-73.83517492571072,173.15299152232572L95.27043999956027,34.10026092066215L103.2251304544411,36.28393574798398zM180.38305484403352,54.84090789205199L150.26995175253634,46.57443598262626L150.26995175253634,-236.91405645959134zM-51.602357128485586,175.48351731958118L114.86098256357803,38.60348563356858L139.9552365935608,45.49221262382751zM103.2251304544411,-261.14661369958856L103.2251304544411,36.28393574798398L95.27043999956027,-263.3302885269104zM-10.908837473112568,179.10906983733685L150.26995175253634,46.57443598262626L180.38305484403352,54.84090789205199zM139.9552365935608,-247.29098448862675L139.9552365935608,45.49221262382751L114.86098256357803,-254.17971147888568zM-65.88048447082984,175.33666634964754L103.2251304544411,36.28393574798398L103.2251304544411,-261.14661369958856zM180.38305484403352,-228.6475845501656L180.38305484403352,54.84090789205199L150.26995175253634,-236.91405645959134z" style="fill:rgb(238,238,238); fill-opacity: 0.33"></path><path d="M103.2251304544411,-261.14661369958856L95.27043999956027,-263.3302885269104M95.27043999956027,-263.3302885269104L-73.8351749257107,-124.27755792524685M183.15845183213185,28.925792155451454L153.04534874063467,20.65932024602573M153.04534874063467,-121.08492597508307L153.04534874063467,20.65932024602573M153.04534874063467,20.65932024602573L72.45595412781022,86.92663717338101" style="fill:none;stroke:rgb(0,0,0);stroke-width:1;stroke-linecap:round"></path><path d="M-26.508103098502794,182.3722443098401L139.9552365935608,45.49221262382751L139.9552365935608,-247.29098448862675z" style="fill:rgb(238,238,238); fill-opacity: 0.33"></path><path d="M103.2251304544411,-261.14661369958856L-65.88048447082987,-122.09388309792504M139.9552365935608,-247.29098448862675L114.86098256357803,-254.1797114788857M114.86098256357803,-254.1797114788857L-51.602357128485565,-117.2996797928731" style="fill:none;stroke:rgb(0,0,0);stroke-width:1;stroke-linecap:round"></path><path d="M-65.88048447082984,175.33666634964754L-73.83517492571072,173.15299152232572L103.2251304544411,36.28393574798398z" style="fill:rgb(238,238,238); fill-opacity: 0.33"></path><path d="M183.15845183213185,-112.81845406565733L183.15845183213185,28.925792155451454M183.15845183213185,28.925792155451454L102.56905721930738,95.19310908280674M139.9552365935608,-247.29098448862675L-26.50810309850278,-110.41095280261418M229.9262598361188,40.88955989681608L194.79430477563693,31.245342270081906M194.79430477563693,-105.85155161590859L194.79430477563693,31.245342270081906M194.79430477563693,31.245342270081906L116.84718539601984,95.3399602817862" style="fill:none;stroke:rgb(0,0,0);stroke-width:1;stroke-linecap:round"></path><path d="M19.2042656183846,187.37554174676256L180.38305484403352,54.84090789205199L180.38305484403352,-228.6475845501656zM-26.508103098502794,182.3722443098401L-51.602357128485586,175.48351731958118L139.9552365935608,45.49221262382751zM183.15845183213185,28.92579215545146L153.04534874063467,20.65932024602573L153.04534874063467,-121.08492597508308z" style="fill:rgb(238,238,238); fill-opacity: 0.33"></path><path d="M180.3830548440335,-228.6475845501656L150.26995175253634,-236.91405645959136M150.26995175253634,-236.91405645959136L-10.908837473112584,-104.37942260488077" style="fill:none;stroke:rgb(0,0,0);stroke-width:1;stroke-linecap:round"></path><path d="M95.27043999956027,-263.3302885269104L95.27043999956027,34.10026092066215L-73.83517492571072,-124.27755792524688zM114.86098256357803,-254.17971147888568L114.86098256357803,38.60348563356858L-51.602357128485586,-117.2996797928731z" style="fill:rgb(238,238,238); fill-opacity: 0.33"></path><path d="M229.9262598361188,-96.20733398917442L229.9262598361188,40.88955989681608M229.9262598361188,40.88955989681608L151.9791404565017,104.98417790852038M74.31523988482064,-69.66615074333801L49.22098585483785,-76.55487773359694M49.22098585483785,-78.49127453989625L49.22098585483785,-76.55487773359694M49.22098585483785,-76.55487773359694L48.120037841001455,-75.64958651874237M74.31523988482064,-71.60254754963731L49.22098585483785,-78.49127453989625M49.22098585483785,-78.49127453989625L48.120037841001455,-77.58598332504165" style="fill:none;stroke:rgb(0,0,0);stroke-width:1;stroke-linecap:round"></path><path d="M49.22098585483787,-78.49127453989624L49.22098585483787,-76.55487773359694L48.120037841001455,-77.58598332504165zM49.22098585483787,-76.55487773359694L48.120037841001455,-75.64958651874235L48.120037841001455,-77.58598332504165z" style="fill:rgb(153,221,255); fill-opacity: 0.4"></path><path d="M48.120037841001455,-77.58598332504165L48.120037841001455,-75.64958651874237M48.120037841001455,-75.64958651874237L73.21429187098424,-68.76085952848344" style="fill:none;stroke:rgb(0,0,0);stroke-width:1;stroke-linecap:round"></path><path d="M72.45595412781022,86.926637173381L153.04534874063467,20.65932024602573L183.15845183213185,28.92579215545146z" style="fill:rgb(238,238,238); fill-opacity: 0.33"></path><path d="M48.120037841001455,-77.58598332504165L73.21429187098424,-70.69725633478274M180.3830548440335,-228.6475845501656L19.204265618384586,-96.11295069545505" style="fill:none;stroke:rgb(0,0,0);stroke-width:1;stroke-linecap:round"></path><path d="M74.31523988482066,-69.66615074333801L49.22098585483787,-76.55487773359694L49.22098585483787,-78.49127453989624zM48.120037841001455,-75.64958651874235L49.22098585483787,-76.55487773359694L74.31523988482066,-69.66615074333801zM48.120037841001455,-77.58598332504165L73.21429187098424,-70.69725633478272L49.22098585483787,-78.49127453989624zM48.120037841001455,-77.58598332504165L48.120037841001455,-75.64958651874235L73.21429187098424,-70.69725633478272z" style="fill:rgb(153,221,255); fill-opacity: 0.4"></path><path d="M19.2042656183846,187.37554174676256L-10.908837473112568,179.10906983733685L180.38305484403352,54.84090789205199z" style="fill:rgb(238,238,238); fill-opacity: 0.33"></path><path d="M74.31523988482066,-71.6025475496373L74.31523988482066,-69.66615074333801L49.22098585483787,-78.49127453989624zM73.21429187098424,-68.76085952848341L48.120037841001455,-75.64958651874235L74.31523988482066,-69.66615074333801zM73.21429187098424,-70.69725633478272L74.31523988482066,-71.6025475496373L49.22098585483787,-78.49127453989624zM48.120037841001455,-75.64958651874235L73.21429187098424,-68.76085952848341L73.21429187098424,-70.69725633478272z" style="fill:rgb(153,221,255); fill-opacity: 0.4"></path><path d="M229.9262598361188,40.889559896816074L194.79430477563693,31.24534227008191L194.79430477563693,-105.85155161590859z" style="fill:rgb(238,238,238); fill-opacity: 0.33"></path><path d="M280.39177945294233,52.99374589371187L240.24097533094613,41.9717833478109M240.24097533094613,-85.83040586794296L240.24097533094613,41.9717833478109M240.24097533094613,41.9717833478109L167.57840641774374,101.72100352821319M74.31523988482064,-71.60254754963731L74.31523988482064,-69.66615074333801M74.31523988482064,-69.66615074333801L73.21429187098424,-68.76085952848344M74.31524185488855,-71.60254647105288L74.31524185488855,-69.66614966475358M74.31524185488855,-69.66614966475358L73.21429384105215,-68.760858449899M74.31524185488855,-69.66614966475358L86.1807671473775,-65.42729142925627" style="fill:none;stroke:rgb(0,0,0);stroke-width:1;stroke-linecap:round"></path><path d="M74.31523957776788,-71.60254763392761L74.31523957776788,-69.66615082762833L73.21429156393147,-68.76085961277373z" style="fill:rgb(255,187,187); fill-opacity: 0.4"></path><path d="M73.21429187098424,-68.76085952848341L74.31523988482066,-69.66615074333801L74.31523988482066,-71.6025475496373z" style="fill:rgb(153,221,255); fill-opacity: 0.4"></path><path d="M74.31523988482064,-71.60254754963731L73.21429187098424,-70.69725633478274M74.31524185488855,-71.60254647105288L73.21429384105215,-70.6972552561983M74.31524185488855,-71.60254647105288L86.1807671473775,-65.42729142925627M73.21429187098424,-70.69725633478274L73.21429187098424,-68.76085952848344M73.21429384105215,-68.760858449899L73.21429384105215,-70.6972552561983M73.21429384105215,-68.760858449899L86.1807671473775,-65.42729142925627" style="fill:none;stroke:rgb(0,0,0);stroke-width:1;stroke-linecap:round"></path><path d="M74.31523957776788,-71.60254763392761L73.21429156393147,-68.76085961277373L73.21429156393147,-70.69725641907304z" style="fill:rgb(255,187,187); fill-opacity: 0.4"></path><path d="M73.21429187098424,-70.69725633478272L73.21429187098424,-68.76085952848341L74.31523988482066,-71.6025475496373z" style="fill:rgb(153,221,255); fill-opacity: 0.4"></path><path d="M73.21429384105215,-70.6972552561983L86.1807671473775,-65.42729142925627" style="fill:none;stroke:rgb(0,0,0);stroke-width:1;stroke-linecap:round"></path><path d="M74.31523957776788,-69.66615082762833L74.31523957776788,-71.60254763392761L86.18076531772427,-65.42729250386085zM73.21429156393147,-68.76085961277373L74.31523957776788,-69.66615082762833L86.18076531772427,-65.42729250386085z" style="fill:rgb(255,187,187); fill-opacity: 0.4"></path><path d="M170.30137466470444,-35.71551736207181L140.18827157320726,-43.98198927149753M140.18827157320726,-45.14382735527712L140.18827157320726,-43.98198927149753M140.18827157320726,-43.98198927149753L139.52770276490543,-43.43881454258479" style="fill:none;stroke:rgb(0,0,0);stroke-width:1;stroke-linecap:round"></path><path d="M74.31523957776788,-71.60254763392761L73.21429156393147,-70.69725641907304L86.18076531772427,-65.42729250386085z" style="fill:rgb(255,187,187); fill-opacity: 0.4"></path><path d="M170.30137466470444,-36.877355445851386L140.18827157320726,-45.14382735527712M140.18827157320726,-45.14382735527712L139.52770276490543,-44.600652626364365" style="fill:none;stroke:rgb(0,0,0);stroke-width:1;stroke-linecap:round"></path><path d="M73.21429156393147,-70.69725641907304L73.21429156393147,-68.76085961277373L86.18076531772427,-65.42729250386085z" style="fill:rgb(255,187,187); fill-opacity: 0.4"></path><path d="M140.18827157320726,-45.14382735527712L140.18827157320726,-43.98198927149753L139.5277027649054,-44.60065262636437zM140.18827157320726,-43.98198927149753L139.5277027649054,-43.43881454258479L139.5277027649054,-44.60065262636437z" style="fill:rgb(153,221,255); fill-opacity: 0.4"></path><path d="M139.52770276490543,-44.600652626364365L139.52770276490543,-43.43881454258479M139.52770276490543,-43.43881454258479L169.64080585640258,-35.172342633159055" style="fill:none;stroke:rgb(0,0,0);stroke-width:1;stroke-linecap:round"></path><path d="M183.15845183213185,-112.81845406565735L183.15845183213185,28.92579215545146L153.04534874063467,-121.08492597508308z" style="fill:rgb(238,238,238); fill-opacity: 0.33"></path><path d="M139.52770276490543,-44.600652626364365L169.64080585640258,-36.33418071693864" style="fill:none;stroke:rgb(0,0,0);stroke-width:1;stroke-linecap:round"></path><path d="M150.26995175253634,-236.91405645959134L150.26995175253634,46.57443598262626L-10.908837473112568,-104.37942260488077zM95.27043999956027,34.10026092066215L-73.83517492571072,173.15299152232572L-73.83517492571072,-124.27755792524688z" style="fill:rgb(238,238,238); fill-opacity: 0.33"></path><path d="M170.30137466470444,-35.71551736207181L140.18827157320726,-43.98198927149753L140.18827157320726,-45.14382735527712zM139.5277027649054,-43.43881454258479L140.18827157320726,-43.98198927149753L170.30137466470444,-35.71551736207181zM139.5277027649054,-44.60065262636437L169.64080585640258,-36.33418071693865L140.18827157320726,-45.14382735527712zM139.5277027649054,-44.60065262636437L139.5277027649054,-43.43881454258479L169.64080585640258,-36.33418071693865z" style="fill:rgb(153,221,255); fill-opacity: 0.4"></path><path d="M116.84718539601984,95.3399602817862L194.79430477563693,31.24534227008191L229.9262598361188,40.889559896816074z" style="fill:rgb(238,238,238); fill-opacity: 0.33"></path><path d="M170.30137466470444,-36.87735544585139L170.30137466470444,-35.71551736207181L140.18827157320726,-45.14382735527712zM169.64080585640258,-35.17234263315906L139.5277027649054,-43.43881454258479L170.30137466470444,-35.71551736207181zM169.64080585640258,-36.33418071693865L170.30137466470444,-36.87735544585139L140.18827157320726,-45.14382735527712zM139.5277027649054,-43.43881454258479L169.64080585640258,-35.17234263315906L169.64080585640258,-36.33418071693865z" style="fill:rgb(153,221,255); fill-opacity: 0.4"></path><path d="M114.86098256357803,38.60348563356858L-51.602357128485586,175.48351731958118L-51.602357128485586,-117.2996797928731z" style="fill:rgb(238,238,238); fill-opacity: 0.33"></path><path d="M170.30137466470444,-36.877355445851386L170.30137466470444,-35.71551736207181M170.30137466470444,-35.71551736207181L169.64080585640258,-35.172342633159055M170.30137501799385,-36.87735526589662L170.30137501799385,-35.71551718211703M170.30137501799385,-35.71551718211703L169.64080620969202,-35.17234245320429M170.30137501799385,-35.71551718211703L182.03931556776612,-31.57576958011241" style="fill:none;stroke:rgb(0,0,0);stroke-width:1;stroke-linecap:round"></path><path d="M169.64080585640258,-35.17234263315906L170.30137466470444,-35.71551736207181L170.30137466470444,-36.87735544585139z" style="fill:rgb(153,221,255); fill-opacity: 0.4"></path><path d="M170.3013751684822,-36.87735530755729L170.3013751684822,-35.7155172237777L169.64080636018036,-35.17234249486495z" style="fill:rgb(255,187,187); fill-opacity: 0.4"></path><path d="M170.30137466470444,-36.877355445851386L169.64080585640258,-36.33418071693864M170.30137501799385,-36.87735526589662L169.64080620969202,-36.33418053698387M170.30137501799385,-36.87735526589662L182.03931556776612,-31.57576958011241M169.64080585640258,-36.33418071693864L169.64080585640258,-35.172342633159055M169.64080620969202,-35.17234245320429L169.64080620969202,-36.33418053698387M169.64080620969202,-35.17234245320429L182.03931556776612,-31.57576958011241M183.15845183213185,-112.81845406565733L153.04534874063467,-121.08492597508307M153.04534874063467,-121.08492597508307L72.45595412781022,-54.817609047727785M280.39177945294233,-74.80844332204198L280.39177945294233,52.99374589371187M280.39177945294233,52.99374589371187L207.72921053973997,112.74296607411416" style="fill:none;stroke:rgb(0,0,0);stroke-width:1;stroke-linecap:round"></path><path d="M169.64080585640258,-36.33418071693865L169.64080585640258,-35.17234263315906L170.30137466470444,-36.87735544585139z" style="fill:rgb(153,221,255); fill-opacity: 0.4"></path><path d="M170.3013751684822,-36.87735530755729L169.64080636018036,-35.17234249486495L169.64080636018036,-36.334180578644535z" style="fill:rgb(255,187,187); fill-opacity: 0.4"></path><path d="M169.64080620969202,-36.33418053698387L182.03931556776612,-31.57576958011241" style="fill:none;stroke:rgb(0,0,0);stroke-width:1;stroke-linecap:round"></path><path d="M170.3013751684822,-35.7155172237777L170.3013751684822,-36.87735530755729L182.03931585372902,-31.575769667175713zM169.64080636018036,-35.17234249486495L170.3013751684822,-35.7155172237777L182.03931585372902,-31.575769667175713zM170.3013751684822,-36.87735530755729L169.64080636018036,-36.334180578644535L182.03931585372902,-31.575769667175713zM169.64080636018036,-36.334180578644535L169.64080636018036,-35.17234249486495L182.03931585372902,-31.575769667175713z" style="fill:rgb(255,187,187); fill-opacity: 0.4"></path><path d="M102.56905721930738,95.19310908280673L183.15845183213185,28.92579215545146L183.15845183213185,-112.81845406565735zM280.3917794529424,52.99374589371187L240.24097533094613,41.9717833478109L240.24097533094613,-85.83040586794296zM229.9262598361188,-96.20733398917443L229.9262598361188,40.889559896816074L194.79430477563693,-105.85155161590859zM-65.88048447082984,-122.09388309792504L103.2251304544411,-261.14661369958856L95.27043999956027,-263.3302885269104z" style="fill:rgb(238,238,238); fill-opacity: 0.33"></path><path d="M183.15845183213185,-112.81845406565733L102.56905721930738,-46.55113713830206" style="fill:none;stroke:rgb(0,0,0);stroke-width:1;stroke-linecap:round"></path><path d="M153.04534874063467,-121.08492597508308L153.04534874063467,20.65932024602573L72.45595412781022,-54.81760904772778zM102.56905721930738,95.19310908280673L72.45595412781022,86.926637173381L183.15845183213185,28.92579215545146zM150.26995175253634,46.57443598262626L-10.908837473112568,179.10906983733685L-10.908837473112568,-104.37942260488077z" style="fill:rgb(238,238,238); fill-opacity: 0.33"></path><path d="M-73.8351749257107,-124.27755792524685L-73.8351749257107,173.1529915223257M-73.8351749257107,173.1529915223257L-65.88048447082987,175.33666634964754M229.9262598361188,-96.20733398917442L194.79430477563693,-105.85155161590859M194.79430477563693,-105.85155161590859L116.84718539601984,-41.756933604204285M191.18522437782684,44.688330177611086L156.05326931734498,35.04411255087691M156.05326931734498,33.10771574457761L156.05326931734498,35.04411255087691M156.05326931734498,35.04411255087691L154.95232130350857,35.94940376573149" style="fill:none;stroke:rgb(0,0,0);stroke-width:1;stroke-linecap:round"></path><path d="M167.57840641774374,101.72100352821319L240.24097533094613,41.9717833478109L280.3917794529424,52.99374589371187z" style="fill:rgb(238,238,238); fill-opacity: 0.33"></path><path d="M-65.88048447082987,-122.09388309792504L-65.88048447082987,175.33666634964754M191.18522437782684,42.751933371311786L156.05326931734498,33.10771574457761M156.05326931734498,33.10771574457761L154.95232130350857,34.01300695943219" style="fill:none;stroke:rgb(0,0,0);stroke-width:1;stroke-linecap:round"></path><path d="M156.05326931734498,33.107715744577604L156.05326931734498,35.0441125508769L154.95232130350857,34.01300695943219zM156.05326931734498,35.0441125508769L154.95232130350857,35.94940376573149L154.95232130350857,34.01300695943219z" style="fill:rgb(153,221,255); fill-opacity: 0.4"></path><path d="M154.95232130350857,34.01300695943219L154.95232130350857,35.94940376573149M154.95232130350857,35.94940376573149L190.08427636399045,45.593621392465664M154.95232130350857,34.01300695943219L190.08427636399045,43.65722458616636" style="fill:none;stroke:rgb(0,0,0);stroke-width:1;stroke-linecap:round"></path><path d="M-26.508103098502794,-110.41095280261418L139.9552365935608,-247.29098448862675L114.86098256357803,-254.17971147888568z" style="fill:rgb(238,238,238); fill-opacity: 0.33"></path><path d="M191.18522437782684,44.688330177611064L156.05326931734498,35.0441125508769L156.05326931734498,33.107715744577604zM154.95232130350857,35.94940376573149L156.05326931734498,35.0441125508769L191.18522437782684,44.688330177611064z" style="fill:rgb(153,221,255); fill-opacity: 0.4"></path><path d="M-51.602357128485565,-117.2996797928731L-51.602357128485565,175.48351731958115M-51.602357128485565,175.48351731958115L-26.50810309850278,182.3722443098401" style="fill:none;stroke:rgb(0,0,0);stroke-width:1;stroke-linecap:round"></path><path d="M151.9791404565017,104.98417790852037L229.9262598361188,40.889559896816074L229.9262598361188,-96.20733398917443zM153.04534874063467,20.65932024602573L72.45595412781022,86.926637173381L72.45595412781022,-54.81760904772778z" style="fill:rgb(238,238,238); fill-opacity: 0.33"></path><path d="M154.95232130350857,34.01300695943219L190.08427636399045,43.65722458616635L156.05326931734498,33.107715744577604zM154.95232130350857,34.01300695943219L154.95232130350857,35.94940376573149L190.08427636399045,43.65722458616635zM191.18522437782684,42.75193337131178L191.18522437782684,44.688330177611064L156.05326931734498,33.107715744577604zM190.08427636399045,45.59362139246566L154.95232130350857,35.94940376573149L191.18522437782684,44.688330177611064zM190.08427636399045,43.65722458616635L191.18522437782684,42.75193337131178L156.05326931734498,33.107715744577604zM154.95232130350857,35.94940376573149L190.08427636399045,45.59362139246566L190.08427636399045,43.65722458616635z" style="fill:rgb(153,221,255); fill-opacity: 0.4"></path><path d="M194.79430477563693,-105.85155161590859L194.79430477563693,31.24534227008191L116.84718539601984,-41.756933604204285zM280.3917794529424,-74.80844332204198L280.3917794529424,52.99374589371187L240.24097533094613,-85.83040586794296zM151.9791404565017,104.98417790852037L116.84718539601984,95.3399602817862L229.9262598361188,40.889559896816074z" style="fill:rgb(238,238,238); fill-opacity: 0.33"></path><path d="M229.9262598361188,-96.20733398917442L151.9791404565017,-32.11271597747011M191.1852249667909,42.751934785453955L191.1852249667909,44.68833159175325M191.1852249667909,44.68833159175325L190.08427692670588,45.593622828191656M191.1852249667909,44.68833159175325L203.6132941610207,45.03240925317459M191.18522437782684,42.751933371311786L191.18522437782684,44.688330177611086M191.18522437782684,44.688330177611086L190.08427636399045,45.593621392465664" style="fill:none;stroke:rgb(0,0,0);stroke-width:1;stroke-linecap:round"></path><path d="M191.18522423869996,42.75193333311948L191.18522423869996,44.68833013941878L190.08427622486357,45.59362135427337z" style="fill:rgb(255,187,187); fill-opacity: 0.4"></path><path d="M190.08427636399045,45.59362139246566L191.18522437782684,44.688330177611064L191.18522437782684,42.75193337131178z" style="fill:rgb(153,221,255); fill-opacity: 0.4"></path><path d="M191.1852249667909,42.751934785453955L190.08427692670588,43.65722602189236M191.1852249667909,42.751934785453955L203.6132941610207,45.03240925317459M191.18522437782684,42.751933371311786L190.08427636399045,43.65722458616636M190.08427692670588,45.593622828191656L190.08427692670588,43.65722602189236M190.08427692670588,45.593622828191656L203.6132941610207,45.03240925317459M190.08427636399045,43.65722458616636L190.08427636399045,45.593621392465664M-26.50810309850278,-110.41095280261418L-26.50810309850278,182.3722443098401" style="fill:none;stroke:rgb(0,0,0);stroke-width:1;stroke-linecap:round"></path><path d="M191.18522423869996,42.75193333311948L190.08427622486357,45.59362135427337L190.08427622486357,43.65722454797407z" style="fill:rgb(255,187,187); fill-opacity: 0.4"></path><path d="M190.08427636399045,43.65722458616635L190.08427636399045,45.59362139246566L191.18522437782684,42.75193337131178z" style="fill:rgb(153,221,255); fill-opacity: 0.4"></path><path d="M190.08427692670588,43.65722602189236L203.6132941610207,45.03240925317459" style="fill:none;stroke:rgb(0,0,0);stroke-width:1;stroke-linecap:round"></path><path d="M191.18522423869996,44.68833013941878L191.18522423869996,42.75193333311948L203.61329634421605,45.032409632554256zM190.08427622486357,45.59362135427337L191.18522423869996,44.68833013941878L203.61329634421605,45.032409632554256z" style="fill:rgb(255,187,187); fill-opacity: 0.4"></path><path d="M-65.88048447082984,-122.09388309792504L-65.88048447082984,175.33666634964754L103.2251304544411,-261.14661369958856z" style="fill:rgb(238,238,238); fill-opacity: 0.33"></path><path d="M191.18522423869996,42.75193333311948L190.08427622486357,43.65722454797407L203.61329634421605,45.032409632554256zM190.08427622486357,43.65722454797407L190.08427622486357,45.59362135427337L203.61329634421605,45.032409632554256z" style="fill:rgb(255,187,187); fill-opacity: 0.4"></path><path d="M72.45595412781022,-54.817609047727785L72.45595412781022,86.92663717338101M72.45595412781022,86.92663717338101L102.56905721930738,95.19310908280674M106.26410006010471,-130.47873979406816L115.87577797215722,-71.71633440377185M106.26410006010471,-129.70418107154845L115.87577797215722,-71.71633440377185M105.82372085457017,-129.3420645856066L115.87577797215722,-71.71633440377185M105.82372085457017,-130.11662330812632L115.87577797215722,-71.71633440377185" style="fill:none;stroke:rgb(0,0,0);stroke-width:1;stroke-linecap:round"></path><path d="M19.2042656183846,-96.11295069545505L180.38305484403352,-228.6475845501656L150.26995175253634,-236.91405645959134z" style="fill:rgb(238,238,238); fill-opacity: 0.33"></path><path d="M106.2641009744115,-129.7041777017433L76.15099788291434,-137.97064961116902M76.15099788291434,-138.74520833368874L76.15099788291434,-137.97064961116902M76.15099788291434,-137.97064961116902L75.71061867737977,-137.6085331252272M-10.908837473112584,-104.37942260488077L-10.908837473112584,179.1090698373368M-10.908837473112584,179.1090698373368L19.204265618384586,187.37554174676256M0.13249191103802566,-116.52858889914629L-7.82219854384281,-118.71226372646811M-7.82219854384281,-119.8741018102477L-7.82219854384281,-118.71226372646811M-7.82219854384281,-118.71226372646811L-8.48276735214465,-118.16908899755535M106.2641009744115,-130.47873642426302L76.15099788291434,-138.74520833368874M76.15099788291434,-138.74520833368874L75.71061867737977,-138.38309184774693" style="fill:none;stroke:rgb(0,0,0);stroke-width:1;stroke-linecap:round"></path><path d="M76.15099788291434,-138.74520833368877L76.15099788291434,-137.97064961116902L75.71061867737977,-138.38309184774693zM76.15099788291434,-137.97064961116902L75.71061867737977,-137.6085331252272L75.71061867737977,-138.38309184774693z" style="fill:rgb(153,221,255); fill-opacity: 0.4"></path><path d="M75.71061867737977,-138.38309184774693L75.71061867737977,-137.6085331252272M75.71061867737977,-137.6085331252272L105.82372176887694,-129.34206121580146M0.13249191103802566,-117.69042698292586L-7.82219854384281,-119.8741018102477M-7.82219854384281,-119.8741018102477L-8.48276735214465,-119.33092708133493" style="fill:none;stroke:rgb(0,0,0);stroke-width:1;stroke-linecap:round"></path><path d="M-7.822198543842829,-119.8741018102477L-7.822198543842829,-118.71226372646811L-8.482767352144661,-119.33092708133493zM-7.822198543842829,-118.71226372646811L-8.482767352144661,-118.16908899755535L-8.482767352144661,-119.33092708133493z" style="fill:rgb(153,221,255); fill-opacity: 0.4"></path><path d="M-8.48276735214465,-119.33092708133493L-8.48276735214465,-118.16908899755535M-8.48276735214465,-118.16908899755535L-0.5280768972638138,-115.98541417023353M75.71061867737977,-138.38309184774693L105.82372176887694,-130.11661993832118M280.39177945294233,-74.80844332204198L240.24097533094613,-85.83040586794296M240.24097533094613,-85.83040586794296L167.57840641774374,-26.081185687540636" style="fill:none;stroke:rgb(0,0,0);stroke-width:1;stroke-linecap:round"></path><path d="M0.13249191103800448,-116.52858889914629L-7.822198543842829,-118.71226372646811L-7.822198543842829,-119.8741018102477z" style="fill:rgb(153,221,255); fill-opacity: 0.4"></path><path d="M-8.48276735214465,-119.33092708133493L-0.5280768972638138,-117.14725225401311" style="fill:none;stroke:rgb(0,0,0);stroke-width:1;stroke-linecap:round"></path><path d="M-8.482767352144661,-118.16908899755535L-7.822198543842829,-118.71226372646811L0.13249191103800448,-116.52858889914629zM-8.482767352144661,-119.33092708133493L-0.5280768972638279,-117.14725225401311L-7.822198543842829,-119.8741018102477zM-8.482767352144661,-119.33092708133493L-8.482767352144661,-118.16908899755535L-0.5280768972638279,-117.14725225401311zM0.13249191103800448,-117.69042698292586L0.13249191103800448,-116.52858889914629L-7.822198543842829,-119.8741018102477zM-0.5280768972638279,-115.98541417023353L-8.482767352144661,-118.16908899755535L0.13249191103800448,-116.52858889914629zM-0.5280768972638279,-117.14725225401311L0.13249191103800448,-117.69042698292586L-7.822198543842829,-119.8741018102477z" style="fill:rgb(153,221,255); fill-opacity: 0.4"></path><path d="M102.56905721930738,-46.55113713830205L183.15845183213185,-112.81845406565735L153.04534874063467,-121.08492597508308z" style="fill:rgb(238,238,238); fill-opacity: 0.33"></path><path d="M-8.482767352144661,-118.16908899755535L-0.5280768972638279,-115.98541417023353L-0.5280768972638279,-117.14725225401311z" style="fill:rgb(153,221,255); fill-opacity: 0.4"></path><path d="M0.13248769336977465,-117.69042990399409L0.13248769336977465,-116.5285918202145M0.13248769336977465,-116.5285918202145L-0.5280811149320901,-115.98541709130177M0.13248769336977465,-116.5285918202145L13.054038436770924,-112.12583961396948M0.13249191103802566,-117.69042698292586L0.13249191103802566,-116.52858889914629M0.13249191103802566,-116.52858889914629L-0.5280768972638138,-115.98541417023353" style="fill:none;stroke:rgb(0,0,0);stroke-width:1;stroke-linecap:round"></path><path d="M0.13249174837351477,-117.69042702757956L0.13249174837351477,-116.52858894379999L-0.5280770599283177,-115.98541421488723z" style="fill:rgb(255,187,187); fill-opacity: 0.4"></path><path d="M-0.5280768972638279,-115.98541417023353L0.13249191103800448,-116.52858889914629L0.13249191103800448,-117.69042698292586z" style="fill:rgb(153,221,255); fill-opacity: 0.4"></path><path d="M0.13248769336977465,-117.69042990399409L-0.5280811149320901,-117.14725517508136M0.13248769336977465,-117.69042990399409L13.054038436770924,-112.12583961396948M0.13249191103802566,-117.69042698292586L-0.5280768972638138,-117.14725225401311M315.00364848135223,50.250011596388106L274.852844359356,39.228049050487144M274.852844359356,-23.511207473610202L274.852844359356,39.228049050487144M274.852844359356,39.228049050487144L239.1821287110567,68.55948441177553" style="fill:none;stroke:rgb(0,0,0);stroke-width:1;stroke-linecap:round"></path><path d="M194.79430477563693,31.24534227008191L116.84718539601984,95.3399602817862L116.84718539601984,-41.756933604204285z" style="fill:rgb(238,238,238); fill-opacity: 0.33"></path><path d="M-0.5280811149320901,-115.98541709130177L-0.5280811149320901,-117.14725517508136M-0.5280811149320901,-115.98541709130177L13.054038436770924,-112.12583961396948M-0.5280768972638138,-117.14725225401311L-0.5280768972638138,-115.98541417023353" style="fill:none;stroke:rgb(0,0,0);stroke-width:1;stroke-linecap:round"></path><path d="M0.13249174837351477,-117.69042702757956L-0.5280770599283177,-115.98541421488723L-0.5280770599283177,-117.14725229866681z" style="fill:rgb(255,187,187); fill-opacity: 0.4"></path><path d="M-0.5280768972638279,-117.14725225401311L-0.5280768972638279,-115.98541417023353L0.13249191103800448,-117.69042698292586zM106.2641009744115,-129.7041777017433L76.15099788291434,-137.97064961116902L76.15099788291434,-138.74520833368877zM75.71061867737977,-137.6085331252272L76.15099788291434,-137.97064961116902L106.2641009744115,-129.7041777017433z" style="fill:rgb(153,221,255); fill-opacity: 0.4"></path><path d="M-0.5280811149320901,-117.14725517508136L13.054038436770924,-112.12583961396948" style="fill:none;stroke:rgb(0,0,0);stroke-width:1;stroke-linecap:round"></path><path d="M75.71061867737977,-138.38309184774693L105.82372176887694,-130.1166199383212L76.15099788291434,-138.74520833368877zM75.71061867737977,-138.38309184774693L75.71061867737977,-137.6085331252272L105.82372176887694,-130.1166199383212z" style="fill:rgb(153,221,255); fill-opacity: 0.4"></path><path d="M0.13249174837351477,-116.52858894379999L0.13249174837351477,-117.69042702757956L13.054043094132343,-112.12584160163347zM-0.5280770599283177,-115.98541421488723L0.13249174837351477,-116.52858894379999L13.054043094132343,-112.12584160163347zM0.13249174837351477,-117.69042702757956L-0.5280770599283177,-117.14725229866681L13.054043094132343,-112.12584160163347zM-0.5280770599283177,-117.14725229866681L-0.5280770599283177,-115.98541421488723L13.054043094132343,-112.12584160163347zM106.26410147818925,-129.7041775634492L106.26410147818925,-130.47873628596895L115.87577650066227,-71.71633324831049zM105.82372227265468,-129.34206107750737L106.26410147818925,-129.7041775634492L115.87577650066227,-71.71633324831049zM106.26410147818925,-130.47873628596895L105.82372227265468,-130.1166198000271L115.87577650066227,-71.71633324831049z" style="fill:rgb(255,187,187); fill-opacity: 0.4"></path><path d="M106.2641009744115,-130.47873642426305L106.2641009744115,-129.7041777017433L76.15099788291434,-138.74520833368877z" style="fill:rgb(153,221,255); fill-opacity: 0.4"></path><path d="M105.82372227265468,-130.1166198000271L105.82372227265468,-129.34206107750737L115.87577650066227,-71.71633324831049z" style="fill:rgb(255,187,187); fill-opacity: 0.4"></path><path d="M105.82372176887694,-129.34206121580146L75.71061867737977,-137.6085331252272L106.2641009744115,-129.7041777017433zM105.82372176887694,-130.1166199383212L106.2641009744115,-130.47873642426305L76.15099788291434,-138.74520833368877zM75.71061867737977,-137.6085331252272L105.82372176887694,-129.34206121580146L105.82372176887694,-130.1166199383212z" style="fill:rgb(153,221,255); fill-opacity: 0.4"></path><path d="M207.72921053973997,112.74296607411416L280.3917794529424,52.99374589371187L280.3917794529424,-74.80844332204198z" style="fill:rgb(238,238,238); fill-opacity: 0.33"></path><path d="M102.56905721930738,-46.55113713830206L102.56905721930738,95.19310908280674" style="fill:none;stroke:rgb(0,0,0);stroke-width:1;stroke-linecap:round"></path><path d="M240.24097533094613,-85.83040586794296L240.24097533094613,41.9717833478109L167.57840641774374,-26.081185687540636z" style="fill:rgb(238,238,238); fill-opacity: 0.33"></path><path d="M106.2641009744115,-130.47873642426302L106.2641009744115,-129.7041777017433M106.2641009744115,-129.7041777017433L105.82372176887694,-129.34206121580146M106.26410006010471,-130.47873979406816L106.26410006010471,-129.70418107154845M106.26410006010471,-129.70418107154845L105.82372085457017,-129.3420645856066M19.204265618384586,-96.11295069545505L19.204265618384586,187.37554174676256" style="fill:none;stroke:rgb(0,0,0);stroke-width:1;stroke-linecap:round"></path><path d="M105.82372176887694,-129.34206121580146L106.2641009744115,-129.7041777017433L106.2641009744115,-130.47873642426305z" style="fill:rgb(153,221,255); fill-opacity: 0.4"></path><path d="M106.26410147818925,-130.47873628596895L106.26410147818925,-129.7041775634492L105.82372227265468,-129.34206107750737z" style="fill:rgb(255,187,187); fill-opacity: 0.4"></path><path d="M106.2641009744115,-130.47873642426302L105.82372176887694,-130.11661993832118M106.26410006010471,-130.47873979406816L105.82372085457017,-130.11662330812632" style="fill:none;stroke:rgb(0,0,0);stroke-width:1;stroke-linecap:round"></path><path d="M-26.508103098502794,-110.41095280261418L-26.508103098502794,182.3722443098401L139.9552365935608,-247.29098448862675z" style="fill:rgb(238,238,238); fill-opacity: 0.33"></path><path d="M105.82372176887694,-130.11661993832118L105.82372176887694,-129.34206121580146M105.82372085457017,-129.3420645856066L105.82372085457017,-130.11662330812632" style="fill:none;stroke:rgb(0,0,0);stroke-width:1;stroke-linecap:round"></path><path d="M105.82372176887694,-130.1166199383212L105.82372176887694,-129.34206121580146L106.2641009744115,-130.47873642426305z" style="fill:rgb(153,221,255); fill-opacity: 0.4"></path><path d="M106.26410147818925,-130.47873628596895L105.82372227265468,-129.34206107750737L105.82372227265468,-130.1166198000271z" style="fill:rgb(255,187,187); fill-opacity: 0.4"></path><path d="M207.72921053973997,112.74296607411416L167.57840641774374,101.72100352821319L280.3917794529424,52.99374589371187z" style="fill:rgb(238,238,238); fill-opacity: 0.33"></path><path d="M116.84718539601984,-41.756933604204285L116.84718539601984,95.3399602817862M116.84718539601984,95.3399602817862L151.9791404565017,104.98417790852038M280.39177945294233,-74.80844332204198L207.72921053973997,-15.059223141639666M246.18920402612537,11.395070592503355L206.03839990412916,0.3731080466023831M206.03839990412916,-0.4014506759173372L206.03839990412916,0.3731080466023831M206.03839990412916,0.3731080466023831L205.59802069859458,0.7352245325442153M246.18920402612537,10.620511869983634L206.03839990412916,-0.4014506759173372M206.03839990412916,-0.4014506759173372L205.59802069859458,-0.03933418997550504" style="fill:none;stroke:rgb(0,0,0);stroke-width:1;stroke-linecap:round"></path><path d="M206.0383999041291,-0.4014506759173382L206.0383999041291,0.3731080466023821L205.59802069859455,-0.039334189975506056zM206.0383999041291,0.3731080466023821L205.59802069859455,0.7352245325442143L205.59802069859455,-0.039334189975506056z" style="fill:rgb(153,221,255); fill-opacity: 0.4"></path><path d="M205.59802069859458,-0.03933418997550504L205.59802069859458,0.7352245325442153M205.59802069859458,0.7352245325442153L245.7488248205908,11.757187078445188M205.59802069859458,-0.03933418997550504L245.7488248205908,10.982628355925465" style="fill:none;stroke:rgb(0,0,0);stroke-width:1;stroke-linecap:round"></path><path d="M315.00364848135223,50.25001159638811L274.8528443593561,39.22804905048714L274.8528443593561,-23.5112074736102zM102.56905721930738,-46.55113713830205L102.56905721930738,95.19310908280673L183.15845183213185,-112.81845406565735z" style="fill:rgb(238,238,238); fill-opacity: 0.33"></path><path d="M315.00364848135223,-12.489244927709224L315.00364848135223,50.250011596388106M315.00364848135223,50.250011596388106L279.33293283305295,79.5814469576765" style="fill:none;stroke:rgb(0,0,0);stroke-width:1;stroke-linecap:round"></path><path d="M151.9791404565017,-32.11271597747011L229.9262598361188,-96.20733398917443L194.79430477563693,-105.85155161590859zM-73.83517492571072,173.15299152232572L-65.88048447082984,175.33666634964754L-65.88048447082984,-122.09388309792504z" style="fill:rgb(238,238,238); fill-opacity: 0.33"></path><path d="M246.18920402612537,11.395070592503355L206.0383999041291,0.3731080466023821L206.0383999041291,-0.4014506759173382zM205.59802069859455,0.7352245325442143L206.0383999041291,0.3731080466023821L246.18920402612537,11.395070592503355z" style="fill:rgb(153,221,255); fill-opacity: 0.4"></path><path d="M240.24097533094613,41.9717833478109L167.57840641774374,101.72100352821319L167.57840641774374,-26.081185687540636z" style="fill:rgb(238,238,238); fill-opacity: 0.33"></path><path d="M205.59802069859455,-0.039334189975506056L245.7488248205908,10.982628355925465L206.0383999041291,-0.4014506759173382zM205.59802069859455,-0.039334189975506056L205.59802069859455,0.7352245325442143L245.7488248205908,10.982628355925465z" style="fill:rgb(153,221,255); fill-opacity: 0.4"></path><path d="M239.18212871105672,68.55948441177554L274.8528443593561,39.22804905048714L315.00364848135223,50.25001159638811zM72.45595412781022,86.926637173381L102.56905721930738,95.19310908280673L102.56905721930738,-46.55113713830205zM19.2042656183846,-96.11295069545505L19.2042656183846,187.37554174676256L180.38305484403352,-228.6475845501656z" style="fill:rgb(238,238,238); fill-opacity: 0.33"></path><path d="M246.18920402612537,10.620511869983634L246.18920402612537,11.395070592503355L206.0383999041291,-0.4014506759173382zM245.7488248205908,11.757187078445188L205.59802069859455,0.7352245325442143L246.18920402612537,11.395070592503355zM245.7488248205908,10.982628355925465L246.18920402612537,10.620511869983634L206.0383999041291,-0.4014506759173382zM205.59802069859455,0.7352245325442143L245.7488248205908,11.757187078445188L245.7488248205908,10.982628355925465z" style="fill:rgb(153,221,255); fill-opacity: 0.4"></path><path d="M151.9791404565017,-32.11271597747011L151.9791404565017,104.98417790852038M370.4880202350864,63.73194335669038L325.3183641441055,51.33223509348096M325.3183641441055,-2.112316760379734L325.3183641441055,51.33223509348096M325.3183641441055,51.33223509348096L294.93219896222087,76.3182726234674M315.00364848135223,-12.489244927709224L274.852844359356,-23.511207473610202M274.852844359356,-23.511207473610202L239.1821287110567,5.820227887678204" style="fill:none;stroke:rgb(0,0,0);stroke-width:1;stroke-linecap:round"></path><path d="M72.45595412781022,-54.81760904772778L102.56905721930738,-46.55113713830205L153.04534874063467,-121.08492597508308zM315.00364848135223,-12.489244927709228L315.00364848135223,50.25001159638811L274.8528443593561,-23.5112074736102z" style="fill:rgb(238,238,238); fill-opacity: 0.33"></path><path d="M246.18920402612537,10.620511869983634L246.18920402612537,11.395070592503355M246.18920402612537,11.395070592503355L245.7488248205908,11.757187078445188M246.18920708901413,10.62051285018977L246.18920708901413,11.395071203371112M246.18920708901413,11.395071203371112L245.748827778485,11.75718777564824M246.18920708901413,11.395071203371112L257.9543976667007,18.705645852079893" style="fill:none;stroke:rgb(0,0,0);stroke-width:1;stroke-linecap:round"></path><path d="M245.7488248205908,11.757187078445188L246.18920402612537,11.395070592503355L246.18920402612537,10.620511869983634z" style="fill:rgb(153,221,255); fill-opacity: 0.4"></path><path d="M246.18920469782904,10.620512054375777L246.18920469782904,11.395070776895498L245.7488254922945,11.75718726283733z" style="fill:rgb(255,187,187); fill-opacity: 0.4"></path><path d="M246.18920402612537,10.620511869983634L245.7488248205908,10.982628355925465M246.18920708901413,10.62051285018977L245.748827778485,10.9826294224669M246.18920708901413,10.62051285018977L257.9543976667007,18.705645852079893M167.57840641774374,-26.081185687540636L167.57840641774374,101.72100352821319M167.57840641774374,101.72100352821319L207.72921053973997,112.74296607411416M245.7488248205908,10.982628355925465L245.7488248205908,11.757187078445188M245.748827778485,11.75718777564824L245.748827778485,10.9826294224669M245.748827778485,11.75718777564824L257.9543976667007,18.705645852079893" style="fill:none;stroke:rgb(0,0,0);stroke-width:1;stroke-linecap:round"></path><path d="M245.7488248205908,10.982628355925465L245.7488248205908,11.757187078445188L246.18920402612537,10.620511869983634z" style="fill:rgb(153,221,255); fill-opacity: 0.4"></path><path d="M246.18920469782904,10.620512054375777L245.7488254922945,11.75718726283733L245.7488254922945,10.982628540317608z" style="fill:rgb(255,187,187); fill-opacity: 0.4"></path><path d="M-51.602357128485586,175.48351731958118L-26.508103098502794,182.3722443098401L-26.508103098502794,-110.41095280261418z" style="fill:rgb(238,238,238); fill-opacity: 0.33"></path><path d="M245.748827778485,10.9826294224669L257.9543976667007,18.705645852079893" style="fill:none;stroke:rgb(0,0,0);stroke-width:1;stroke-linecap:round"></path><path d="M246.18920469782904,11.395070776895498L246.18920469782904,10.620512054375777L257.95439540040195,18.705645169250793zM245.7488254922945,11.75718726283733L246.18920469782904,11.395070776895498L257.95439540040195,18.705645169250793zM246.18920469782904,10.620512054375777L245.7488254922945,10.982628540317608L257.95439540040195,18.705645169250793zM245.7488254922945,10.982628540317608L245.7488254922945,11.75718726283733L257.95439540040195,18.705645169250793z" style="fill:rgb(255,187,187); fill-opacity: 0.4"></path><path d="M274.8528443593561,-23.5112074736102L274.8528443593561,39.22804905048714L239.18212871105672,5.820227887678203zM151.9791404565017,-32.11271597747011L151.9791404565017,104.98417790852037L229.9262598361188,-96.20733398917443zM-73.83517492571072,-124.27755792524688L-65.88048447082984,-122.09388309792504L95.27043999956027,-263.3302885269104zM207.72921053973997,-15.059223141639666L280.3917794529424,-74.80844332204198L240.24097533094613,-85.83040586794296zM274.8528443593561,39.22804905048714L239.18212871105672,68.55948441177554L239.18212871105672,5.820227887678203zM279.33293283305295,79.5814469576765L315.00364848135223,50.25001159638811L315.00364848135223,-12.489244927709228zM279.33293283305295,79.5814469576765L239.18212871105672,68.55948441177554L315.00364848135223,50.25001159638811zM72.45595412781022,-54.81760904772778L72.45595412781022,86.926637173381L102.56905721930738,-46.55113713830205zM370.4880202350864,63.73194335669037L325.31836414410554,51.33223509348096L325.31836414410554,-2.1123167603797355zM116.84718539601984,95.3399602817862L151.9791404565017,104.98417790852037L151.9791404565017,-32.11271597747011z" style="fill:rgb(238,238,238); fill-opacity: 0.33"></path><path d="M315.00364848135223,-12.489244927709224L279.33293283305295,16.842190433579173M239.1821287110567,5.820227887678204L239.1821287110567,68.55948441177553M239.1821287110567,68.55948441177553L279.33293283305295,79.5814469576765" style="fill:none;stroke:rgb(0,0,0);stroke-width:1;stroke-linecap:round"></path><path d="M-51.602357128485586,-117.2996797928731L-26.508103098502794,-110.41095280261418L114.86098256357803,-254.17971147888568zM116.84718539601984,-41.756933604204285L151.9791404565017,-32.11271597747011L194.79430477563693,-105.85155161590859zM-10.908837473112568,179.10906983733685L19.2042656183846,187.37554174676256L19.2042656183846,-96.11295069545505z" style="fill:rgb(238,238,238); fill-opacity: 0.33"></path><path d="M370.4880202350864,10.287391502829681L370.4880202350864,63.73194335669038M370.4880202350864,63.73194335669038L340.1018550532018,88.71798088667678" style="fill:none;stroke:rgb(0,0,0);stroke-width:1;stroke-linecap:round"></path><path d="M294.9321989622209,76.31827262346738L325.31836414410554,51.33223509348096L370.4880202350864,63.73194335669037z" style="fill:rgb(238,238,238); fill-opacity: 0.33"></path><path d="M207.72921053973997,-15.059223141639666L207.72921053973997,112.74296607411416M289.3682250088198,28.883625657064773L249.2174208868236,17.8616631111638M249.2174208868236,15.925266304864499L249.2174208868236,17.8616631111638M249.2174208868236,17.8616631111638L248.11647287298717,18.766954326018382M370.4880202350864,10.287391502829681L325.3183641441055,-2.112316760379734M325.3183641441055,-2.112316760379734L294.93219896222087,22.873720769606685M289.3682250088198,26.94722885076547L249.2174208868236,15.925266304864499M249.2174208868236,15.925266304864499L248.11647287298717,16.83055751971908" style="fill:none;stroke:rgb(0,0,0);stroke-width:1;stroke-linecap:round"></path><path d="M249.21742088682356,15.925266304864499L249.21742088682356,17.8616631111638L248.11647287298717,16.83055751971908zM249.21742088682356,17.8616631111638L248.11647287298717,18.76695432601838L248.11647287298717,16.83055751971908z" style="fill:rgb(153,221,255); fill-opacity: 0.4"></path><path d="M248.11647287298717,16.83055751971908L248.11647287298717,18.766954326018382M248.11647287298717,18.766954326018382L288.2672769949834,29.78891687191935M248.11647287298717,16.83055751971908L288.2672769949834,27.852520065620052" style="fill:none;stroke:rgb(0,0,0);stroke-width:1;stroke-linecap:round"></path><path d="M279.33293283305295,16.842190433579173L315.00364848135223,-12.489244927709228L274.8528443593561,-23.5112074736102zM207.72921053973997,-15.059223141639666L207.72921053973997,112.74296607411416L280.3917794529424,-74.80844332204198zM370.4880202350864,10.287391502829674L370.4880202350864,63.73194335669037L325.31836414410554,-2.1123167603797355zM325.31836414410554,-2.1123167603797355L325.31836414410554,51.33223509348096L294.9321989622209,22.873720769606685z" style="fill:rgb(238,238,238); fill-opacity: 0.33"></path><path d="M289.3682250088198,28.88362565706477L249.21742088682356,17.8616631111638L249.21742088682356,15.925266304864499zM248.11647287298717,18.76695432601838L249.21742088682356,17.8616631111638L289.3682250088198,28.88362565706477z" style="fill:rgb(153,221,255); fill-opacity: 0.4"></path><path d="M116.84718539601984,-41.756933604204285L116.84718539601984,95.3399602817862L151.9791404565017,-32.11271597747011z" style="fill:rgb(238,238,238); fill-opacity: 0.33"></path><path d="M72.45595412781022,-54.817609047727785L102.56905721930738,-46.55113713830206" style="fill:none;stroke:rgb(0,0,0);stroke-width:1;stroke-linecap:round"></path><path d="M248.11647287298717,16.83055751971908L288.2672769949834,27.85252006562005L249.21742088682356,15.925266304864499zM248.11647287298717,16.83055751971908L248.11647287298717,18.76695432601838L288.2672769949834,27.85252006562005z" style="fill:rgb(153,221,255); fill-opacity: 0.4"></path><path d="M-10.908837473112568,-104.37942260488077L19.2042656183846,-96.11295069545505L150.26995175253634,-236.91405645959134zM325.31836414410554,51.33223509348096L294.9321989622209,76.31827262346738L294.9321989622209,22.873720769606685zM167.57840641774374,101.72100352821319L207.72921053973997,112.74296607411416L207.72921053973997,-15.059223141639666z" style="fill:rgb(238,238,238); fill-opacity: 0.33"></path><path d="M279.33293283305295,16.842190433579173L279.33293283305295,79.5814469576765" style="fill:none;stroke:rgb(0,0,0);stroke-width:1;stroke-linecap:round"></path><path d="M-73.83517492571072,-124.27755792524688L-73.83517492571072,173.15299152232572L-65.88048447082984,-122.09388309792504z" style="fill:rgb(238,238,238); fill-opacity: 0.33"></path><path d="M289.3682250088198,26.94722885076547L289.3682250088198,28.88362565706477L249.21742088682356,15.925266304864499zM288.2672769949834,29.788916871919348L248.11647287298717,18.76695432601838L289.3682250088198,28.88362565706477z" style="fill:rgb(153,221,255); fill-opacity: 0.4"></path><path d="M167.57840641774374,-26.081185687540636L207.72921053973997,-15.059223141639666L240.24097533094613,-85.83040586794296zM239.18212871105672,5.820227887678203L279.33293283305295,16.842190433579173L274.8528443593561,-23.5112074736102z" style="fill:rgb(238,238,238); fill-opacity: 0.33"></path><path d="M288.2672769949834,27.85252006562005L289.3682250088198,26.94722885076547L249.21742088682356,15.925266304864499zM248.11647287298717,18.76695432601838L288.2672769949834,29.788916871919348L288.2672769949834,27.85252006562005z" style="fill:rgb(153,221,255); fill-opacity: 0.4"></path><path d="M279.33293283305295,16.842190433579173L279.33293283305295,79.5814469576765L315.00364848135223,-12.489244927709228zM239.18212871105672,68.55948441177554L279.33293283305295,79.5814469576765L279.33293283305295,16.842190433579173zM340.1018550532018,88.71798088667677L294.9321989622209,76.31827262346738L370.4880202350864,63.73194335669037z" style="fill:rgb(238,238,238); fill-opacity: 0.33"></path><path d="M294.93219896222087,22.873720769606685L294.93219896222087,76.3182726234674M294.93219896222087,76.3182726234674L340.1018550532018,88.71798088667678" style="fill:none;stroke:rgb(0,0,0);stroke-width:1;stroke-linecap:round"></path><path d="M340.1018550532018,88.71798088667677L370.4880202350864,63.73194335669037L370.4880202350864,10.287391502829674z" style="fill:rgb(238,238,238); fill-opacity: 0.33"></path><path d="M289.3682250088198,26.94722885076547L289.3682250088198,28.883625657064773M289.3682250088198,28.883625657064773L288.2672769949834,29.78891687191935M289.3682269560263,26.947228617610143L289.3682269560263,28.883626162586207M289.3682269560263,28.883626162586207L288.26727894218993,29.78891737744079M289.3682269560263,28.883626162586207L303.01185989490983,32.692065243903606" style="fill:none;stroke:rgb(0,0,0);stroke-width:1;stroke-linecap:round"></path><path d="M288.2672769949834,29.788916871919348L289.3682250088198,28.88362565706477L289.3682250088198,26.94722885076547z" style="fill:rgb(153,221,255); fill-opacity: 0.4"></path><path d="M289.3682256805235,26.947229035157612L289.3682256805235,28.88362584145691L288.2672776666871,29.78891705631149z" style="fill:rgb(255,187,187); fill-opacity: 0.4"></path><path d="M289.3682250088198,26.94722885076547L288.2672769949834,27.852520065620052M289.3682269560263,26.947228617610143L288.26727894218993,27.852519832464726M289.3682269560263,26.947228617610143L303.01185989490983,32.692065243903606" style="fill:none;stroke:rgb(0,0,0);stroke-width:1;stroke-linecap:round"></path><path d="M239.18212871105672,5.820227887678203L239.18212871105672,68.55948441177554L279.33293283305295,16.842190433579173z" style="fill:rgb(238,238,238); fill-opacity: 0.33"></path><path d="M288.2672769949834,27.852520065620052L288.2672769949834,29.78891687191935M288.26727894218993,29.78891737744079L288.26727894218993,27.852519832464726M288.26727894218993,29.78891737744079L303.01185989490983,32.692065243903606" style="fill:none;stroke:rgb(0,0,0);stroke-width:1;stroke-linecap:round"></path><path d="M288.2672769949834,27.85252006562005L288.2672769949834,29.788916871919348L289.3682250088198,26.94722885076547z" style="fill:rgb(153,221,255); fill-opacity: 0.4"></path><path d="M289.3682256805235,26.947229035157612L288.2672776666871,29.78891705631149L288.2672776666871,27.85252025001219z" style="fill:rgb(255,187,187); fill-opacity: 0.4"></path><path d="M344.4481618635328,64.57543704783535L299.2785057725519,52.17572878462593M299.2785057725519,51.01389070084636L299.2785057725519,52.17572878462593M299.2785057725519,52.17572878462593L298.6179369642501,52.71890351353869" style="fill:none;stroke:rgb(0,0,0);stroke-width:1;stroke-linecap:round"></path><path d="M289.3682256805235,28.88362584145691L289.3682256805235,26.947229035157612L303.01185885503367,32.69206505201777zM288.2672776666871,29.78891705631149L289.3682256805235,28.88362584145691L303.01185885503367,32.69206505201777z" style="fill:rgb(255,187,187); fill-opacity: 0.4"></path><path d="M344.4481618635328,63.413598964055765L299.2785057725519,51.01389070084636M299.2785057725519,51.01389070084636L298.6179369642501,51.557065429759106" style="fill:none;stroke:rgb(0,0,0);stroke-width:1;stroke-linecap:round"></path><path d="M299.27850577255185,51.01389070084635L299.27850577255185,52.17572878462593L298.61793696425,51.557065429759106z" style="fill:rgb(153,221,255); fill-opacity: 0.4"></path><path d="M288.26727894218993,27.852519832464726L303.01185989490983,32.692065243903606" style="fill:none;stroke:rgb(0,0,0);stroke-width:1;stroke-linecap:round"></path><path d="M299.27850577255185,52.17572878462593L298.61793696425,52.71890351353869L298.61793696425,51.557065429759106z" style="fill:rgb(153,221,255); fill-opacity: 0.4"></path><path d="M298.6179369642501,51.557065429759106L298.6179369642501,52.71890351353869M298.6179369642501,52.71890351353869L343.78759305523096,65.1186117767481" style="fill:none;stroke:rgb(0,0,0);stroke-width:1;stroke-linecap:round"></path><path d="M289.3682256805235,26.947229035157612L288.2672776666871,27.85252025001219L303.01185885503367,32.69206505201777z" style="fill:rgb(255,187,187); fill-opacity: 0.4"></path><path d="M370.4880202350864,10.287391502829681L340.1018550532018,35.273429032816104" style="fill:none;stroke:rgb(0,0,0);stroke-width:1;stroke-linecap:round"></path><path d="M288.2672776666871,27.85252025001219L288.2672776666871,29.78891705631149L303.01185885503367,32.69206505201777z" style="fill:rgb(255,187,187); fill-opacity: 0.4"></path><path d="M298.6179369642501,51.557065429759106L343.78759305523096,63.956773692968525" style="fill:none;stroke:rgb(0,0,0);stroke-width:1;stroke-linecap:round"></path><path d="M-51.602357128485586,-117.2996797928731L-51.602357128485586,175.48351731958118L-26.508103098502794,-110.41095280261418z" style="fill:rgb(238,238,238); fill-opacity: 0.33"></path><path d="M418.7061344545957,70.4085780369711L373.53647836361483,58.00886977376168M373.53647836361483,39.41946043328839L373.53647836361483,58.00886977376168M373.53647836361483,58.00886977376168L362.9673774307854,66.69966543636565M239.1821287110567,5.820227887678204L279.33293283305295,16.842190433579173M116.84718539601984,-41.756933604204285L151.9791404565017,-32.11271597747011" style="fill:none;stroke:rgb(0,0,0);stroke-width:1;stroke-linecap:round"></path><path d="M167.57840641774374,-26.081185687540636L167.57840641774374,101.72100352821319L207.72921053973997,-15.059223141639666z" style="fill:rgb(238,238,238); fill-opacity: 0.33"></path><path d="M344.44816186353273,64.57543704783534L299.27850577255185,52.17572878462593L299.27850577255185,51.01389070084635zM298.61793696425,52.71890351353869L299.27850577255185,52.17572878462593L344.44816186353273,64.57543704783534z" style="fill:rgb(153,221,255); fill-opacity: 0.4"></path><path d="M340.1018550532018,35.2734290328161L370.4880202350864,10.287391502829674L325.31836414410554,-2.1123167603797355z" style="fill:rgb(238,238,238); fill-opacity: 0.33"></path><path d="M298.61793696425,51.557065429759106L343.7875930552309,63.956773692968504L299.27850577255185,51.01389070084635zM298.61793696425,51.557065429759106L298.61793696425,52.71890351353869L343.7875930552309,63.956773692968504z" style="fill:rgb(153,221,255); fill-opacity: 0.4"></path><path d="M418.7061344545957,51.81916869649781L373.53647836361483,39.41946043328839M373.53647836361483,39.41946043328839L362.9673774307854,48.11025609589237" style="fill:none;stroke:rgb(0,0,0);stroke-width:1;stroke-linecap:round"></path><path d="M418.70613445459577,70.4085780369711L373.53647836361483,58.00886977376168L373.53647836361483,39.41946043328839zM373.53647836361483,39.41946043328839L373.53647836361483,58.00886977376168L362.9673774307854,48.11025609589237z" style="fill:rgb(238,238,238); fill-opacity: 0.33"></path><path d="M344.44816186353273,63.413598964055765L344.44816186353273,64.57543704783534L299.27850577255185,51.01389070084635zM343.7875930552309,65.11861177674808L298.61793696425,52.71890351353869L344.44816186353273,64.57543704783534zM343.7875930552309,63.956773692968504L344.44816186353273,63.413598964055765L299.27850577255185,51.01389070084635z" style="fill:rgb(153,221,255); fill-opacity: 0.4"></path><path d="M362.9673774307854,66.69966543636566L373.53647836361483,58.00886977376168L418.70613445459577,70.4085780369711z" style="fill:rgb(238,238,238); fill-opacity: 0.33"></path><path d="M298.61793696425,52.71890351353869L343.7875930552309,65.11861177674808L343.7875930552309,63.956773692968504z" style="fill:rgb(153,221,255); fill-opacity: 0.4"></path><path d="M294.9321989622209,22.873720769606685L340.1018550532018,35.2734290328161L325.31836414410554,-2.1123167603797355zM373.53647836361483,58.00886977376168L362.9673774307854,66.69966543636566L362.9673774307854,48.11025609589237zM-10.908837473112568,-104.37942260488077L-10.908837473112568,179.10906983733685L19.2042656183846,-96.11295069545505z" style="fill:rgb(238,238,238); fill-opacity: 0.33"></path><path d="M340.1018550532018,35.273429032816104L340.1018550532018,88.71798088667678M362.9673774307854,48.11025609589237L362.9673774307854,66.69966543636565M362.9673774307854,66.69966543636565L408.1370335217663,79.09937369957507" style="fill:none;stroke:rgb(0,0,0);stroke-width:1;stroke-linecap:round"></path><path d="M294.9321989622209,76.31827262346738L340.1018550532018,88.71798088667677L340.1018550532018,35.2734290328161z" style="fill:rgb(238,238,238); fill-opacity: 0.33"></path><path d="M344.44816306974195,63.413598825149705L364.364255639345,58.19466545480404M344.44816306974195,64.57543690892929L364.364255639345,58.19466545480404M343.7875942614401,65.11861163784204L364.364255639345,58.19466545480404M343.7875942614401,63.95677355406245L364.364255639345,58.19466545480404" style="fill:none;stroke:rgb(0,0,0);stroke-width:1;stroke-linecap:round"></path><path d="M340.1018550532018,35.2734290328161L340.1018550532018,88.71798088667677L370.4880202350864,10.287391502829674zM294.9321989622209,22.873720769606685L294.9321989622209,76.31827262346738L340.1018550532018,35.2734290328161z" style="fill:rgb(238,238,238); fill-opacity: 0.33"></path><path d="M344.4481618923318,64.5754370557411L344.4481618923318,63.41359897196152L364.36425476065773,58.19466524888605z" style="fill:rgb(255,187,187); fill-opacity: 0.4"></path><path d="M167.57840641774374,-26.081185687540636L207.72921053973997,-15.059223141639666" style="fill:none;stroke:rgb(0,0,0);stroke-width:1;stroke-linecap:round"></path><path d="M343.78759308403,65.11861178465385L344.4481618923318,64.5754370557411L364.36425476065773,58.19466524888605z" style="fill:rgb(255,187,187); fill-opacity: 0.4"></path><path d="M344.4481618635328,63.413598964055765L344.4481618635328,64.57543704783535M344.4481618635328,64.57543704783535L343.78759305523096,65.1186117767481M344.44816306974195,63.413598825149705L344.44816306974195,64.57543690892929M344.44816306974195,64.57543690892929L343.7875942614401,65.11861163784204" style="fill:none;stroke:rgb(0,0,0);stroke-width:1;stroke-linecap:round"></path><path d="M344.4481618923318,63.41359897196152L343.78759308403,63.95677370087427L364.36425476065773,58.19466524888605zM343.78759308403,63.95677370087427L343.78759308403,65.11861178465385L364.36425476065773,58.19466524888605z" style="fill:rgb(255,187,187); fill-opacity: 0.4"></path><path d="M343.7875930552309,65.11861177674808L344.44816186353273,64.57543704783534L344.44816186353273,63.413598964055765z" style="fill:rgb(153,221,255); fill-opacity: 0.4"></path><path d="M344.4481618923318,63.41359897196152L344.4481618923318,64.5754370557411L343.78759308403,65.11861178465385z" style="fill:rgb(255,187,187); fill-opacity: 0.4"></path><path d="M344.4481618635328,63.413598964055765L343.78759305523096,63.956773692968525M344.44816306974195,63.413598825149705L343.7875942614401,63.95677355406245M343.78759305523096,63.956773692968525L343.78759305523096,65.1186117767481M343.7875942614401,65.11861163784204L343.7875942614401,63.95677355406245" style="fill:none;stroke:rgb(0,0,0);stroke-width:1;stroke-linecap:round"></path><path d="M343.7875930552309,63.956773692968504L343.7875930552309,65.11861177674808L344.44816186353273,63.413598964055765z" style="fill:rgb(153,221,255); fill-opacity: 0.4"></path><path d="M344.4481618923318,63.41359897196152L343.78759308403,65.11861178465385L343.78759308403,63.95677370087427z" style="fill:rgb(255,187,187); fill-opacity: 0.4"></path><path d="M294.93219896222087,22.873720769606685L340.1018550532018,35.273429032816104" style="fill:none;stroke:rgb(0,0,0);stroke-width:1;stroke-linecap:round"></path><path d="M418.70613445459577,51.81916869649781L418.70613445459577,70.4085780369711L373.53647836361483,39.41946043328839z" style="fill:rgb(238,238,238); fill-opacity: 0.33"></path><path d="M418.7061344545957,51.81916869649781L418.7061344545957,70.4085780369711M418.7061344545957,70.4085780369711L408.1370335217663,79.09937369957507" style="fill:none;stroke:rgb(0,0,0);stroke-width:1;stroke-linecap:round"></path><path d="M408.13703352176634,79.09937369957505L362.9673774307854,66.69966543636566L418.70613445459577,70.4085780369711z" style="fill:rgb(238,238,238); fill-opacity: 0.33"></path><path d="M362.9673774307854,48.11025609589237L408.1370335217663,60.50996435910178" style="fill:none;stroke:rgb(0,0,0);stroke-width:1;stroke-linecap:round"></path><path d="M362.9673774307854,48.11025609589237L408.13703352176634,60.50996435910178L373.53647836361483,39.41946043328839z" style="fill:rgb(238,238,238); fill-opacity: 0.33"></path><path d="M434.5592948736958,92.7646073996561L429.986239510593,91.50923914403413M429.986239510593,45.60572605634584L429.986239510593,91.50923914403413M429.986239510593,91.50923914403413L427.3439642773857,93.68193805968512" style="fill:none;stroke:rgb(0,0,0);stroke-width:1;stroke-linecap:round"></path><path d="M362.9673774307854,48.11025609589237L362.9673774307854,66.69966543636566L408.13703352176634,60.50996435910178zM408.13703352176634,60.50996435910178L418.70613445459577,51.81916869649781L373.53647836361483,39.41946043328839zM427.3439642773856,93.68193805968511L429.98623951059295,91.5092391440341L434.5592948736958,92.76460739965609zM408.13703352176634,79.09937369957505L418.70613445459577,70.4085780369711L418.70613445459577,51.81916869649781z" style="fill:rgb(238,238,238); fill-opacity: 0.33"></path><path d="M434.5592948736958,46.86109431196782L434.5592948736958,92.7646073996561M434.5592948736958,92.7646073996561L431.9170196404885,94.9373063153071M418.7061344545957,51.81916869649781L408.1370335217663,60.50996435910178M427.3439642773857,47.77842497199683L427.3439642773857,93.68193805968512M427.3439642773857,93.68193805968512L431.9170196404885,94.9373063153071" style="fill:none;stroke:rgb(0,0,0);stroke-width:1;stroke-linecap:round"></path><path d="M431.9170196404885,94.93730631530708L427.3439642773856,93.68193805968511L434.5592948736958,92.76460739965609zM362.9673774307854,66.69966543636566L408.13703352176634,79.09937369957505L408.13703352176634,60.50996435910178z" style="fill:rgb(238,238,238); fill-opacity: 0.33"></path><path d="M431.9170196404885,49.033793227618816L431.9170196404885,94.9373063153071M416.08919964545674,66.19156935505501L423.96501721524487,68.35359246195954" style="fill:none;stroke:rgb(0,0,0);stroke-width:1;stroke-linecap:round"></path><path d="M434.5592948736958,92.76460739965609L429.98623951059295,91.5092391440341L429.98623951059295,45.60572605634582z" style="fill:rgb(238,238,238); fill-opacity: 0.33"></path><path d="M408.1370335217663,60.50996435910178L408.1370335217663,79.09937369957507M452.08934043225645,95.02665655140056L447.5162850691537,93.77128829577859M447.5162850691537,52.9681668643699L447.5162850691537,93.77128829577859M447.5162850691537,93.77128829577859L444.87400983594637,95.94398721142957" style="fill:none;stroke:rgb(0,0,0);stroke-width:1;stroke-linecap:round"></path><path d="M429.98623951059295,91.5092391440341L427.3439642773856,93.68193805968511L427.3439642773856,47.77842497199683z" style="fill:rgb(238,238,238); fill-opacity: 0.33"></path><path d="M-73.8351749257107,-124.27755792524685L-65.88048447082987,-122.09388309792504" style="fill:none;stroke:rgb(0,0,0);stroke-width:1;stroke-linecap:round"></path><path d="M408.13703352176634,60.50996435910178L408.13703352176634,79.09937369957505L418.70613445459577,51.81916869649781zM431.9170196404885,94.93730631530708L434.5592948736958,92.76460739965609L434.5592948736958,46.861094311967804zM444.87400983594637,95.94398721142957L447.5162850691537,93.77128829577859L452.08934043225645,95.02665655140055z" style="fill:rgb(238,238,238); fill-opacity: 0.33"></path><path d="M452.08934043225645,54.223535119991894L452.08934043225645,95.02665655140056M452.08934043225645,95.02665655140056L449.4470651990491,97.19935546705157" style="fill:none;stroke:rgb(0,0,0);stroke-width:1;stroke-linecap:round"></path><path d="M423.4414853108584,69.08327379565765L423.9650172152448,69.32179086510918L428.2840139470641,69.53921803671363zM424.28857771371025,67.30424508313642L423.6414567167794,67.83636190073996L428.2840139470641,69.53921803671363zM423.6414567167794,67.83636190073996L423.4414853108584,69.08327379565765L428.2840139470641,69.53921803671363z" style="fill:rgb(0,0,0)"></path><path d="M427.3439642773856,93.68193805968511L431.9170196404885,94.93730631530708L431.9170196404885,49.0337932276188z" style="fill:rgb(238,238,238); fill-opacity: 0.33"></path><path d="M444.87400983594637,55.1408657800209L444.87400983594637,95.94398721142957M444.87400983594637,95.94398721142957L449.4470651990491,97.19935546705157" style="fill:none;stroke:rgb(0,0,0);stroke-width:1;stroke-linecap:round"></path><path d="M449.4470651990491,97.19935546705155L444.87400983594637,95.94398721142957L452.08934043225645,95.02665655140055z" style="fill:rgb(238,238,238); fill-opacity: 0.33"></path><path d="M449.4470651990491,56.39623403564288L449.4470651990491,97.19935546705157M433.6192452040174,71.00381433493929L441.4950627738055,73.16583744184382" style="fill:none;stroke:rgb(0,0,0);stroke-width:1;stroke-linecap:round"></path><path d="M429.98623951059295,45.60572605634582L429.98623951059295,91.5092391440341L427.3439642773856,47.77842497199683zM434.5592948736958,46.861094311967804L434.5592948736958,92.76460739965609L429.98623951059295,45.60572605634582z" style="fill:rgb(238,238,238); fill-opacity: 0.33"></path><path d="M-51.602357128485565,-117.2996797928731L-26.50810309850278,-110.41095280261418" style="fill:none;stroke:rgb(0,0,0);stroke-width:1;stroke-linecap:round"></path><path d="M452.08934043225645,95.02665655140055L447.5162850691537,93.77128829577859L447.5162850691537,52.968166864369906zM447.5162850691537,93.77128829577859L444.87400983594637,95.94398721142957L444.87400983594637,55.1408657800209z" style="fill:rgb(238,238,238); fill-opacity: 0.33"></path><path d="M469.61938599081714,97.28870718049856L465.0463306277144,96.03333892487657M465.0463306277144,60.33060619504046L465.0463306277144,96.03333892487657M465.0463306277144,96.03333892487657L462.40405539450705,98.20603784052757" style="fill:none;stroke:rgb(0,0,0);stroke-width:1;stroke-linecap:round"></path><path d="M449.4470651990491,97.19935546705155L452.08934043225645,95.02665655140055L452.08934043225645,54.22353511999189zM427.3439642773856,47.77842497199683L427.3439642773856,93.68193805968511L431.9170196404885,49.0337932276188zM431.9170196404885,49.0337932276188L431.9170196404885,94.93730631530708L434.5592948736958,46.861094311967804z" style="fill:rgb(238,238,238); fill-opacity: 0.33"></path><path d="M440.97153086941915,73.89551877554192L441.4950627738055,74.13403584499345L445.8140595056248,74.35146301659789zM441.818623272271,72.1164900630207L441.17150227534,72.64860688062423L445.8140595056248,74.35146301659789zM441.17150227534,72.64860688062423L440.97153086941915,73.89551877554192L445.8140595056248,74.35146301659789z" style="fill:rgb(0,0,0)"></path><path d="M462.40405539450705,98.20603784052757L465.0463306277144,96.03333892487657L469.61938599081714,97.28870718049855z" style="fill:rgb(238,238,238); fill-opacity: 0.33"></path><path d="M469.61938599081714,61.58597445066245L469.61938599081714,97.28870718049856M469.61938599081714,97.28870718049856L466.9771107576098,99.46140609614955" style="fill:none;stroke:rgb(0,0,0);stroke-width:1;stroke-linecap:round"></path><path d="M444.87400983594637,95.94398721142957L449.4470651990491,97.19935546705155L449.4470651990491,56.39623403564288z" style="fill:rgb(238,238,238); fill-opacity: 0.33"></path><path d="M462.40405539450705,62.50330511069146L462.40405539450705,98.20603784052757M462.40405539450705,98.20603784052757L466.9771107576098,99.46140609614955M434.5592948736958,46.86109431196782L429.986239510593,45.60572605634584M429.986239510593,45.60572605634584L427.3439642773857,47.77842497199683" style="fill:none;stroke:rgb(0,0,0);stroke-width:1;stroke-linecap:round"></path><path d="M466.9771107576098,99.46140609614955L462.40405539450705,98.20603784052757L469.61938599081714,97.28870718049855z" style="fill:rgb(238,238,238); fill-opacity: 0.33"></path><path d="M451.14929076257806,75.81605931482356L459.0251083323662,77.97808242172808" style="fill:none;stroke:rgb(0,0,0);stroke-width:1;stroke-linecap:round"></path><path d="M447.5162850691537,52.968166864369906L447.5162850691537,93.77128829577859L444.87400983594637,55.1408657800209zM452.08934043225645,54.22353511999189L452.08934043225645,95.02665655140055L447.5162850691537,52.968166864369906z" style="fill:rgb(238,238,238); fill-opacity: 0.33"></path><path d="M466.9771107576098,63.75867336631344L466.9771107576098,99.46140609614955M434.5592948736958,46.86109431196782L431.9170196404885,49.033793227618816" style="fill:none;stroke:rgb(0,0,0);stroke-width:1;stroke-linecap:round"></path><path d="M431.9170196404885,49.0337932276188L434.5592948736958,46.861094311967804L429.98623951059295,45.60572605634582zM469.61938599081714,97.28870718049855L465.0463306277144,96.03333892487657L465.0463306277144,60.33060619504046zM427.3439642773856,47.77842497199683L431.9170196404885,49.0337932276188L429.98623951059295,45.60572605634582z" style="fill:rgb(238,238,238); fill-opacity: 0.33"></path><path d="M427.3439642773857,47.77842497199683L431.9170196404885,49.033793227618816" style="fill:none;stroke:rgb(0,0,0);stroke-width:1;stroke-linecap:round"></path><path d="M465.0463306277144,96.03333892487657L462.40405539450705,98.20603784052757L462.40405539450705,62.503305110691464zM444.87400983594637,55.1408657800209L444.87400983594637,95.94398721142957L449.4470651990491,56.39623403564288zM449.4470651990491,56.39623403564288L449.4470651990491,97.19935546705155L452.08934043225645,54.22353511999189z" style="fill:rgb(238,238,238); fill-opacity: 0.33"></path><path d="M458.5015764279798,78.70776375542619L459.02510833236613,78.94628082487772L463.34410506418544,79.16370799648219z" style="fill:rgb(0,0,0)"></path><path d="M466.9771107576098,99.46140609614955L469.61938599081714,97.28870718049855L469.61938599081714,61.58597445066244z" style="fill:rgb(238,238,238); fill-opacity: 0.33"></path><path d="M459.3486688308316,76.92873504290498L458.70154783390063,77.4608518605085L463.34410506418544,79.16370799648219zM458.70154783390063,77.4608518605085L458.5015764279798,78.70776375542619L463.34410506418544,79.16370799648219z" style="fill:rgb(0,0,0)"></path><path d="M-10.908837473112584,-104.37942260488077L19.204265618384586,-96.11295069545505M452.08934043225645,54.223535119991894L447.5162850691537,52.9681668643699M447.5162850691537,52.9681668643699L444.87400983594637,55.1408657800209" style="fill:none;stroke:rgb(0,0,0);stroke-width:1;stroke-linecap:round"></path><path d="M462.40405539450705,98.20603784052757L466.9771107576098,99.46140609614955L466.9771107576098,63.75867336631344z" style="fill:rgb(238,238,238); fill-opacity: 0.33"></path><path d="M487.14943154937777,93.07181138824156L482.576376186275,91.81644313261957M482.576376186275,74.17199194706603L482.576376186275,91.81644313261957M482.576376186275,91.81644313261957L479.9341009530677,93.98914204827057M452.08934043225645,54.223535119991894L449.4470651990491,56.39623403564288M468.6793363211387,80.62830429470783L476.5551538909268,82.79032740161236" style="fill:none;stroke:rgb(0,0,0);stroke-width:1;stroke-linecap:round"></path><path d="M465.0463306277144,60.33060619504046L465.0463306277144,96.03333892487657L462.40405539450705,62.503305110691464zM469.61938599081714,61.58597445066244L469.61938599081714,97.28870718049855L465.0463306277144,60.33060619504046zM449.4470651990491,56.39623403564288L452.08934043225645,54.22353511999189L447.5162850691537,52.968166864369906zM444.87400983594637,55.1408657800209L449.4470651990491,56.39623403564288L447.5162850691537,52.968166864369906z" style="fill:rgb(238,238,238); fill-opacity: 0.33"></path><path d="M444.87400983594637,55.1408657800209L449.4470651990491,56.39623403564288" style="fill:none;stroke:rgb(0,0,0);stroke-width:1;stroke-linecap:round"></path><path d="M479.9341009530677,93.98914204827055L482.576376186275,91.81644313261957L487.14943154937777,93.07181138824154z" style="fill:rgb(238,238,238); fill-opacity: 0.33"></path><path d="M487.14943154937777,75.427360202688L487.14943154937777,93.07181138824156M487.14943154937777,93.07181138824156L484.50715631617044,95.24451030389254" style="fill:none;stroke:rgb(0,0,0);stroke-width:1;stroke-linecap:round"></path><path d="M462.40405539450705,62.503305110691464L462.40405539450705,98.20603784052757L466.9771107576098,63.75867336631344zM487.14943154937777,93.07181138824154L482.576376186275,91.81644313261957L482.576376186275,74.17199194706603z" style="fill:rgb(238,238,238); fill-opacity: 0.33"></path><path d="M479.9341009530677,76.34469086271702L479.9341009530677,93.98914204827057M479.9341009530677,93.98914204827057L484.50715631617044,95.24451030389254" style="fill:none;stroke:rgb(0,0,0);stroke-width:1;stroke-linecap:round"></path><path d="M466.9771107576098,63.75867336631344L466.9771107576098,99.46140609614955L469.61938599081714,61.58597445066244zM484.50715631617044,95.24451030389253L479.9341009530677,93.98914204827055L487.14943154937777,93.07181138824154z" style="fill:rgb(238,238,238); fill-opacity: 0.33"></path><path d="M476.0316219865405,83.52000873531047L476.5551538909268,83.758525804762L480.87415062274613,83.97595297636647zM476.8787143893923,81.74098002278924L476.2315933924613,82.27309684039278L480.87415062274613,83.97595297636647z" style="fill:rgb(0,0,0)"></path><path d="M469.61938599081714,61.58597445066245L465.0463306277144,60.33060619504046M465.0463306277144,60.33060619504046L462.40405539450705,62.50330511069146" style="fill:none;stroke:rgb(0,0,0);stroke-width:1;stroke-linecap:round"></path><path d="M476.2315933924613,82.27309684039278L476.0316219865405,83.52000873531047L480.87415062274613,83.97595297636647z" style="fill:rgb(0,0,0)"></path><path d="M482.576376186275,91.81644313261957L479.9341009530677,93.98914204827055L479.9341009530677,76.34469086271702z" style="fill:rgb(238,238,238); fill-opacity: 0.33"></path><path d="M484.50715631617044,77.600059118339L484.50715631617044,95.24451030389254" style="fill:none;stroke:rgb(0,0,0);stroke-width:1;stroke-linecap:round"></path><path d="M484.50715631617044,95.24451030389253L487.14943154937777,93.07181138824154L487.14943154937777,75.427360202688zM482.576376186275,74.17199194706603L482.576376186275,91.81644313261957L479.9341009530677,76.34469086271702z" style="fill:rgb(238,238,238); fill-opacity: 0.33"></path><path d="M469.61938599081714,61.58597445066245L466.9771107576098,63.75867336631344" style="fill:none;stroke:rgb(0,0,0);stroke-width:1;stroke-linecap:round"></path><path d="M487.14943154937777,75.427360202688L487.14943154937777,93.07181138824154L482.576376186275,74.17199194706603zM466.9771107576098,63.75867336631344L469.61938599081714,61.58597445066244L465.0463306277144,60.33060619504046zM479.9341009530677,93.98914204827055L484.50715631617044,95.24451030389253L484.50715631617044,77.60005911833899zM462.40405539450705,62.503305110691464L466.9771107576098,63.75867336631344L465.0463306277144,60.33060619504046z" style="fill:rgb(238,238,238); fill-opacity: 0.33"></path><path d="M462.40405539450705,62.50330511069146L466.9771107576098,63.75867336631344M487.14943154937777,75.427360202688L482.576376186275,74.17199194706603M482.576376186275,74.17199194706603L479.9341009530677,76.34469086271702" style="fill:none;stroke:rgb(0,0,0);stroke-width:1;stroke-linecap:round"></path><path d="M479.9341009530677,76.34469086271702L479.9341009530677,93.98914204827055L484.50715631617044,77.60005911833899zM484.50715631617044,77.60005911833899L484.50715631617044,95.24451030389253L487.14943154937777,75.427360202688z" style="fill:rgb(238,238,238); fill-opacity: 0.33"></path><path d="M487.14943154937777,75.427360202688L484.50715631617044,77.600059118339" style="fill:none;stroke:rgb(0,0,0);stroke-width:1;stroke-linecap:round"></path><path d="M484.50715631617044,77.60005911833899L487.14943154937777,75.427360202688L482.576376186275,74.17199194706603zM479.9341009530677,76.34469086271702L484.50715631617044,77.60005911833899L482.576376186275,74.17199194706603z" style="fill:rgb(238,238,238); fill-opacity: 0.33"></path><path d="M479.9341009530677,76.34469086271702L484.50715631617044,77.600059118339" style="fill:none;stroke:rgb(0,0,0);stroke-width:1;stroke-linecap:round"></path></svg>