<svg viewBox="-581.5 -290.5 1163 581" width="1163" height="581" style="background-color: rgb(255, 255, 255);" xmlns="http://www.w3.org/2000/svg"><path d="M167.53592316074284,86.69233135980531L162.27870882588041,84.91033756434629M162.27870882588041,-276.43297113319403L162.27870882588041,84.91033756434629M162.27870882588041,84.91033756434629L-74.4914031248233,248.94566368039062M167.53592316074284,-274.65097733773507L167.53592316074284,86.69233135980531M167.53592316074284,86.69233135980531L-69.23418878996085,250.7276574758496M188.30985334983058,93.21134242794608L175.04212255730823,88.71409113740803M175.04212255730823,-269.40293801818996L175.04212255730823,88.71409113740803M175.04212255730823,88.71409113740803L-59.61397053669279,251.28481612741624M188.30985334983058,-264.9056867276519L188.30985334983058,93.21134242794608M188.30985334983058,93.21134242794608L-46.34623974417044,255.7820674179543" style="fill:none;stroke:rgb(0,0,0);stroke-width:1;stroke-linecap:round"></path><path d="M167.53592316074284,86.6923313598053L162.27870882588044,84.91033756434629L162.27870882588044,-276.43297113319403zM188.30985334983058,93.21134242794608L175.0421225573082,88.71409113740803L175.0421225573082,-269.40293801818996zM-74.4914031248233,248.94566368039062L162.27870882588044,84.91033756434629L167.53592316074284,86.6923313598053zM-59.613970536692804,251.28481612741624L175.0421225573082,88.71409113740803L188.30985334983058,93.21134242794608zM167.53592316074284,-274.650977337735L167.53592316074284,86.6923313598053L162.27870882588044,-276.43297113319403z" style="fill:rgb(238,238,238); fill-opacity: 0.33"></path><path d="M151.47677002323627,51.72461677431914L138.2090392307139,47.2273654837811M138.2090392307139,-131.83114909401792L138.2090392307139,47.2273654837811M138.2090392307139,47.2273654837811L20.880992683713412,128.5127279787852" style="fill:none;stroke:rgb(0,0,0);stroke-width:1;stroke-linecap:round"></path><path d="M188.30985334983058,-264.9056867276519L188.30985334983058,93.21134242794608L175.0421225573082,-269.40293801818996z" style="fill:rgb(238,238,238); fill-opacity: 0.33"></path><path d="M151.47677002323627,-127.33389780347986L151.47677002323627,51.72461677431914M151.47677002323627,51.72461677431914L34.14872347623578,133.00997926932325M175.56763377579523,59.36794095841168L158.98296932437614,53.746376519576295M158.98296932437614,-122.08585851628037L158.98296932437614,53.746376519576295M158.98296932437614,53.746376519576295L43.76894163407837,133.56713788854427" style="fill:none;stroke:rgb(0,0,0);stroke-width:1;stroke-linecap:round"></path><path d="M-69.23418878996085,250.72765747584964L167.53592316074284,86.6923313598053L167.53592316074284,-274.650977337735z" style="fill:rgb(238,238,238); fill-opacity: 0.33"></path><path d="M175.56763377579523,-116.46429407744499L175.56763377579523,59.36794095841168M175.56763377579523,59.36794095841168L60.35360608549746,139.18870232737964" style="fill:none;stroke:rgb(0,0,0);stroke-width:1;stroke-linecap:round"></path><path d="M-46.346239744170425,255.7820674179543L188.30985334983058,93.21134242794608L188.30985334983058,-264.9056867276519zM151.4767700232363,51.724616774319145L138.2090392307139,47.227365483781085L138.2090392307139,-131.83114909401792zM175.56763377579523,59.36794095841169L158.98296932437614,53.7463765195763L158.98296932437614,-122.08585851628037zM20.880992683713426,128.5127279787852L138.2090392307139,47.227365483781085L151.4767700232363,51.724616774319145zM-69.23418878996085,250.72765747584964L-74.4914031248233,248.94566368039062L167.53592316074284,86.6923313598053z" style="fill:rgb(238,238,238); fill-opacity: 0.33"></path><path d="M167.53592316074284,-274.65097733773507L162.27870882588041,-276.43297113319403M162.27870882588041,-276.43297113319403L-74.4914031248233,-112.39764501714976M167.53592316074284,-274.65097733773507L-69.23418878996085,-110.61565122169074M188.30985334983058,-264.9056867276519L175.04212255730823,-269.40293801818996M175.04212255730823,-269.40293801818996L-59.61397053669279,-106.83221302818178" style="fill:none;stroke:rgb(0,0,0);stroke-width:1;stroke-linecap:round"></path><path d="M-46.346239744170425,255.7820674179543L-59.613970536692804,251.28481612741624L188.30985334983058,93.21134242794608zM43.768941634078374,133.56713788854427L158.98296932437614,53.7463765195763L175.56763377579523,59.36794095841169z" style="fill:rgb(238,238,238); fill-opacity: 0.33"></path><path d="M188.30985334983058,-264.9056867276519L-46.34623974417044,-102.33496173764375M62.79877867526295,90.3413830480828L49.531047882740594,85.84413175754476M49.531047882740594,85.30641850055437L49.531047882740594,85.84413175754476M49.531047882740594,85.84413175754476L49.17871140662347,86.08823194521744M62.79877867526295,89.8036697910924L49.531047882740594,85.30641850055437M49.531047882740594,85.30641850055437L49.17871140662347,85.55051868822704" style="fill:none;stroke:rgb(0,0,0);stroke-width:1;stroke-linecap:round"></path><path d="M49.531047882740594,85.30641850055437L49.531047882740594,85.84413175754476L49.17871140662347,85.55051868822704zM49.531047882740594,85.84413175754476L49.17871140662347,86.08823194521744L49.17871140662347,85.55051868822704z" style="fill:rgb(153,221,255); fill-opacity: 0.4"></path><path d="M49.17871140662347,85.55051868822704L49.17871140662347,86.08823194521744M49.17871140662347,86.08823194521744L62.44644219914583,90.58548323575549M49.17871140662347,85.55051868822704L62.44644219914583,90.04776997876509" style="fill:none;stroke:rgb(0,0,0);stroke-width:1;stroke-linecap:round"></path><path d="M151.4767700232363,-127.33389780347989L151.4767700232363,51.724616774319145L138.2090392307139,-131.83114909401792z" style="fill:rgb(238,238,238); fill-opacity: 0.33"></path><path d="M62.79877867526296,90.3413830480828L49.531047882740594,85.84413175754476L49.531047882740594,85.30641850055437zM49.17871140662347,86.08823194521744L49.531047882740594,85.84413175754476L62.79877867526296,90.3413830480828zM49.17871140662347,85.55051868822704L62.44644219914584,90.04776997876509L49.531047882740594,85.30641850055437zM49.17871140662347,85.55051868822704L49.17871140662347,86.08823194521744L62.44644219914584,90.04776997876509zM62.79877867526296,89.8036697910924L62.79877867526296,90.3413830480828L49.531047882740594,85.30641850055437zM62.44644219914584,90.58548323575549L49.17871140662347,86.08823194521744L62.79877867526296,90.3413830480828zM62.44644219914584,90.04776997876509L62.79877867526296,89.8036697910924L49.531047882740594,85.30641850055437zM49.17871140662347,86.08823194521744L62.44644219914584,90.58548323575549L62.44644219914584,90.04776997876509z" style="fill:rgb(153,221,255); fill-opacity: 0.4"></path><path d="M62.79877867526295,89.8036697910924L62.79877867526295,90.3413830480828M62.79877867526295,90.3413830480828L62.44644219914583,90.58548323575549M62.798778410356356,89.80366971618925L62.798778410356356,90.34138297317963M62.798778410356356,90.34138297317963L62.44644193423924,90.5854831608523M62.798778410356356,90.34138297317963L75.36541711818299,45.718982311532365" style="fill:none;stroke:rgb(0,0,0);stroke-width:1;stroke-linecap:round"></path><path d="M62.44644219914584,90.58548323575549L62.79877867526296,90.3413830480828L62.79877867526296,89.8036697910924z" style="fill:rgb(153,221,255); fill-opacity: 0.4"></path><path d="M62.79877889722572,89.80366986632926L62.79877889722572,90.34138312331966L62.44644242110861,90.58548331099233z" style="fill:rgb(255,187,187); fill-opacity: 0.4"></path><path d="M62.79877867526295,89.8036697910924L62.44644219914583,90.04776997876509M62.798778410356356,89.80366971618925L62.44644193423924,90.04776990386193M62.798778410356356,89.80366971618925L75.36541711818299,45.718982311532365M62.44644219914583,90.04776997876509L62.44644219914583,90.58548323575549M62.44644193423924,90.5854831608523L62.44644193423924,90.04776990386193M62.44644193423924,90.5854831608523L75.36541711818299,45.718982311532365" style="fill:none;stroke:rgb(0,0,0);stroke-width:1;stroke-linecap:round"></path><path d="M62.44644219914584,90.04776997876509L62.44644219914584,90.58548323575549L62.79877867526296,89.8036697910924z" style="fill:rgb(153,221,255); fill-opacity: 0.4"></path><path d="M62.79877889722572,89.80366986632926L62.44644242110861,90.58548331099233L62.44644242110861,90.04777005400194z" style="fill:rgb(255,187,187); fill-opacity: 0.4"></path><path d="M62.44644193423924,90.04776990386193L75.36541711818299,45.718982311532365" style="fill:none;stroke:rgb(0,0,0);stroke-width:1;stroke-linecap:round"></path><path d="M162.27870882588044,-276.43297113319403L162.27870882588044,84.91033756434629L-74.4914031248233,-112.39764501714976z" style="fill:rgb(238,238,238); fill-opacity: 0.33"></path><path d="M62.79877889722572,90.34138312331966L62.79877889722572,89.80366986632926L75.36541755243807,45.718982451283175zM62.44644242110861,90.58548331099233L62.79877889722572,90.34138312331966L75.36541755243807,45.718982451283175zM62.79877889722572,89.80366986632926L62.44644242110861,90.04777005400194L75.36541755243807,45.718982451283175zM62.44644242110861,90.04777005400194L62.44644242110861,90.58548331099233L75.36541755243807,45.718982451283175z" style="fill:rgb(255,187,187); fill-opacity: 0.4"></path><path d="M175.56763377579523,-116.46429407744499L175.56763377579523,59.36794095841169L158.98296932437614,-122.08585851628037zM34.14872347623578,133.00997926932322L151.4767700232363,51.724616774319145L151.4767700232363,-127.33389780347989z" style="fill:rgb(238,238,238); fill-opacity: 0.33"></path><path d="M171.64774725215088,43.6690259877247L155.0630828007318,38.0474615488893M155.0630828007318,-49.06208608355346L155.0630828007318,38.0474615488893M155.0630828007318,38.0474615488893L97.98457366975859,77.59169195186428" style="fill:none;stroke:rgb(0,0,0);stroke-width:1;stroke-linecap:round"></path><path d="M175.0421225573082,-269.40293801818996L175.0421225573082,88.71409113740803L-59.613970536692804,-106.83221302818178z" style="fill:rgb(238,238,238); fill-opacity: 0.33"></path><path d="M151.47677002323627,-127.33389780347986L138.2090392307139,-131.83114909401792M138.2090392307139,-131.83114909401792L20.880992683713412,-50.545786599013816M171.64774725215088,-43.44052164471808L171.64774725215088,43.6690259877247M171.64774725215088,43.6690259877247L114.56923812117768,83.21325639069967" style="fill:none;stroke:rgb(0,0,0);stroke-width:1;stroke-linecap:round"></path><path d="M34.14872347623578,133.00997926932322L20.880992683713426,128.5127279787852L151.4767700232363,51.724616774319145zM60.35360608549746,139.18870232737964L175.56763377579523,59.36794095841169L175.56763377579523,-116.46429407744499z" style="fill:rgb(238,238,238); fill-opacity: 0.33"></path><path d="M151.47677002323627,-127.33389780347986L34.14872347623578,-46.04853530847578" style="fill:none;stroke:rgb(0,0,0);stroke-width:1;stroke-linecap:round"></path><path d="M171.64774725215088,43.6690259877247L155.0630828007318,38.0474615488893L155.0630828007318,-49.062086083553474z" style="fill:rgb(238,238,238); fill-opacity: 0.33"></path><path d="M197.99853342470433,51.55582349845424L178.09693723592076,44.80994656264717M178.09693723592076,-35.847041985910934L178.09693723592076,44.80994656264717M178.09693723592076,44.80994656264717L125.24646581835297,81.42497471354991M175.56763377579523,-116.46429407744499L158.98296932437614,-122.08585851628037M158.98296932437614,-122.08585851628037L43.76894163407837,-42.265097147312396" style="fill:none;stroke:rgb(0,0,0);stroke-width:1;stroke-linecap:round"></path><path d="M138.2090392307139,-131.83114909401792L138.2090392307139,47.227365483781085L20.880992683713426,-50.54578659901382zM162.27870882588044,84.91033756434629L-74.4914031248233,248.94566368039062L-74.4914031248233,-112.39764501714976zM60.35360608549746,139.18870232737964L43.768941634078374,133.56713788854427L175.56763377579523,59.36794095841169zM97.98457366975859,77.59169195186426L155.0630828007318,38.0474615488893L171.64774725215088,43.6690259877247z" style="fill:rgb(238,238,238); fill-opacity: 0.33"></path><path d="M175.56763377579523,-116.46429407744499L60.35360608549746,-36.64353270847702M197.99853342470433,-29.10116505010387L197.99853342470433,51.55582349845424M197.99853342470433,51.55582349845424L145.14806200713653,88.17085164935698M108.6493689538597,-47.55213532520186L95.38163816133734,-52.0493866157399M95.38163816133734,-52.855956501225485L95.38163816133734,-52.0493866157399M95.38163816133734,-52.0493866157399L94.85313344716167,-51.68323633423088M108.6493689538597,-48.35870521068743L95.38163816133734,-52.855956501225485M95.38163816133734,-52.855956501225485L94.85313344716167,-52.48980621971645" style="fill:none;stroke:rgb(0,0,0);stroke-width:1;stroke-linecap:round"></path><path d="M175.0421225573082,88.71409113740803L-59.613970536692804,251.28481612741624L-59.613970536692804,-106.83221302818178z" style="fill:rgb(238,238,238); fill-opacity: 0.33"></path><path d="M95.38163816133734,-52.855956501225485L95.38163816133734,-52.0493866157399L94.85313344716167,-52.48980621971645zM95.38163816133734,-52.0493866157399L94.85313344716167,-51.683236334230884L94.85313344716167,-52.48980621971645z" style="fill:rgb(153,221,255); fill-opacity: 0.4"></path><path d="M94.85313344716167,-52.48980621971645L94.85313344716167,-51.68323633423088M94.85313344716167,-51.68323633423088L108.12086423968404,-47.185985043692824M94.85313344716167,-52.48980621971645L108.12086423968404,-47.99255492917841M117.68545965908018,27.808575122392888L101.1007952076611,22.1870106835575M101.1007952076611,21.649297426567113L101.1007952076611,22.1870106835575M101.1007952076611,22.1870106835575L100.74845873154398,22.431110871230185" style="fill:none;stroke:rgb(0,0,0);stroke-width:1;stroke-linecap:round"></path><path d="M108.6493689538597,-47.55213532520186L95.38163816133734,-52.0493866157399L95.38163816133734,-52.855956501225485zM94.85313344716167,-51.683236334230884L95.38163816133734,-52.0493866157399L108.6493689538597,-47.55213532520186z" style="fill:rgb(153,221,255); fill-opacity: 0.4"></path><path d="M117.68545965908018,27.270861865402498L101.1007952076611,21.649297426567113M101.1007952076611,21.649297426567113L100.74845873154398,21.893397614239795" style="fill:none;stroke:rgb(0,0,0);stroke-width:1;stroke-linecap:round"></path><path d="M101.1007952076611,21.649297426567113L101.1007952076611,22.1870106835575L100.74845873154398,21.8933976142398zM101.1007952076611,22.1870106835575L100.74845873154398,22.431110871230185L100.74845873154398,21.8933976142398z" style="fill:rgb(153,221,255); fill-opacity: 0.4"></path><path d="M100.74845873154398,21.893397614239795L100.74845873154398,22.431110871230185M100.74845873154398,22.431110871230185L117.33312318296308,28.05267531006557M100.74845873154398,21.893397614239795L117.33312318296308,27.514962053075187" style="fill:none;stroke:rgb(0,0,0);stroke-width:1;stroke-linecap:round"></path><path d="M158.98296932437614,-122.08585851628037L158.98296932437614,53.7463765195763L43.768941634078374,-42.26509714731239z" style="fill:rgb(238,238,238); fill-opacity: 0.33"></path><path d="M94.85313344716167,-52.48980621971645L108.12086423968404,-47.99255492917841L95.38163816133734,-52.855956501225485zM94.85313344716167,-52.48980621971645L94.85313344716167,-51.683236334230884L108.12086423968404,-47.99255492917841z" style="fill:rgb(153,221,255); fill-opacity: 0.4"></path><path d="M197.99853342470433,51.55582349845424L178.0969372359208,44.80994656264716L178.0969372359208,-35.847041985910934z" style="fill:rgb(238,238,238); fill-opacity: 0.33"></path><path d="M108.6493689538597,-48.358705210687425L108.6493689538597,-47.55213532520186L95.38163816133734,-52.855956501225485z" style="fill:rgb(153,221,255); fill-opacity: 0.4"></path><path d="M171.64774725215088,-43.440521644718075L171.64774725215088,43.6690259877247L155.0630828007318,-49.062086083553474z" style="fill:rgb(238,238,238); fill-opacity: 0.33"></path><path d="M108.12086423968404,-47.185985043692824L94.85313344716167,-51.683236334230884L108.6493689538597,-47.55213532520186z" style="fill:rgb(153,221,255); fill-opacity: 0.4"></path><path d="M138.2090392307139,47.227365483781085L20.880992683713426,128.5127279787852L20.880992683713426,-50.54578659901382z" style="fill:rgb(238,238,238); fill-opacity: 0.33"></path><path d="M108.12086423968404,-47.99255492917841L108.6493689538597,-48.358705210687425L95.38163816133734,-52.855956501225485zM117.68545965908018,27.808575122392885L101.1007952076611,22.1870106835575L101.1007952076611,21.649297426567113zM100.74845873154398,22.431110871230185L101.1007952076611,22.1870106835575L117.68545965908018,27.808575122392885zM94.85313344716167,-51.683236334230884L108.12086423968404,-47.185985043692824L108.12086423968404,-47.99255492917841zM100.74845873154398,21.8933976142398L117.33312318296308,27.514962053075187L101.1007952076611,21.649297426567113zM100.74845873154398,21.8933976142398L100.74845873154398,22.431110871230185L117.33312318296308,27.514962053075187z" style="fill:rgb(153,221,255); fill-opacity: 0.4"></path><path d="M108.6493689538597,-48.35870521068743L108.6493689538597,-47.55213532520186M108.6493689538597,-47.55213532520186L108.12086423968404,-47.185985043692824M108.64936781010972,-48.35870534640122L108.64936781010972,-47.552135460915636M108.64936781010972,-47.552135460915636L108.12086309593404,-47.18598517940661M108.64936781010972,-47.552135460915636L116.66774151393902,-43.95784717351019" style="fill:none;stroke:rgb(0,0,0);stroke-width:1;stroke-linecap:round"></path><path d="M108.12086423968404,-47.185985043692824L108.6493689538597,-47.55213532520186L108.6493689538597,-48.358705210687425z" style="fill:rgb(153,221,255); fill-opacity: 0.4"></path><path d="M108.64936917582247,-48.35870513545058L108.64936917582247,-47.552135249965005L108.1208644616468,-47.185984968455976z" style="fill:rgb(255,187,187); fill-opacity: 0.4"></path><path d="M108.6493689538597,-48.35870521068743L108.12086423968404,-47.99255492917841M108.64936781010972,-48.35870534640122L108.12086309593404,-47.99255506489219M108.64936781010972,-48.35870534640122L116.66774151393902,-43.95784717351019M108.12086423968404,-47.99255492917841L108.12086423968404,-47.185985043692824M108.12086309593404,-47.18598517940661L108.12086309593404,-47.99255506489219M108.12086309593404,-47.18598517940661L116.66774151393902,-43.95784717351019" style="fill:none;stroke:rgb(0,0,0);stroke-width:1;stroke-linecap:round"></path><path d="M108.12086423968404,-47.99255492917841L108.12086423968404,-47.185985043692824L108.6493689538597,-48.358705210687425z" style="fill:rgb(153,221,255); fill-opacity: 0.4"></path><path d="M108.64936917582247,-48.35870513545058L108.1208644616468,-47.185984968455976L108.1208644616468,-47.992554853941556z" style="fill:rgb(255,187,187); fill-opacity: 0.4"></path><path d="M108.12086309593404,-47.99255506489219L116.66774151393902,-43.95784717351019" style="fill:none;stroke:rgb(0,0,0);stroke-width:1;stroke-linecap:round"></path><path d="M117.68545965908018,27.270861865402498L117.68545965908018,27.808575122392885L101.1007952076611,21.649297426567113zM117.33312318296308,28.05267531006557L100.74845873154398,22.431110871230185L117.68545965908018,27.808575122392885zM117.33312318296308,27.514962053075187L117.68545965908018,27.270861865402498L101.1007952076611,21.649297426567113zM100.74845873154398,22.431110871230185L117.33312318296308,28.05267531006557L117.33312318296308,27.514962053075187z" style="fill:rgb(153,221,255); fill-opacity: 0.4"></path><path d="M108.64936917582247,-47.552135249965005L108.64936917582247,-48.35870513545058L116.66774228870557,-43.95784726086817zM108.1208644616468,-47.185984968455976L108.64936917582247,-47.552135249965005L116.66774228870557,-43.95784726086817zM108.64936917582247,-48.35870513545058L108.1208644616468,-47.992554853941556L116.66774228870557,-43.95784726086817zM108.1208644616468,-47.992554853941556L108.1208644616468,-47.185984968455976L116.66774228870557,-43.95784726086817z" style="fill:rgb(255,187,187); fill-opacity: 0.4"></path><path d="M125.246465818353,81.42497471354991L178.0969372359208,44.80994656264716L197.99853342470433,51.55582349845424z" style="fill:rgb(238,238,238); fill-opacity: 0.33"></path><path d="M117.68545940668143,27.27086214438863L117.68545940668143,27.808575401379017M117.68545940668143,27.808575401379017L117.33312293056433,28.0526755890517M117.68545940668143,27.808575401379017L126.30023455880105,22.339816654766437M117.68545965908018,27.270861865402498L117.68545965908018,27.808575122392888M117.68545965908018,27.808575122392888L117.33312318296308,28.05267531006557" style="fill:none;stroke:rgb(0,0,0);stroke-width:1;stroke-linecap:round"></path><path d="M117.68545945615058,27.270861796617154L117.68545945615058,27.80857505360754L117.33312298003345,28.052675241280223z" style="fill:rgb(255,187,187); fill-opacity: 0.4"></path><path d="M117.33312318296308,28.05267531006557L117.68545965908018,27.808575122392885L117.68545965908018,27.270861865402498z" style="fill:rgb(153,221,255); fill-opacity: 0.4"></path><path d="M117.68545940668143,27.27086214438863L117.33312293056433,27.514962332061316M117.68545940668143,27.27086214438863L126.30023455880105,22.339816654766437M117.68545965908018,27.270861865402498L117.33312318296308,27.514962053075187M117.33312293056433,28.0526755890517L117.33312293056433,27.514962332061316M117.33312293056433,28.0526755890517L126.30023455880105,22.339816654766437M117.33312318296308,27.514962053075187L117.33312318296308,28.05267531006557" style="fill:none;stroke:rgb(0,0,0);stroke-width:1;stroke-linecap:round"></path><path d="M117.68545945615058,27.270861796617154L117.33312298003345,28.052675241280223L117.33312298003345,27.51496198428984z" style="fill:rgb(255,187,187); fill-opacity: 0.4"></path><path d="M117.33312318296308,27.514962053075187L117.33312318296308,28.05267531006557L117.68545965908018,27.270861865402498z" style="fill:rgb(153,221,255); fill-opacity: 0.4"></path><path d="M117.33312293056433,27.514962332061316L126.30023455880105,22.339816654766437M171.64774725215088,-43.44052164471808L155.0630828007318,-49.06208608355346M155.0630828007318,-49.06208608355346L97.98457366975859,-9.517855680578501M-3.708064573600849,71.8738146038923L-8.965278908463286,70.0918208084333M-8.965278908463286,69.28525092294771L-8.965278908463286,70.0918208084333M-8.965278908463286,70.0918208084333L-9.493783622638963,70.45797108994232" style="fill:none;stroke:rgb(0,0,0);stroke-width:1;stroke-linecap:round"></path><path d="M117.68545945615058,27.80857505360754L117.68545945615058,27.270861796617154L126.30023449762678,22.339816589999483zM117.33312298003345,28.052675241280223L117.68545945615058,27.80857505360754L126.30023449762678,22.339816589999483zM117.68545945615058,27.270861796617154L117.33312298003345,27.51496198428984L126.30023449762678,22.339816589999483zM117.33312298003345,27.51496198428984L117.33312298003345,28.052675241280223L126.30023449762678,22.339816589999483z" style="fill:rgb(255,187,187); fill-opacity: 0.4"></path><path d="M-3.708064573600849,71.06724471840671L-8.965278908463286,69.28525092294771M-8.965278908463286,69.28525092294771L-9.493783622638963,69.65140120445675" style="fill:none;stroke:rgb(0,0,0);stroke-width:1;stroke-linecap:round"></path><path d="M-8.965278908463269,69.2852509229477L-8.965278908463269,70.09182080843328L-9.49378362263896,69.65140120445672zM-8.965278908463269,70.09182080843328L-9.49378362263896,70.4579710899423L-9.49378362263896,69.65140120445672z" style="fill:rgb(153,221,255); fill-opacity: 0.4"></path><path d="M-9.493783622638963,69.65140120445675L-9.493783622638963,70.45797108994232M-9.493783622638963,70.45797108994232L-4.236569287776526,72.23996488540132" style="fill:none;stroke:rgb(0,0,0);stroke-width:1;stroke-linecap:round"></path><path d="M114.56923812117768,83.21325639069967L171.64774725215088,43.6690259877247L171.64774725215088,-43.440521644718075z" style="fill:rgb(238,238,238); fill-opacity: 0.33"></path><path d="M-9.493783622638963,69.65140120445675L-4.236569287776526,71.43339499991575" style="fill:none;stroke:rgb(0,0,0);stroke-width:1;stroke-linecap:round"></path><path d="M-3.7080645736008364,71.8738146038923L-8.965278908463269,70.09182080843328L-8.965278908463269,69.2852509229477zM-9.49378362263896,70.4579710899423L-8.965278908463269,70.09182080843328L-3.7080645736008364,71.8738146038923zM-9.49378362263896,69.65140120445672L-4.236569287776512,71.43339499991573L-8.965278908463269,69.2852509229477zM-9.49378362263896,69.65140120445672L-9.49378362263896,70.4579710899423L-4.236569287776512,71.43339499991573zM-3.7080645736008364,71.06724471840671L-3.7080645736008364,71.8738146038923L-8.965278908463269,69.2852509229477zM-4.236569287776512,72.23996488540132L-9.49378362263896,70.4579710899423L-3.7080645736008364,71.8738146038923zM-4.236569287776512,71.43339499991573L-3.7080645736008364,71.06724471840671L-8.965278908463269,69.2852509229477zM-9.49378362263896,70.4579710899423L-4.236569287776512,72.23996488540132L-4.236569287776512,71.43339499991573z" style="fill:rgb(153,221,255); fill-opacity: 0.4"></path><path d="M158.98296932437614,53.7463765195763L43.768941634078374,133.56713788854427L43.768941634078374,-42.26509714731239z" style="fill:rgb(238,238,238); fill-opacity: 0.33"></path><path d="M159.9936252985614,-16.41749169035752L143.4089608471423,-22.039056129192907M143.4089608471423,-23.383339271668877L143.4089608471423,-22.039056129192907M143.4089608471423,-22.039056129192907L142.5281196568495,-21.428805660011196M-3.708070303282509,71.067245144326L-3.708070303282509,71.87381502981157M-3.708070303282509,71.87381502981157L-4.236575017458201,72.2399653113206M-3.708070303282509,71.87381502981157L5.065207605637529,73.80963685502357M-3.708064573600849,71.06724471840671L-3.708064573600849,71.8738146038923M-3.708064573600849,71.8738146038923L-4.236569287776526,72.23996488540132" style="fill:none;stroke:rgb(0,0,0);stroke-width:1;stroke-linecap:round"></path><path d="M-3.7080646811049736,71.06724468196693L-3.7080646811049736,71.87381456745251L-4.236569395280649,72.23996484896153z" style="fill:rgb(255,187,187); fill-opacity: 0.4"></path><path d="M-4.236569287776512,72.23996488540132L-3.7080645736008364,71.8738146038923L-3.7080645736008364,71.06724471840671z" style="fill:rgb(153,221,255); fill-opacity: 0.4"></path><path d="M-3.708070303282509,71.067245144326L-4.236575017458201,71.43339542583503M-3.708070303282509,71.067245144326L5.065207605637529,73.80963685502357M-3.708064573600849,71.06724471840671L-4.236569287776526,71.43339499991575M159.9936252985614,-17.76177483283349L143.4089608471423,-23.383339271668877M143.4089608471423,-23.383339271668877L142.5281196568495,-22.773088802487162M-4.236575017458201,72.2399653113206L-4.236575017458201,71.43339542583503M-4.236575017458201,72.2399653113206L5.065207605637529,73.80963685502357M-4.236569287776526,71.43339499991575L-4.236569287776526,72.23996488540132" style="fill:none;stroke:rgb(0,0,0);stroke-width:1;stroke-linecap:round"></path><path d="M-3.7080646811049736,71.06724468196693L-4.236569395280649,72.23996484896153L-4.236569395280649,71.43339496347595z" style="fill:rgb(255,187,187); fill-opacity: 0.4"></path><path d="M-4.236569287776512,71.43339499991573L-4.236569287776512,72.23996488540132L-3.7080645736008364,71.06724471840671zM143.4089608471423,-23.383339271668877L143.4089608471423,-22.039056129192907L142.5281196568495,-22.773088802487166zM143.4089608471423,-22.039056129192907L142.5281196568495,-21.428805660011196L142.5281196568495,-22.773088802487166z" style="fill:rgb(153,221,255); fill-opacity: 0.4"></path><path d="M142.5281196568495,-22.773088802487162L142.5281196568495,-21.428805660011196M142.5281196568495,-21.428805660011196L159.1127841082686,-15.807241221175808M-4.236575017458201,71.43339542583503L5.065207605637529,73.80963685502357M142.5281196568495,-22.773088802487162L159.1127841082686,-17.151524363651777" style="fill:none;stroke:rgb(0,0,0);stroke-width:1;stroke-linecap:round"></path><path d="M114.56923812117768,83.21325639069967L97.98457366975859,77.59169195186426L171.64774725215088,43.6690259877247z" style="fill:rgb(238,238,238); fill-opacity: 0.33"></path><path d="M-3.7080646811049736,71.87381456745251L-3.7080646811049736,71.06724468196693L5.065205816158835,73.80963884853686zM-4.236569395280649,72.23996484896153L-3.7080646811049736,71.87381456745251L5.065205816158835,73.80963884853686zM-3.7080646811049736,71.06724468196693L-4.236569395280649,71.43339496347595L5.065205816158835,73.80963884853686zM-4.236569395280649,71.43339496347595L-4.236569395280649,72.23996484896153L5.065205816158835,73.80963884853686z" style="fill:rgb(255,187,187); fill-opacity: 0.4"></path><path d="M20.880992683713412,-50.545786599013816L20.880992683713412,128.5127279787852M20.880992683713412,128.5127279787852L34.14872347623578,133.00997926932325" style="fill:none;stroke:rgb(0,0,0);stroke-width:1;stroke-linecap:round"></path><path d="M159.9936252985614,-16.417491690357515L143.4089608471423,-22.039056129192907L143.4089608471423,-23.383339271668877z" style="fill:rgb(153,221,255); fill-opacity: 0.4"></path><path d="M155.0630828007318,-49.062086083553474L155.0630828007318,38.0474615488893L97.98457366975859,-9.517855680578501z" style="fill:rgb(238,238,238); fill-opacity: 0.33"></path><path d="M142.5281196568495,-21.428805660011196L143.4089608471423,-22.039056129192907L159.9936252985614,-16.417491690357515zM142.5281196568495,-22.773088802487166L159.1127841082686,-17.151524363651777L143.4089608471423,-23.383339271668877z" style="fill:rgb(153,221,255); fill-opacity: 0.4"></path><path d="M-74.4914031248233,-112.39764501714976L-74.4914031248233,248.94566368039062M-74.4914031248233,248.94566368039062L-69.23418878996085,250.7276574758496" style="fill:none;stroke:rgb(0,0,0);stroke-width:1;stroke-linecap:round"></path><path d="M142.5281196568495,-22.773088802487166L142.5281196568495,-21.428805660011196L159.1127841082686,-17.151524363651777z" style="fill:rgb(153,221,255); fill-opacity: 0.4"></path><path d="M197.99853342470433,-29.101165050103866L197.99853342470433,51.55582349845424L178.0969372359208,-35.847041985910934z" style="fill:rgb(238,238,238); fill-opacity: 0.33"></path><path d="M171.64774725215088,-43.44052164471808L114.56923812117768,-3.8962912417431106" style="fill:none;stroke:rgb(0,0,0);stroke-width:1;stroke-linecap:round"></path><path d="M159.9936252985614,-17.761774832833485L159.9936252985614,-16.417491690357515L143.4089608471423,-23.383339271668877zM159.1127841082686,-15.807241221175808L142.5281196568495,-21.428805660011196L159.9936252985614,-16.417491690357515zM159.1127841082686,-17.151524363651777L159.9936252985614,-17.761774832833485L143.4089608471423,-23.383339271668877z" style="fill:rgb(153,221,255); fill-opacity: 0.4"></path><path d="M-69.23418878996085,-110.61565122169074L-69.23418878996085,250.7276574758496" style="fill:none;stroke:rgb(0,0,0);stroke-width:1;stroke-linecap:round"></path><path d="M142.5281196568495,-21.428805660011196L159.1127841082686,-15.807241221175808L159.1127841082686,-17.151524363651777z" style="fill:rgb(153,221,255); fill-opacity: 0.4"></path><path d="M34.14872347623578,-46.04853530847576L151.4767700232363,-127.33389780347989L138.2090392307139,-131.83114909401792zM-69.23418878996085,-110.61565122169075L167.53592316074284,-274.650977337735L162.27870882588044,-276.43297113319403z" style="fill:rgb(238,238,238); fill-opacity: 0.33"></path><path d="M159.99362508985485,-17.761774499128485L159.99362508985485,-16.417491356652516M159.99362508985485,-16.417491356652516L159.11278389956203,-15.8072408874708M159.99362508985485,-16.417491356652516L166.8982862889533,-11.165547566986843M159.9936252985614,-17.76177483283349L159.9936252985614,-16.41749169035752M159.9936252985614,-16.41749169035752L159.1127841082686,-15.807241221175808M34.14872347623578,-46.04853530847578L34.14872347623578,133.00997926932325" style="fill:none;stroke:rgb(0,0,0);stroke-width:1;stroke-linecap:round"></path><path d="M159.99362509563178,-17.761774901618836L159.99362509563178,-16.417491759142866L159.112783905339,-15.807241289961151z" style="fill:rgb(255,187,187); fill-opacity: 0.4"></path><path d="M159.1127841082686,-15.807241221175808L159.9936252985614,-16.417491690357515L159.9936252985614,-17.761774832833485z" style="fill:rgb(153,221,255); fill-opacity: 0.4"></path><path d="M159.99362508985485,-17.761774499128485L159.11278389956203,-17.151524029946767M159.99362508985485,-17.761774499128485L166.8982862889533,-11.165547566986843M159.9936252985614,-17.76177483283349L159.1127841082686,-17.151524363651777M159.11278389956203,-15.8072408874708L159.11278389956203,-17.151524029946767M159.11278389956203,-15.8072408874708L166.8982862889533,-11.165547566986843M159.1127841082686,-17.151524363651777L159.1127841082686,-15.807241221175808" style="fill:none;stroke:rgb(0,0,0);stroke-width:1;stroke-linecap:round"></path><path d="M155.0630828007318,38.0474615488893L97.98457366975859,77.59169195186426L97.98457366975859,-9.517855680578501z" style="fill:rgb(238,238,238); fill-opacity: 0.33"></path><path d="M159.99362509563178,-17.761774901618836L159.112783905339,-15.807241289961151L159.112783905339,-17.151524432437128z" style="fill:rgb(255,187,187); fill-opacity: 0.4"></path><path d="M159.1127841082686,-17.151524363651777L159.1127841082686,-15.807241221175808L159.9936252985614,-17.761774832833485z" style="fill:rgb(153,221,255); fill-opacity: 0.4"></path><path d="M159.11278389956203,-17.151524029946767L166.8982862889533,-11.165547566986843M197.99853342470433,-29.10116505010387L178.09693723592076,-35.847041985910934M178.09693723592076,-35.847041985910934L125.24646581835297,0.7679861649918047M213.25072113544226,50.193809507316786L193.34912494665875,43.44793257150972M193.34912494665875,3.119438297230664L193.34912494665875,43.44793257150972M193.34912494665875,43.44793257150972L166.92388923787485,61.75544664696108" style="fill:none;stroke:rgb(0,0,0);stroke-width:1;stroke-linecap:round"></path><path d="M159.99362509563178,-16.417491759142866L159.99362509563178,-17.761774901618836L166.89828639488786,-11.165548008290836zM159.112783905339,-15.807241289961151L159.99362509563178,-16.417491759142866L166.89828639488786,-11.165548008290836z" style="fill:rgb(255,187,187); fill-opacity: 0.4"></path><path d="M-59.61397053669279,-106.83221302818178L-59.61397053669279,251.28481612741624M-59.61397053669279,251.28481612741624L-46.34623974417044,255.7820674179543" style="fill:none;stroke:rgb(0,0,0);stroke-width:1;stroke-linecap:round"></path><path d="M159.99362509563178,-17.761774901618836L159.112783905339,-17.151524432437128L166.89828639488786,-11.165548008290836zM159.112783905339,-17.151524432437128L159.112783905339,-15.807241289961151L166.89828639488786,-11.165548008290836z" style="fill:rgb(255,187,187); fill-opacity: 0.4"></path><path d="M43.76894163407837,-42.265097147312396L43.76894163407837,133.56713788854427M43.76894163407837,133.56713788854427L60.35360608549746,139.18870232737964" style="fill:none;stroke:rgb(0,0,0);stroke-width:1;stroke-linecap:round"></path><path d="M145.14806200713653,88.17085164935698L197.99853342470433,51.55582349845424L197.99853342470433,-29.101165050103866z" style="fill:rgb(238,238,238); fill-opacity: 0.33"></path><path d="M97.98457366975859,-9.517855680578501L97.98457366975859,77.59169195186428M97.98457366975859,77.59169195186428L114.56923812117768,83.21325639069967" style="fill:none;stroke:rgb(0,0,0);stroke-width:1;stroke-linecap:round"></path><path d="M178.0969372359208,-35.847041985910934L178.0969372359208,44.80994656264716L125.246465818353,0.7679861649918027zM145.14806200713653,88.17085164935698L125.246465818353,81.42497471354991L197.99853342470433,51.55582349845424z" style="fill:rgb(238,238,238); fill-opacity: 0.33"></path><path d="M-46.34623974417044,-102.33496173764375L-46.34623974417044,255.7820674179543" style="fill:none;stroke:rgb(0,0,0);stroke-width:1;stroke-linecap:round"></path><path d="M-46.346239744170425,-102.33496173764375L188.30985334983058,-264.9056867276519L175.0421225573082,-269.40293801818996zM60.35360608549746,-36.643532708477004L175.56763377579523,-116.46429407744499L158.98296932437614,-122.08585851628037zM213.2507211354423,50.193809507316786L193.34912494665875,43.44793257150971L193.34912494665875,3.119438297230664z" style="fill:rgb(238,238,238); fill-opacity: 0.33"></path><path d="M197.99853342470433,-29.10116505010387L145.14806200713653,7.513863100798873M213.25072113544226,9.865315233037732L213.25072113544226,50.193809507316786M213.25072113544226,50.193809507316786L186.8254854266584,68.50132358276815M60.35360608549746,-36.64353270847702L60.35360608549746,139.18870232737964" style="fill:none;stroke:rgb(0,0,0);stroke-width:1;stroke-linecap:round"></path><path d="M178.0969372359208,44.80994656264716L125.246465818353,81.42497471354991L125.246465818353,0.7679861649918027zM114.56923812117768,-3.8962912417431124L171.64774725215088,-43.440521644718075L155.0630828007318,-49.062086083553474zM166.92388923787485,61.755446646961076L193.34912494665875,43.44793257150971L213.2507211354423,50.193809507316786zM34.14872347623578,-46.04853530847576L34.14872347623578,133.00997926932322L151.4767700232363,-127.33389780347989z" style="fill:rgb(238,238,238); fill-opacity: 0.33"></path><path d="M114.56923812117768,-3.8962912417431106L114.56923812117768,83.21325639069967M125.24646581835297,0.7679861649918047L125.24646581835297,81.42497471354991M125.24646581835297,81.42497471354991L145.14806200713653,88.17085164935698M242.91844107787384,59.2049202039621L219.69991123019355,51.33473011985769M219.69991123019355,17.45879492946328L219.69991123019355,51.33473011985769M219.69991123019355,51.33473011985769L197.50271323481508,66.71304194323683M213.25072113544226,9.865315233037732L193.34912494665875,3.119438297230664M193.34912494665875,3.119438297230664L166.92388923787485,21.42695237268203" style="fill:none;stroke:rgb(0,0,0);stroke-width:1;stroke-linecap:round"></path><path d="M213.2507211354423,9.865315233037732L213.2507211354423,50.193809507316786L193.34912494665875,3.119438297230664zM114.56923812117768,-3.8962912417431124L114.56923812117768,83.21325639069967L171.64774725215088,-43.440521644718075zM193.34912494665875,3.119438297230664L193.34912494665875,43.44793257150971L166.92388923787485,21.42695237268203z" style="fill:rgb(238,238,238); fill-opacity: 0.33"></path><path d="M158.7649086654739,38.910731789106315L138.86331247669037,32.164854853299246M138.86331247669037,31.627141596308864L138.86331247669037,32.164854853299246M138.86331247669037,32.164854853299246L138.51097600057327,32.40895504097193M158.7649086654739,38.37301853211593L138.86331247669037,31.627141596308864M138.86331247669037,31.627141596308864L138.51097600057327,31.871241783981546" style="fill:none;stroke:rgb(0,0,0);stroke-width:1;stroke-linecap:round"></path><path d="M138.8633124766904,31.627141596308864L138.8633124766904,32.164854853299246L138.51097600057327,31.871241783981546zM138.8633124766904,32.164854853299246L138.51097600057327,32.40895504097193L138.51097600057327,31.871241783981546z" style="fill:rgb(153,221,255); fill-opacity: 0.4"></path><path d="M138.51097600057327,31.871241783981546L138.51097600057327,32.40895504097193M138.51097600057327,32.40895504097193L158.41257218935678,39.154831976779M138.51097600057327,31.871241783981546L158.41257218935678,38.61711871978861" style="fill:none;stroke:rgb(0,0,0);stroke-width:1;stroke-linecap:round"></path><path d="M20.880992683713426,128.5127279787852L34.14872347623578,133.00997926932322L34.14872347623578,-46.04853530847576zM97.98457366975859,77.59169195186426L114.56923812117768,83.21325639069967L114.56923812117768,-3.8962912417431124zM193.34912494665875,43.44793257150971L166.92388923787485,61.755446646961076L166.92388923787485,21.42695237268203zM145.14806200713653,7.513863100798871L197.99853342470433,-29.101165050103866L178.0969372359208,-35.847041985910934zM60.35360608549746,-36.643532708477004L60.35360608549746,139.18870232737964L175.56763377579523,-116.46429407744499zM186.8254854266584,68.50132358276815L166.92388923787485,61.755446646961076L213.2507211354423,50.193809507316786z" style="fill:rgb(238,238,238); fill-opacity: 0.33"></path><path d="M158.7649086654739,38.910731789106315L138.8633124766904,32.164854853299246L138.8633124766904,31.627141596308864zM138.51097600057327,32.40895504097193L138.8633124766904,32.164854853299246L158.7649086654739,38.910731789106315z" style="fill:rgb(153,221,255); fill-opacity: 0.4"></path><path d="M-69.23418878996085,-110.61565122169075L-69.23418878996085,250.72765747584964L167.53592316074284,-274.650977337735zM186.8254854266584,68.50132358276815L213.2507211354423,50.193809507316786L213.2507211354423,9.865315233037732z" style="fill:rgb(238,238,238); fill-opacity: 0.33"></path><path d="M138.51097600057327,31.871241783981546L158.41257218935678,38.617118719788614L138.8633124766904,31.627141596308864zM138.51097600057327,31.871241783981546L138.51097600057327,32.40895504097193L158.41257218935678,38.617118719788614z" style="fill:rgb(153,221,255); fill-opacity: 0.4"></path><path d="M242.91844107787384,59.2049202039621L219.69991123019355,51.33473011985768L219.69991123019355,17.45879492946328z" style="fill:rgb(238,238,238); fill-opacity: 0.33"></path><path d="M166.92388923787485,21.42695237268203L166.92388923787485,61.75544664696108M166.92388923787485,61.75544664696108L186.8254854266584,68.50132358276815M193.63725880396845,48.25513610808274L173.73566261518494,41.50925917227567M173.73566261518494,40.1649760297997L173.73566261518494,41.50925917227567M173.73566261518494,41.50925917227567L172.85482142489215,42.11950964145739M145.14806200713653,7.513863100798873L145.14806200713653,88.17085164935698M193.63725880396845,46.91085296560677L173.73566261518494,40.1649760297997M173.73566261518494,40.1649760297997L172.85482142489215,40.77522649898142" style="fill:none;stroke:rgb(0,0,0);stroke-width:1;stroke-linecap:round"></path><path d="M173.7356626151849,40.1649760297997L173.7356626151849,41.50925917227567L172.85482142489212,40.77522649898141zM173.7356626151849,41.50925917227567L172.85482142489212,42.11950964145739L172.85482142489212,40.77522649898141z" style="fill:rgb(153,221,255); fill-opacity: 0.4"></path><path d="M172.85482142489215,40.77522649898142L172.85482142489215,42.11950964145739M172.85482142489215,42.11950964145739L192.75641761367567,48.86538657726445" style="fill:none;stroke:rgb(0,0,0);stroke-width:1;stroke-linecap:round"></path><path d="M97.98457366975859,-9.517855680578501L114.56923812117768,-3.8962912417431124L155.0630828007318,-49.062086083553474z" style="fill:rgb(238,238,238); fill-opacity: 0.33"></path><path d="M158.7649086654739,38.373018532115935L158.7649086654739,38.910731789106315L138.8633124766904,31.627141596308864zM158.41257218935678,39.15483197677899L138.51097600057327,32.40895504097193L158.7649086654739,38.910731789106315z" style="fill:rgb(153,221,255); fill-opacity: 0.4"></path><path d="M213.25072113544226,9.865315233037732L186.8254854266584,28.1728293084891" style="fill:none;stroke:rgb(0,0,0);stroke-width:1;stroke-linecap:round"></path><path d="M158.41257218935678,38.617118719788614L158.7649086654739,38.373018532115935L138.8633124766904,31.627141596308864zM138.51097600057327,32.40895504097193L158.41257218935678,39.15483197677899L158.41257218935678,38.617118719788614z" style="fill:rgb(153,221,255); fill-opacity: 0.4"></path><path d="M172.85482142489215,40.77522649898142L192.75641761367567,47.521103434788486M158.76491060879096,38.37301881034956L173.6442295411546,37.05198362980083M158.76491060879096,38.91073208336505L173.6442295411546,37.05198362980083M158.41257413267383,39.154832271037726L173.6442295411546,37.05198362980083M158.41257413267383,38.61711899802225L173.6442295411546,37.05198362980083" style="fill:none;stroke:rgb(0,0,0);stroke-width:1;stroke-linecap:round"></path><path d="M197.50271323481508,66.71304194323683L219.69991123019355,51.33473011985768L242.91844107787384,59.2049202039621z" style="fill:rgb(238,238,238); fill-opacity: 0.33"></path><path d="M242.91844107787384,25.32898501356769L242.91844107787384,59.2049202039621M242.91844107787384,59.2049202039621L220.72124308249536,74.58323202734125" style="fill:none;stroke:rgb(0,0,0);stroke-width:1;stroke-linecap:round"></path><path d="M193.63725880396845,48.25513610808274L173.7356626151849,41.50925917227567L173.7356626151849,40.1649760297997z" style="fill:rgb(153,221,255); fill-opacity: 0.4"></path><path d="M158.76490899841806,38.9107319019616L158.76490899841806,38.37301864497121L173.64422811507012,37.05198333665105zM158.41257252230093,39.15483208963428L158.76490899841806,38.9107319019616L173.64422811507012,37.05198333665105z" style="fill:rgb(255,187,187); fill-opacity: 0.4"></path><path d="M172.85482142489212,42.11950964145739L173.7356626151849,41.50925917227567L193.63725880396845,48.25513610808274z" style="fill:rgb(153,221,255); fill-opacity: 0.4"></path><path d="M158.76490899841806,38.37301864497121L158.41257252230093,38.617118832643904L173.64422811507012,37.05198333665105zM158.41257252230093,38.617118832643904L158.41257252230093,39.15483208963428L173.64422811507012,37.05198333665105z" style="fill:rgb(255,187,187); fill-opacity: 0.4"></path><path d="M158.7649086654739,38.37301853211593L158.7649086654739,38.910731789106315M158.7649086654739,38.910731789106315L158.41257218935678,39.154831976779M158.76491060879096,38.37301881034956L158.76491060879096,38.91073208336505M158.76491060879096,38.91073208336505L158.41257413267383,39.154832271037726" style="fill:none;stroke:rgb(0,0,0);stroke-width:1;stroke-linecap:round"></path><path d="M158.41257218935678,39.15483197677899L158.7649086654739,38.910731789106315L158.7649086654739,38.373018532115935z" style="fill:rgb(153,221,255); fill-opacity: 0.4"></path><path d="M158.76490899841806,38.37301864497121L158.76490899841806,38.9107319019616L158.41257252230093,39.15483208963428z" style="fill:rgb(255,187,187); fill-opacity: 0.4"></path><path d="M158.7649086654739,38.37301853211593L158.41257218935678,38.61711871978861M158.76491060879096,38.37301881034956L158.41257413267383,38.61711899802225M158.41257218935678,38.61711871978861L158.41257218935678,39.154831976779M158.41257413267383,39.154832271037726L158.41257413267383,38.61711899802225" style="fill:none;stroke:rgb(0,0,0);stroke-width:1;stroke-linecap:round"></path><path d="M172.85482142489212,40.77522649898141L192.75641761367564,47.521103434788486L173.7356626151849,40.1649760297997zM158.41257218935678,38.617118719788614L158.41257218935678,39.15483197677899L158.7649086654739,38.373018532115935z" style="fill:rgb(153,221,255); fill-opacity: 0.4"></path><path d="M158.76490899841806,38.37301864497121L158.41257252230093,39.15483208963428L158.41257252230093,38.617118832643904z" style="fill:rgb(255,187,187); fill-opacity: 0.4"></path><path d="M172.85482142489212,40.77522649898141L172.85482142489212,42.11950964145739L192.75641761367564,47.521103434788486z" style="fill:rgb(153,221,255); fill-opacity: 0.4"></path><path d="M231.45513272596514,60.98802724889127L208.23660287828486,53.117837164786856M208.23660287828486,52.58012390779648L208.23660287828486,53.117837164786856M208.23660287828486,53.117837164786856L207.88426640216773,53.36193735245954M231.45513272596514,60.450313991900885L208.23660287828486,52.58012390779648M208.23660287828486,52.58012390779648L207.88426640216773,52.824224095469155" style="fill:none;stroke:rgb(0,0,0);stroke-width:1;stroke-linecap:round"></path><path d="M208.23660287828486,52.58012390779646L208.23660287828486,53.117837164786856L207.88426640216773,52.82422409546915zM208.23660287828486,53.117837164786856L207.88426640216773,53.36193735245954L207.88426640216773,52.82422409546915z" style="fill:rgb(153,221,255); fill-opacity: 0.4"></path><path d="M207.88426640216773,52.824224095469155L207.88426640216773,53.36193735245954M207.88426640216773,53.36193735245954L231.102796249848,61.23212743656395M207.88426640216773,52.824224095469155L231.102796249848,60.69441417957357M242.91844107787384,25.32898501356769L219.69991123019355,17.45879492946328M219.69991123019355,17.45879492946328L197.50271323481508,32.83710675284243" style="fill:none;stroke:rgb(0,0,0);stroke-width:1;stroke-linecap:round"></path><path d="M145.14806200713653,7.513863100798871L145.14806200713653,88.17085164935698L197.99853342470433,-29.101165050103866zM186.8254854266584,28.1728293084891L213.2507211354423,9.865315233037732L193.34912494665875,3.119438297230664z" style="fill:rgb(238,238,238); fill-opacity: 0.33"></path><path d="M193.63725880396845,46.91085296560677L193.63725880396845,48.25513610808274L173.7356626151849,40.1649760297997zM192.75641761367564,48.865386577264445L172.85482142489212,42.11950964145739L193.63725880396845,48.25513610808274z" style="fill:rgb(153,221,255); fill-opacity: 0.4"></path><path d="M97.98457366975859,-9.517855680578501L97.98457366975859,77.59169195186426L114.56923812117768,-3.8962912417431124zM43.768941634078374,133.56713788854427L60.35360608549746,139.18870232737964L60.35360608549746,-36.643532708477004z" style="fill:rgb(238,238,238); fill-opacity: 0.33"></path><path d="M192.75641761367564,47.521103434788486L193.63725880396845,46.91085296560677L173.7356626151849,40.1649760297997zM172.85482142489212,42.11950964145739L192.75641761367564,48.865386577264445L192.75641761367564,47.521103434788486z" style="fill:rgb(153,221,255); fill-opacity: 0.4"></path><path d="M-46.346239744170425,-102.33496173764375L-46.346239744170425,255.7820674179543L188.30985334983058,-264.9056867276519zM20.880992683713426,-50.54578659901382L34.14872347623578,-46.04853530847576L138.2090392307139,-131.83114909401792zM219.69991123019355,17.45879492946328L219.69991123019355,51.33473011985768L197.50271323481508,32.83710675284243zM242.91844107787384,25.32898501356769L242.91844107787384,59.2049202039621L219.69991123019355,17.45879492946328zM125.246465818353,81.42497471354991L145.14806200713653,88.17085164935698L145.14806200713653,7.513863100798871z" style="fill:rgb(238,238,238); fill-opacity: 0.33"></path><path d="M231.45513272596514,60.988027248891264L208.23660287828486,53.117837164786856L208.23660287828486,52.58012390779646zM207.88426640216773,53.36193735245954L208.23660287828486,53.117837164786856L231.45513272596514,60.988027248891264zM207.88426640216773,52.82422409546915L231.102796249848,60.69441417957357L208.23660287828486,52.58012390779646zM207.88426640216773,52.82422409546915L207.88426640216773,53.36193735245954L231.102796249848,60.69441417957357z" style="fill:rgb(153,221,255); fill-opacity: 0.4"></path><path d="M186.8254854266584,28.1728293084891L186.8254854266584,68.50132358276815M193.63725798948778,46.910852478110286L193.63725798948778,48.255135876987914M193.63725798948778,48.255135876987914L192.75641679919497,48.865386346169636M193.63725798948778,48.255135876987914L202.8546481351892,49.39795051976284M193.63725880396845,46.91085296560677L193.63725880396845,48.25513610808274M193.63725880396845,48.25513610808274L192.75641761367567,48.86538657726445" style="fill:none;stroke:rgb(0,0,0);stroke-width:1;stroke-linecap:round"></path><path d="M192.75641761367564,48.865386577264445L193.63725880396845,48.25513610808274L193.63725880396845,46.91085296560677z" style="fill:rgb(153,221,255); fill-opacity: 0.4"></path><path d="M193.63725913691258,46.910853078462054L193.63725913691258,48.25513622093802L192.7564179466198,48.865386690119735z" style="fill:rgb(255,187,187); fill-opacity: 0.4"></path><path d="M193.63725798948778,46.910852478110286L192.75641679919497,47.521102947292M193.63725798948778,46.910852478110286L202.8546481351892,49.39795051976284M193.63725880396845,46.91085296560677L192.75641761367567,47.521103434788486M192.75641679919497,48.865386346169636L192.75641679919497,47.521102947292M192.75641679919497,48.865386346169636L202.8546481351892,49.39795051976284M192.75641761367567,47.521103434788486L192.75641761367567,48.86538657726445" style="fill:none;stroke:rgb(0,0,0);stroke-width:1;stroke-linecap:round"></path><path d="M192.75641761367564,47.521103434788486L192.75641761367564,48.865386577264445L193.63725880396845,46.91085296560677z" style="fill:rgb(153,221,255); fill-opacity: 0.4"></path><path d="M193.63725913691258,46.910853078462054L192.7564179466198,48.865386690119735L192.7564179466198,47.52110354764376z" style="fill:rgb(255,187,187); fill-opacity: 0.4"></path><path d="M219.69991123019355,51.33473011985768L197.50271323481508,66.71304194323683L197.50271323481508,32.83710675284243z" style="fill:rgb(238,238,238); fill-opacity: 0.33"></path><path d="M192.75641679919497,47.521102947292L202.8546481351892,49.39795051976284" style="fill:none;stroke:rgb(0,0,0);stroke-width:1;stroke-linecap:round"></path><path d="M193.63725913691258,48.25513622093802L193.63725913691258,46.910853078462054L202.8546496637808,49.39795077288443zM192.7564179466198,48.865386690119735L193.63725913691258,48.25513622093802L202.8546496637808,49.39795077288443z" style="fill:rgb(255,187,187); fill-opacity: 0.4"></path><path d="M125.246465818353,0.7679861649918027L145.14806200713653,7.513863100798871L178.0969372359208,-35.847041985910934z" style="fill:rgb(238,238,238); fill-opacity: 0.33"></path><path d="M193.63725913691258,46.910853078462054L192.7564179466198,47.52110354764376L202.8546496637808,49.39795077288443zM192.7564179466198,47.52110354764376L192.7564179466198,48.865386690119735L202.8546496637808,49.39795077288443z" style="fill:rgb(255,187,187); fill-opacity: 0.4"></path><path d="M166.92388923787485,21.42695237268203L186.8254854266584,28.1728293084891L193.34912494665875,3.119438297230664zM166.92388923787485,61.755446646961076L186.8254854266584,68.50132358276815L186.8254854266584,28.1728293084891zM186.8254854266584,28.1728293084891L186.8254854266584,68.50132358276815L213.2507211354423,9.865315233037732z" style="fill:rgb(238,238,238); fill-opacity: 0.33"></path><path d="M231.45513272596514,60.450313991900885L231.45513272596514,60.988027248891264L208.23660287828486,52.58012390779646zM231.102796249848,61.232127436563964L207.88426640216773,53.36193735245954L231.45513272596514,60.988027248891264zM231.102796249848,60.69441417957357L231.45513272596514,60.450313991900885L208.23660287828486,52.58012390779646zM207.88426640216773,53.36193735245954L231.102796249848,61.232127436563964L231.102796249848,60.69441417957357z" style="fill:rgb(153,221,255); fill-opacity: 0.4"></path><path d="M197.50271323481508,32.83710675284243L197.50271323481508,66.71304194323683M197.50271323481508,66.71304194323683L220.72124308249536,74.58323202734125" style="fill:none;stroke:rgb(0,0,0);stroke-width:1;stroke-linecap:round"></path><path d="M220.72124308249536,74.58323202734125L197.50271323481508,66.71304194323683L242.91844107787384,59.2049202039621zM220.72124308249536,74.58323202734125L242.91844107787384,59.2049202039621L242.91844107787384,25.32898501356769zM166.92388923787485,21.42695237268203L166.92388923787485,61.755446646961076L186.8254854266584,28.1728293084891z" style="fill:rgb(238,238,238); fill-opacity: 0.33"></path><path d="M268.88662759618325,65.13309352874934L245.66809774850296,57.26290344464493M245.66809774850296,41.131505734933306L245.66809774850296,57.26290344464493M245.66809774850296,57.26290344464493L235.09800346498938,64.58590907482548M231.45512954421176,60.450313227695L231.45512954421176,60.9880264846854M231.45512954421176,60.9880264846854L231.10279306809463,61.23212667235808M231.45512954421176,60.9880264846854L240.12548685609,58.04209317500341M231.45513272596514,60.450313991900885L231.45513272596514,60.98802724889127M231.45513272596514,60.98802724889127L231.102796249848,61.23212743656395" style="fill:none;stroke:rgb(0,0,0);stroke-width:1;stroke-linecap:round"></path><path d="M231.4551326340169,60.45031396073396L231.4551326340169,60.98802721772435L231.10279615789977,61.23212740539704z" style="fill:rgb(255,187,187); fill-opacity: 0.4"></path><path d="M231.102796249848,61.232127436563964L231.45513272596514,60.988027248891264L231.45513272596514,60.450313991900885z" style="fill:rgb(153,221,255); fill-opacity: 0.4"></path><path d="M231.45512954421176,60.450313227695L231.10279306809463,60.694413415367684M231.45512954421176,60.450313227695L240.12548685609,58.04209317500341M231.45513272596514,60.450313991900885L231.102796249848,60.69441417957357M231.10279306809463,61.23212667235808L231.10279306809463,60.694413415367684M231.10279306809463,61.23212667235808L240.12548685609,58.04209317500341M231.102796249848,60.69441417957357L231.102796249848,61.23212743656395" style="fill:none;stroke:rgb(0,0,0);stroke-width:1;stroke-linecap:round"></path><path d="M231.4551326340169,60.45031396073396L231.10279615789977,61.23212740539704L231.10279615789977,60.69441414840664z" style="fill:rgb(255,187,187); fill-opacity: 0.4"></path><path d="M231.102796249848,60.69441417957357L231.102796249848,61.232127436563964L231.45513272596514,60.450313991900885z" style="fill:rgb(153,221,255); fill-opacity: 0.4"></path><path d="M231.10279306809463,60.694413415367684L240.12548685609,58.04209317500341M97.98457366975859,-9.517855680578501L114.56923812117768,-3.8962912417431106M242.91844107787384,25.32898501356769L220.72124308249536,40.70729683694684" style="fill:none;stroke:rgb(0,0,0);stroke-width:1;stroke-linecap:round"></path><path d="M125.246465818353,0.7679861649918027L125.246465818353,81.42497471354991L145.14806200713653,7.513863100798871z" style="fill:rgb(238,238,238); fill-opacity: 0.33"></path><path d="M166.92388923787485,21.42695237268203L186.8254854266584,28.1728293084891" style="fill:none;stroke:rgb(0,0,0);stroke-width:1;stroke-linecap:round"></path><path d="M43.768941634078374,-42.26509714731239L60.35360608549746,-36.643532708477004L158.98296932437614,-122.08585851628037z" style="fill:rgb(238,238,238); fill-opacity: 0.33"></path><path d="M231.4551326340169,60.98802721772435L231.4551326340169,60.45031396073396L240.1254899404668,58.04209419498819zM231.10279615789977,61.23212740539704L231.4551326340169,60.98802721772435L240.1254899404668,58.04209419498819zM231.4551326340169,60.45031396073396L231.10279615789977,60.69441414840664L240.1254899404668,58.04209419498819zM231.10279615789977,60.69441414840664L231.10279615789977,61.23212740539704L240.1254899404668,58.04209419498819z" style="fill:rgb(255,187,187); fill-opacity: 0.4"></path><path d="M20.880992683713426,-50.54578659901382L20.880992683713426,128.5127279787852L34.14872347623578,-46.04853530847576zM220.72124308249536,40.707296836946846L242.91844107787384,25.32898501356769L219.69991123019355,17.45879492946328zM-74.4914031248233,248.94566368039062L-69.23418878996085,250.72765747584964L-69.23418878996085,-110.61565122169075zM268.88662759618325,65.13309352874934L245.668097748503,57.26290344464492L245.668097748503,41.131505734933306z" style="fill:rgb(238,238,238); fill-opacity: 0.33"></path><path d="M268.88662759618325,49.00169581903771L245.66809774850296,41.131505734933306M245.66809774850296,41.131505734933306L235.09800346498938,48.454511365113845" style="fill:none;stroke:rgb(0,0,0);stroke-width:1;stroke-linecap:round"></path><path d="M235.0980034649894,64.58590907482548L245.668097748503,57.26290344464492L268.88662759618325,65.13309352874934z" style="fill:rgb(238,238,238); fill-opacity: 0.33"></path><path d="M220.72124308249536,40.70729683694684L220.72124308249536,74.58323202734125" style="fill:none;stroke:rgb(0,0,0);stroke-width:1;stroke-linecap:round"></path><path d="M245.668097748503,41.131505734933306L245.668097748503,57.26290344464492L235.0980034649894,48.454511365113845zM197.50271323481508,32.83710675284243L220.72124308249536,40.707296836946846L219.69991123019355,17.45879492946328zM245.668097748503,57.26290344464492L235.0980034649894,64.58590907482548L235.0980034649894,48.454511365113845zM197.50271323481508,66.71304194323683L220.72124308249536,74.58323202734125L220.72124308249536,40.707296836946846z" style="fill:rgb(238,238,238); fill-opacity: 0.33"></path><path d="M125.24646581835297,0.7679861649918047L145.14806200713653,7.513863100798873M235.09800346498938,48.454511365113845L235.09800346498938,64.58590907482548M235.09800346498938,64.58590907482548L258.31653331266966,72.45609915892987" style="fill:none;stroke:rgb(0,0,0);stroke-width:1;stroke-linecap:round"></path><path d="M197.50271323481508,32.83710675284243L197.50271323481508,66.71304194323683L220.72124308249536,40.707296836946846zM220.72124308249536,40.707296836946846L220.72124308249536,74.58323202734125L242.91844107787384,25.32898501356769z" style="fill:rgb(238,238,238); fill-opacity: 0.33"></path><path d="M268.88662759618325,49.00169581903771L268.88662759618325,65.13309352874934M268.88662759618325,65.13309352874934L258.31653331266966,72.45609915892987M197.50271323481508,32.83710675284243L220.72124308249536,40.70729683694684" style="fill:none;stroke:rgb(0,0,0);stroke-width:1;stroke-linecap:round"></path><path d="M268.88662759618325,49.00169581903771L268.88662759618325,65.13309352874934L245.668097748503,41.131505734933306zM43.768941634078374,-42.26509714731239L43.768941634078374,133.56713788854427L60.35360608549746,-36.643532708477004zM258.3165333126697,72.45609915892987L235.0980034649894,64.58590907482548L268.88662759618325,65.13309352874934zM-59.613970536692804,251.28481612741624L-46.346239744170425,255.7820674179543L-46.346239744170425,-102.33496173764375z" style="fill:rgb(238,238,238); fill-opacity: 0.33"></path><path d="M277.755261936236,80.36940765027023L274.7329529796038,79.3449609631789M274.7329529796038,47.477877407027584L274.7329529796038,79.3449609631789M274.7329529796038,79.3449609631789L272.61893412290107,80.809562089215" style="fill:none;stroke:rgb(0,0,0);stroke-width:1;stroke-linecap:round"></path><path d="M258.3165333126697,72.45609915892987L268.88662759618325,65.13309352874934L268.88662759618325,49.00169581903771z" style="fill:rgb(238,238,238); fill-opacity: 0.33"></path><path d="M235.09800346498938,48.454511365113845L258.31653331266966,56.32470144921826" style="fill:none;stroke:rgb(0,0,0);stroke-width:1;stroke-linecap:round"></path><path d="M235.0980034649894,48.454511365113845L258.3165333126697,56.32470144921827L245.668097748503,41.131505734933306zM272.61893412290107,80.809562089215L274.7329529796038,79.3449609631789L277.7552619362361,80.36940765027023zM258.3165333126697,56.32470144921827L268.88662759618325,49.00169581903771L245.668097748503,41.131505734933306z" style="fill:rgb(238,238,238); fill-opacity: 0.33"></path><path d="M268.88662759618325,49.00169581903771L258.31653331266966,56.32470144921826M277.755261936236,48.50232409411892L277.755261936236,80.36940765027023M277.755261936236,80.36940765027023L275.6412430795333,81.83400877630635" style="fill:none;stroke:rgb(0,0,0);stroke-width:1;stroke-linecap:round"></path><path d="M235.0980034649894,48.454511365113845L235.0980034649894,64.58590907482548L258.3165333126697,56.32470144921827z" style="fill:rgb(238,238,238); fill-opacity: 0.33"></path><path d="M272.61893412290107,48.9424785330637L272.61893412290107,80.809562089215M272.61893412290107,80.809562089215L275.6412430795333,81.83400877630635" style="fill:none;stroke:rgb(0,0,0);stroke-width:1;stroke-linecap:round"></path><path d="M275.64124307953335,81.83400877630633L272.61893412290107,80.809562089215L277.7552619362361,80.36940765027023zM235.0980034649894,64.58590907482548L258.3165333126697,72.45609915892987L258.3165333126697,56.32470144921827z" style="fill:rgb(238,238,238); fill-opacity: 0.33"></path><path d="M275.6412430795333,49.96692522015503L275.6412430795333,81.83400877630635M265.36459392051376,61.326491358620146L270.5696815680471,63.09081620861076M258.31653331266966,56.32470144921826L258.31653331266966,72.45609915892987" style="fill:none;stroke:rgb(0,0,0);stroke-width:1;stroke-linecap:round"></path><path d="M277.7552619362361,80.36940765027023L274.7329529796038,79.3449609631789L274.7329529796038,47.477877407027584zM274.7329529796038,79.3449609631789L272.61893412290107,80.809562089215L272.61893412290107,48.9424785330637zM258.3165333126697,56.32470144921827L258.3165333126697,72.45609915892987L268.88662759618325,49.00169581903771z" style="fill:rgb(238,238,238); fill-opacity: 0.33"></path><path d="M289.3407796033264,82.52605929739784L286.3184706466941,81.50161261030651M286.3184706466941,53.17531702760014L286.3184706466941,81.50161261030651M286.3184706466941,81.50161261030651L284.2044517899914,82.96621373634261" style="fill:none;stroke:rgb(0,0,0);stroke-width:1;stroke-linecap:round"></path><path d="M275.64124307953335,81.83400877630633L277.7552619362361,80.36940765027023L277.7552619362361,48.50232409411891z" style="fill:rgb(238,238,238); fill-opacity: 0.33"></path><path d="M270.15081668067694,63.58871073214629L270.56968156804703,63.76295777984875L273.4240844715331,64.05834919086368zM270.8285542950225,62.36769413887579L270.31080884107155,62.72639035979757L273.4240844715331,64.05834919086368zM270.31080884107155,62.72639035979757L270.15081668067694,63.58871073214629L273.4240844715331,64.05834919086368z" style="fill:rgb(0,0,0)"></path><path d="M284.2044517899914,82.96621373634262L286.3184706466941,81.50161261030651L289.3407796033264,82.52605929739784zM272.61893412290107,80.809562089215L275.64124307953335,81.83400877630633L275.64124307953335,49.96692522015503z" style="fill:rgb(238,238,238); fill-opacity: 0.33"></path><path d="M289.3407796033264,54.19976371469146L289.3407796033264,82.52605929739784M289.3407796033264,82.52605929739784L287.22676074662365,83.99066042343395M284.2044517899914,54.639918153636245L284.2044517899914,82.96621373634261M284.2044517899914,82.96621373634261L287.22676074662365,83.99066042343395" style="fill:none;stroke:rgb(0,0,0);stroke-width:1;stroke-linecap:round"></path><path d="M287.22676074662365,83.99066042343395L284.2044517899914,82.96621373634262L289.3407796033264,82.52605929739784z" style="fill:rgb(238,238,238); fill-opacity: 0.33"></path><path d="M276.95011158760406,65.25353699247023L282.1551992351374,67.01786184246085M287.22676074662365,55.66436484072757L287.22676074662365,83.99066042343395" style="fill:none;stroke:rgb(0,0,0);stroke-width:1;stroke-linecap:round"></path><path d="M274.7329529796038,47.477877407027584L274.7329529796038,79.3449609631789L272.61893412290107,48.9424785330637zM277.7552619362361,48.50232409411891L277.7552619362361,80.36940765027023L274.7329529796038,47.477877407027584zM289.3407796033264,82.52605929739784L286.3184706466941,81.50161261030651L286.3184706466941,53.175317027600144z" style="fill:rgb(238,238,238); fill-opacity: 0.33"></path><path d="M20.880992683713412,-50.545786599013816L34.14872347623578,-46.04853530847578" style="fill:none;stroke:rgb(0,0,0);stroke-width:1;stroke-linecap:round"></path><path d="M272.61893412290107,48.9424785330637L272.61893412290107,80.809562089215L275.64124307953335,49.96692522015503zM286.3184706466941,81.50161261030651L284.2044517899914,82.96621373634262L284.2044517899914,54.639918153636245zM275.64124307953335,49.96692522015503L275.64124307953335,81.83400877630633L277.7552619362361,48.50232409411891z" style="fill:rgb(238,238,238); fill-opacity: 0.33"></path><path d="M281.73633434776724,67.51575636599638L282.1551992351374,67.69000341369882L285.0096021386234,67.98539482471377z" style="fill:rgb(0,0,0)"></path><path d="M287.22676074662365,83.99066042343395L289.3407796033264,82.52605929739784L289.3407796033264,54.19976371469147z" style="fill:rgb(238,238,238); fill-opacity: 0.33"></path><path d="M282.41407196211287,66.29473977272586L281.8963265081619,66.65343599364766L285.0096021386234,67.98539482471377z" style="fill:rgb(0,0,0)"></path><path d="M300.9262972704167,84.68271197013209L297.90398831378445,83.65826528304078M297.90398831378445,58.87275562256605L297.90398831378445,83.65826528304078M297.90398831378445,83.65826528304078L295.7899694570817,85.12286640907689" style="fill:none;stroke:rgb(0,0,0);stroke-width:1;stroke-linecap:round"></path><path d="M281.8963265081619,66.65343599364766L281.73633434776724,67.51575636599638L285.0096021386234,67.98539482471377z" style="fill:rgb(0,0,0)"></path><path d="M284.2044517899914,82.96621373634262L287.22676074662365,83.99066042343395L287.22676074662365,55.664364840727586zM295.7899694570817,85.12286640907688L297.90398831378445,83.65826528304078L300.9262972704167,84.68271197013209z" style="fill:rgb(238,238,238); fill-opacity: 0.33"></path><path d="M277.755261936236,48.50232409411892L274.7329529796038,47.477877407027584M274.7329529796038,47.477877407027584L272.61893412290107,48.9424785330637M300.9262972704167,59.89720230965738L300.9262972704167,84.68271197013209M300.9262972704167,84.68271197013209L298.812278413714,86.1473130961682M295.7899694570817,60.33735674860217L295.7899694570817,85.12286640907689M295.7899694570817,85.12286640907689L298.812278413714,86.1473130961682" style="fill:none;stroke:rgb(0,0,0);stroke-width:1;stroke-linecap:round"></path><path d="M298.812278413714,86.1473130961682L295.7899694570817,85.12286640907688L300.9262972704167,84.68271197013209z" style="fill:rgb(238,238,238); fill-opacity: 0.33"></path><path d="M288.53562925469436,69.18058262632033L293.74071690222775,70.94490747631095" style="fill:none;stroke:rgb(0,0,0);stroke-width:1;stroke-linecap:round"></path><path d="M286.3184706466941,53.175317027600144L286.3184706466941,81.50161261030651L284.2044517899914,54.639918153636245z" style="fill:rgb(238,238,238); fill-opacity: 0.33"></path><path d="M277.755261936236,48.50232409411892L275.6412430795333,49.96692522015503" style="fill:none;stroke:rgb(0,0,0);stroke-width:1;stroke-linecap:round"></path><path d="M289.3407796033264,54.19976371469147L289.3407796033264,82.52605929739784L286.3184706466941,53.175317027600144zM275.64124307953335,49.96692522015503L277.7552619362361,48.50232409411891L274.7329529796038,47.477877407027584zM272.61893412290107,48.9424785330637L275.64124307953335,49.96692522015503L274.7329529796038,47.477877407027584zM-74.4914031248233,-112.39764501714976L-69.23418878996085,-110.61565122169075L162.27870882588044,-276.43297113319403z" style="fill:rgb(238,238,238); fill-opacity: 0.33"></path><path d="M272.61893412290107,48.9424785330637L275.6412430795333,49.96692522015503M298.812278413714,61.36180343569349L298.812278413714,86.1473130961682" style="fill:none;stroke:rgb(0,0,0);stroke-width:1;stroke-linecap:round"></path><path d="M300.9262972704167,84.68271197013209L297.90398831378445,83.65826528304078L297.90398831378445,58.87275562256605zM284.2044517899914,54.639918153636245L284.2044517899914,82.96621373634262L287.22676074662365,55.664364840727586zM287.22676074662365,55.664364840727586L287.22676074662365,83.99066042343395L289.3407796033264,54.19976371469147zM297.90398831378445,83.65826528304078L295.7899694570817,85.12286640907688L295.7899694570817,60.33735674860217z" style="fill:rgb(238,238,238); fill-opacity: 0.33"></path><path d="M293.3218520148576,71.44280199984647L293.74071690222775,71.61704904754892L296.5951198057137,71.91244045856386zM293.99958962920323,70.22178540657596L293.48184417525226,70.58048162749775L296.5951198057137,71.91244045856386zM293.48184417525226,70.58048162749775L293.3218520148576,71.44280199984647L296.5951198057137,71.91244045856386z" style="fill:rgb(0,0,0)"></path><path d="M298.812278413714,86.1473130961682L300.9262972704167,84.68271197013209L300.9262972704167,59.897202309657374z" style="fill:rgb(238,238,238); fill-opacity: 0.33"></path><path d="M289.3407796033264,54.19976371469146L286.3184706466941,53.17531702760014M286.3184706466941,53.17531702760014L284.2044517899914,54.639918153636245" style="fill:none;stroke:rgb(0,0,0);stroke-width:1;stroke-linecap:round"></path><path d="M295.7899694570817,85.12286640907688L298.812278413714,86.1473130961682L298.812278413714,61.36180343569349z" style="fill:rgb(238,238,238); fill-opacity: 0.33"></path><path d="M43.76894163407837,-42.265097147312396L60.35360608549746,-36.64353270847702M289.3407796033264,54.19976371469146L287.22676074662365,55.66436484072757" style="fill:none;stroke:rgb(0,0,0);stroke-width:1;stroke-linecap:round"></path><path d="M287.22676074662365,55.664364840727586L289.3407796033264,54.19976371469147L286.3184706466941,53.175317027600144zM284.2044517899914,54.639918153636245L287.22676074662365,55.664364840727586L286.3184706466941,53.175317027600144zM297.90398831378445,58.87275562256605L297.90398831378445,83.65826528304078L295.7899694570817,60.33735674860217z" style="fill:rgb(238,238,238); fill-opacity: 0.33"></path><path d="M300.1211469217847,73.1076282601704L305.32623456931805,74.871953110161M284.2044517899914,54.639918153636245L287.22676074662365,55.66436484072757" style="fill:none;stroke:rgb(0,0,0);stroke-width:1;stroke-linecap:round"></path><path d="M300.9262972704167,59.897202309657374L300.9262972704167,84.68271197013209L297.90398831378445,58.87275562256605z" style="fill:rgb(238,238,238); fill-opacity: 0.33"></path><path d="M312.511814937507,82.34155798108118L309.48950598087475,81.31711129398985M309.48950598087475,69.06800087931715L309.48950598087475,81.31711129398985M309.48950598087475,81.31711129398985L307.375487124172,82.78171242002597" style="fill:none;stroke:rgb(0,0,0);stroke-width:1;stroke-linecap:round"></path><path d="M307.3754871241721,82.78171242002597L309.48950598087475,81.31711129398985L312.51181493750704,82.34155798108118z" style="fill:rgb(238,238,238); fill-opacity: 0.33"></path><path d="M312.511814937507,70.09244756640848L312.511814937507,82.34155798108118M312.511814937507,82.34155798108118L310.3977960808043,83.8061591071173" style="fill:none;stroke:rgb(0,0,0);stroke-width:1;stroke-linecap:round"></path><path d="M295.7899694570817,60.33735674860217L295.7899694570817,85.12286640907688L298.812278413714,61.36180343569349zM-59.613970536692804,-106.83221302818178L-46.346239744170425,-102.33496173764375L175.0421225573082,-269.40293801818996zM298.812278413714,61.36180343569349L298.812278413714,86.1473130961682L300.9262972704167,59.897202309657374z" style="fill:rgb(238,238,238); fill-opacity: 0.33"></path><path d="M307.375487124172,70.53260200535325L307.375487124172,82.78171242002597M307.375487124172,82.78171242002597L310.3977960808043,83.8061591071173" style="fill:none;stroke:rgb(0,0,0);stroke-width:1;stroke-linecap:round"></path><path d="M312.51181493750704,82.34155798108118L309.48950598087475,81.31711129398985L309.48950598087475,69.06800087931715zM310.3977960808043,83.8061591071173L307.3754871241721,82.78171242002597L312.51181493750704,82.34155798108118z" style="fill:rgb(238,238,238); fill-opacity: 0.33"></path><path d="M300.9262972704167,59.89720230965738L297.90398831378445,58.87275562256605M297.90398831378445,58.87275562256605L295.7899694570817,60.33735674860217" style="fill:none;stroke:rgb(0,0,0);stroke-width:1;stroke-linecap:round"></path><path d="M304.90736968194796,75.36984763369654L305.32623456931805,75.544094681399L308.180637472804,75.83948609241394zM305.58510729629353,74.14883104042605L305.06736184234256,74.50752726134783L308.180637472804,75.83948609241394zM305.06736184234256,74.50752726134783L304.90736968194796,75.36984763369654L308.180637472804,75.83948609241394z" style="fill:rgb(0,0,0)"></path><path d="M309.48950598087475,81.31711129398985L307.3754871241721,82.78171242002597L307.3754871241721,70.53260200535327z" style="fill:rgb(238,238,238); fill-opacity: 0.33"></path><path d="M310.3977960808043,71.55704869244458L310.3977960808043,83.8061591071173" style="fill:none;stroke:rgb(0,0,0);stroke-width:1;stroke-linecap:round"></path><path d="M310.3977960808043,83.8061591071173L312.51181493750704,82.34155798108118L312.51181493750704,70.09244756640847z" style="fill:rgb(238,238,238); fill-opacity: 0.33"></path><path d="M300.9262972704167,59.89720230965738L298.812278413714,61.36180343569349" style="fill:none;stroke:rgb(0,0,0);stroke-width:1;stroke-linecap:round"></path><path d="M298.812278413714,61.36180343569349L300.9262972704167,59.897202309657374L297.90398831378445,58.87275562256605zM309.48950598087475,69.06800087931715L309.48950598087475,81.31711129398985L307.3754871241721,70.53260200535327zM295.7899694570817,60.33735674860217L298.812278413714,61.36180343569349L297.90398831378445,58.87275562256605zM312.51181493750704,70.09244756640847L312.51181493750704,82.34155798108118L309.48950598087475,69.06800087931715z" style="fill:rgb(238,238,238); fill-opacity: 0.33"></path><path d="M295.7899694570817,60.33735674860217L298.812278413714,61.36180343569349" style="fill:none;stroke:rgb(0,0,0);stroke-width:1;stroke-linecap:round"></path><path d="M307.3754871241721,82.78171242002597L310.3977960808043,83.8061591071173L310.3977960808043,71.55704869244458z" style="fill:rgb(238,238,238); fill-opacity: 0.33"></path><path d="M312.511814937507,70.09244756640848L309.48950598087475,69.06800087931715M309.48950598087475,69.06800087931715L307.375487124172,70.53260200535325" style="fill:none;stroke:rgb(0,0,0);stroke-width:1;stroke-linecap:round"></path><path d="M307.3754871241721,70.53260200535327L307.3754871241721,82.78171242002597L310.3977960808043,71.55704869244458zM310.3977960808043,71.55704869244458L310.3977960808043,83.8061591071173L312.51181493750704,70.09244756640847z" style="fill:rgb(238,238,238); fill-opacity: 0.33"></path><path d="M312.511814937507,70.09244756640848L310.3977960808043,71.55704869244458" style="fill:none;stroke:rgb(0,0,0);stroke-width:1;stroke-linecap:round"></path><path d="M310.3977960808043,71.55704869244458L312.51181493750704,70.09244756640847L309.48950598087475,69.06800087931715zM307.3754871241721,70.53260200535327L310.3977960808043,71.55704869244458L309.48950598087475,69.06800087931715z" style="fill:rgb(238,238,238); fill-opacity: 0.33"></path><path d="M307.375487124172,70.53260200535325L310.3977960808043,71.55704869244458" style="fill:none;stroke:rgb(0,0,0);stroke-width:1;stroke-linecap:round"></path><path d="M-74.4914031248233,-112.39764501714976L-74.4914031248233,248.94566368039062L-69.23418878996085,-110.61565122169075zM-59.613970536692804,-106.83221302818178L-59.613970536692804,251.28481612741624L-46.346239744170425,-102.33496173764375z" style="fill:rgb(238,238,238); fill-opacity: 0.33"></path><path d="M-74.4914031248233,-112.39764501714976L-69.23418878996085,-110.61565122169074M-59.61397053669279,-106.83221302818178L-46.34623974417044,-102.33496173764375" style="fill:none;stroke:rgb(0,0,0);stroke-width:1;stroke-linecap:round"></path></svg>