<svg xmlns="http://www.w3.org/2000/svg" width="1163" height="581" style="cursor: move;"><g transform="translate(688.7998587310569,78.22432150116961) scale(0.5000000000000003)"><rect class="rect" id="0_0" width="64" height="64" x="-1221" y="250.5" style="fill: rgb(160, 160, 160); stroke: black; stroke-width: 1; opacity: 0.8;"></rect><rect class="rect" id="0_1" width="64" height="64" x="-1213" y="258.5" style="fill: rgb(224, 224, 224); stroke: black; stroke-width: 1; opacity: 0.8;"></rect><rect class="rect" id="0_2" width="64" height="64" x="-1205" y="266.5" style="fill: rgb(160, 160, 160); stroke: black; stroke-width: 1; opacity: 0.8;"></rect><rect class="rect" id="1_0" width="62" height="62" x="-1131" y="199.5" style="fill: rgb(160, 160, 160); stroke: black; stroke-width: 1; opacity: 0.8;"></rect><rect class="rect" id="1_1" width="62" height="62" x="-1123" y="207.5" style="fill: rgb(224, 224, 224); stroke: black; stroke-width: 1; opacity: 0.8;"></rect><rect class="rect" id="1_2" width="62" height="62" x="-1115" y="215.5" style="fill: rgb(160, 160, 160); stroke: black; stroke-width: 1; opacity: 0.8;"></rect><rect class="rect" id="1_3" width="62" height="62" x="-1107" y="223.5" style="fill: rgb(224, 224, 224); stroke: black; stroke-width: 1; opacity: 0.8;"></rect><rect class="rect" id="1_4" width="62" height="62" x="-1099" y="231.5" style="fill: rgb(160, 160, 160); stroke: black; stroke-width: 1; opacity: 0.8;"></rect><rect class="rect" id="1_5" width="62" height="62" x="-1091" y="239.5" style="fill: rgb(224, 224, 224); stroke: black; stroke-width: 1; opacity: 0.8;"></rect><rect class="rect" id="1_6" width="62" height="62" x="-1083" y="247.5" style="fill: rgb(160, 160, 160); stroke: black; stroke-width: 1; opacity: 0.8;"></rect><rect class="rect" id="1_7" width="62" height="62" x="-1075" y="255.5" style="fill: rgb(224, 224, 224); stroke: black; stroke-width: 1; opacity: 0.8;"></rect><rect class="rect" id="1_8" width="62" height="62" x="-1067" y="263.5" style="fill: rgb(160, 160, 160); stroke: black; stroke-width: 1; opacity: 0.8;"></rect><rect class="rect" id="1_9" width="62" height="62" x="-1059" y="271.5" style="fill: rgb(224, 224, 224); stroke: black; stroke-width: 1; opacity: 0.8;"></rect><rect class="rect" id="1_10" width="62" height="62" x="-1051" y="279.5" style="fill: rgb(160, 160, 160); stroke: black; stroke-width: 1; opacity: 0.8;"></rect><rect class="rect" id="1_11" width="62" height="62" x="-1043" y="287.5" style="fill: rgb(224, 224, 224); stroke: black; stroke-width: 1; opacity: 0.8;"></rect><rect class="rect" id="1_12" width="62" height="62" x="-1035" y="295.5" style="fill: rgb(160, 160, 160); stroke: black; stroke-width: 1; opacity: 0.8;"></rect><rect class="rect" id="1_13" width="62" height="62" x="-1027" y="303.5" style="fill: rgb(224, 224, 224); stroke: black; stroke-width: 1; opacity: 0.8;"></rect><rect class="rect" id="1_14" width="62" height="62" x="-1019" y="311.5" style="fill: rgb(160, 160, 160); stroke: black; stroke-width: 1; opacity: 0.8;"></rect><rect class="rect" id="1_15" width="62" height="62" x="-1011" y="319.5" style="fill: rgb(224, 224, 224); stroke: black; stroke-width: 1; opacity: 0.8;"></rect><rect class="rect" id="2_0" width="31" height="31" x="-981" y="215" style="fill: rgb(160, 160, 160); stroke: black; stroke-width: 1; opacity: 0.8;"></rect><rect class="rect" id="2_1" width="31" height="31" x="-973" y="223" style="fill: rgb(224, 224, 224); stroke: black; stroke-width: 1; opacity: 0.8;"></rect><rect class="rect" id="2_2" width="31" height="31" x="-965" y="231" style="fill: rgb(160, 160, 160); stroke: black; stroke-width: 1; opacity: 0.8;"></rect><rect class="rect" id="2_3" width="31" height="31" x="-957" y="239" style="fill: rgb(224, 224, 224); stroke: black; stroke-width: 1; opacity: 0.8;"></rect><rect class="rect" id="2_4" width="31" height="31" x="-949" y="247" style="fill: rgb(160, 160, 160); stroke: black; stroke-width: 1; opacity: 0.8;"></rect><rect class="rect" id="2_5" width="31" height="31" x="-941" y="255" style="fill: rgb(224, 224, 224); stroke: black; stroke-width: 1; opacity: 0.8;"></rect><rect class="rect" id="2_6" width="31" height="31" x="-933" y="263" style="fill: rgb(160, 160, 160); stroke: black; stroke-width: 1; opacity: 0.8;"></rect><rect class="rect" id="2_7" width="31" height="31" x="-925" y="271" style="fill: rgb(224, 224, 224); stroke: black; stroke-width: 1; opacity: 0.8;"></rect><rect class="rect" id="2_8" width="31" height="31" x="-917" y="279" style="fill: rgb(160, 160, 160); stroke: black; stroke-width: 1; opacity: 0.8;"></rect><rect class="rect" id="2_9" width="31" height="31" x="-909" y="287" style="fill: rgb(224, 224, 224); stroke: black; stroke-width: 1; opacity: 0.8;"></rect><rect class="rect" id="2_10" width="31" height="31" x="-901" y="295" style="fill: rgb(160, 160, 160); stroke: black; stroke-width: 1; opacity: 0.8;"></rect><rect class="rect" id="2_11" width="31" height="31" x="-893" y="303" style="fill: rgb(224, 224, 224); stroke: black; stroke-width: 1; opacity: 0.8;"></rect><rect class="rect" id="2_12" width="31" height="31" x="-885" y="311" style="fill: rgb(160, 160, 160); stroke: black; stroke-width: 1; opacity: 0.8;"></rect><rect class="rect" id="2_13" width="31" height="31" x="-877" y="319" style="fill: rgb(224, 224, 224); stroke: black; stroke-width: 1; opacity: 0.8;"></rect><rect class="rect" id="2_14" width="31" height="31" x="-869" y="327" style="fill: rgb(160, 160, 160); stroke: black; stroke-width: 1; opacity: 0.8;"></rect><rect class="rect" id="2_15" width="31" height="31" x="-861" y="335" style="fill: rgb(224, 224, 224); stroke: black; stroke-width: 1; opacity: 0.8;"></rect><rect class="rect" id="3_0" width="27" height="27" x="-897" y="153" style="fill: rgb(160, 160, 160); stroke: black; stroke-width: 1; opacity: 0.8;"></rect><rect class="rect" id="3_1" width="27" height="27" x="-889" y="161" style="fill: rgb(224, 224, 224); stroke: black; stroke-width: 1; opacity: 0.8;"></rect><rect class="rect" id="3_2" width="27" height="27" x="-881" y="169" style="fill: rgb(160, 160, 160); stroke: black; stroke-width: 1; opacity: 0.8;"></rect><rect class="rect" id="3_3" width="27" height="27" x="-873" y="177" style="fill: rgb(224, 224, 224); stroke: black; stroke-width: 1; opacity: 0.8;"></rect><rect class="rect" id="3_4" width="27" height="27" x="-865" y="185" style="fill: rgb(160, 160, 160); stroke: black; stroke-width: 1; opacity: 0.8;"></rect><rect class="rect" id="3_5" width="27" height="27" x="-857" y="193" style="fill: rgb(224, 224, 224); stroke: black; stroke-width: 1; opacity: 0.8;"></rect><rect class="rect" id="3_6" width="27" height="27" x="-849" y="201" style="fill: rgb(160, 160, 160); stroke: black; stroke-width: 1; opacity: 0.8;"></rect><rect class="rect" id="3_7" width="27" height="27" x="-841" y="209" style="fill: rgb(224, 224, 224); stroke: black; stroke-width: 1; opacity: 0.8;"></rect><rect class="rect" id="3_8" width="27" height="27" x="-833" y="217" style="fill: rgb(160, 160, 160); stroke: black; stroke-width: 1; opacity: 0.8;"></rect><rect class="rect" id="3_9" width="27" height="27" x="-825" y="225" style="fill: rgb(224, 224, 224); stroke: black; stroke-width: 1; opacity: 0.8;"></rect><rect class="rect" id="3_10" width="27" height="27" x="-817" y="233" style="fill: rgb(160, 160, 160); stroke: black; stroke-width: 1; opacity: 0.8;"></rect><rect class="rect" id="3_11" width="27" height="27" x="-809" y="241" style="fill: rgb(224, 224, 224); stroke: black; stroke-width: 1; opacity: 0.8;"></rect><rect class="rect" id="3_12" width="27" height="27" x="-801" y="249" style="fill: rgb(160, 160, 160); stroke: black; stroke-width: 1; opacity: 0.8;"></rect><rect class="rect" id="3_13" width="27" height="27" x="-793" y="257" style="fill: rgb(224, 224, 224); stroke: black; stroke-width: 1; opacity: 0.8;"></rect><rect class="rect" id="3_14" width="27" height="27" x="-785" y="265" style="fill: rgb(160, 160, 160); stroke: black; stroke-width: 1; opacity: 0.8;"></rect><rect class="rect" id="3_15" width="27" height="27" x="-777" y="273" style="fill: rgb(224, 224, 224); stroke: black; stroke-width: 1; opacity: 0.8;"></rect><rect class="rect" id="3_16" width="27" height="27" x="-769" y="281" style="fill: rgb(160, 160, 160); stroke: black; stroke-width: 1; opacity: 0.8;"></rect><rect class="rect" id="3_17" width="27" height="27" x="-761" y="289" style="fill: rgb(224, 224, 224); stroke: black; stroke-width: 1; opacity: 0.8;"></rect><rect class="rect" id="3_18" width="27" height="27" x="-753" y="297" style="fill: rgb(160, 160, 160); stroke: black; stroke-width: 1; opacity: 0.8;"></rect><rect class="rect" id="3_19" width="27" height="27" x="-745" y="305" style="fill: rgb(224, 224, 224); stroke: black; stroke-width: 1; opacity: 0.8;"></rect><rect class="rect" id="3_20" width="27" height="27" x="-737" y="313" style="fill: rgb(160, 160, 160); stroke: black; stroke-width: 1; opacity: 0.8;"></rect><rect class="rect" id="3_21" width="27" height="27" x="-729" y="321" style="fill: rgb(224, 224, 224); stroke: black; stroke-width: 1; opacity: 0.8;"></rect><rect class="rect" id="3_22" width="27" height="27" x="-721" y="329" style="fill: rgb(160, 160, 160); stroke: black; stroke-width: 1; opacity: 0.8;"></rect><rect class="rect" id="3_23" width="27" height="27" x="-713" y="337" style="fill: rgb(224, 224, 224); stroke: black; stroke-width: 1; opacity: 0.8;"></rect><rect class="rect" id="3_24" width="27" height="27" x="-705" y="345" style="fill: rgb(160, 160, 160); stroke: black; stroke-width: 1; opacity: 0.8;"></rect><rect class="rect" id="3_25" width="27" height="27" x="-697" y="353" style="fill: rgb(224, 224, 224); stroke: black; stroke-width: 1; opacity: 0.8;"></rect><rect class="rect" id="3_26" width="27" height="27" x="-689" y="361" style="fill: rgb(160, 160, 160); stroke: black; stroke-width: 1; opacity: 0.8;"></rect><rect class="rect" id="3_27" width="27" height="27" x="-681" y="369" style="fill: rgb(224, 224, 224); stroke: black; stroke-width: 1; opacity: 0.8;"></rect><rect class="rect" id="3_28" width="27" height="27" x="-673" y="377" style="fill: rgb(160, 160, 160); stroke: black; stroke-width: 1; opacity: 0.8;"></rect><rect class="rect" id="3_29" width="27" height="27" x="-665" y="385" style="fill: rgb(224, 224, 224); stroke: black; stroke-width: 1; opacity: 0.8;"></rect><rect class="rect" id="3_30" width="27" height="27" x="-657" y="393" style="fill: rgb(160, 160, 160); stroke: black; stroke-width: 1; opacity: 0.8;"></rect><rect class="rect" id="3_31" width="27" height="27" x="-649" y="401" style="fill: rgb(224, 224, 224); stroke: black; stroke-width: 1; opacity: 0.8;"></rect><rect class="rect" id="4_0" width="13" height="13" x="-722" y="160" style="fill: rgb(160, 160, 160); stroke: black; stroke-width: 1; opacity: 0.8;"></rect><rect class="rect" id="4_1" width="13" height="13" x="-714" y="168" style="fill: rgb(224, 224, 224); stroke: black; stroke-width: 1; opacity: 0.8;"></rect><rect class="rect" id="4_2" width="13" height="13" x="-706" y="176" style="fill: rgb(160, 160, 160); stroke: black; stroke-width: 1; opacity: 0.8;"></rect><rect class="rect" id="4_3" width="13" height="13" x="-698" y="184" style="fill: rgb(224, 224, 224); stroke: black; stroke-width: 1; opacity: 0.8;"></rect><rect class="rect" id="4_4" width="13" height="13" x="-690" y="192" style="fill: rgb(160, 160, 160); stroke: black; stroke-width: 1; opacity: 0.8;"></rect><rect class="rect" id="4_5" width="13" height="13" x="-682" y="200" style="fill: rgb(224, 224, 224); stroke: black; stroke-width: 1; opacity: 0.8;"></rect><rect class="rect" id="4_6" width="13" height="13" x="-674" y="208" style="fill: rgb(160, 160, 160); stroke: black; stroke-width: 1; opacity: 0.8;"></rect><rect class="rect" id="4_7" width="13" height="13" x="-666" y="216" style="fill: rgb(224, 224, 224); stroke: black; stroke-width: 1; opacity: 0.8;"></rect><rect class="rect" id="4_8" width="13" height="13" x="-658" y="224" style="fill: rgb(160, 160, 160); stroke: black; stroke-width: 1; opacity: 0.8;"></rect><rect class="rect" id="4_9" width="13" height="13" x="-650" y="232" style="fill: rgb(224, 224, 224); stroke: black; stroke-width: 1; opacity: 0.8;"></rect><rect class="rect" id="4_10" width="13" height="13" x="-642" y="240" style="fill: rgb(160, 160, 160); stroke: black; stroke-width: 1; opacity: 0.8;"></rect><rect class="rect" id="4_11" width="13" height="13" x="-634" y="248" style="fill: rgb(224, 224, 224); stroke: black; stroke-width: 1; opacity: 0.8;"></rect><rect class="rect" id="4_12" width="13" height="13" x="-626" y="256" style="fill: rgb(160, 160, 160); stroke: black; stroke-width: 1; opacity: 0.8;"></rect><rect class="rect" id="4_13" width="13" height="13" x="-618" y="264" style="fill: rgb(224, 224, 224); stroke: black; stroke-width: 1; opacity: 0.8;"></rect><rect class="rect" id="4_14" width="13" height="13" x="-610" y="272" style="fill: rgb(160, 160, 160); stroke: black; stroke-width: 1; opacity: 0.8;"></rect><rect class="rect" id="4_15" width="13" height="13" x="-602" y="280" style="fill: rgb(224, 224, 224); stroke: black; stroke-width: 1; opacity: 0.8;"></rect><rect class="rect" id="4_16" width="13" height="13" x="-594" y="288" style="fill: rgb(160, 160, 160); stroke: black; stroke-width: 1; opacity: 0.8;"></rect><rect class="rect" id="4_17" width="13" height="13" x="-586" y="296" style="fill: rgb(224, 224, 224); stroke: black; stroke-width: 1; opacity: 0.8;"></rect><rect class="rect" id="4_18" width="13" height="13" x="-578" y="304" style="fill: rgb(160, 160, 160); stroke: black; stroke-width: 1; opacity: 0.8;"></rect><rect class="rect" id="4_19" width="13" height="13" x="-570" y="312" style="fill: rgb(224, 224, 224); stroke: black; stroke-width: 1; opacity: 0.8;"></rect><rect class="rect" id="4_20" width="13" height="13" x="-562" y="320" style="fill: rgb(160, 160, 160); stroke: black; stroke-width: 1; opacity: 0.8;"></rect><rect class="rect" id="4_21" width="13" height="13" x="-554" y="328" style="fill: rgb(224, 224, 224); stroke: black; stroke-width: 1; opacity: 0.8;"></rect><rect class="rect" id="4_22" width="13" height="13" x="-546" y="336" style="fill: rgb(160, 160, 160); stroke: black; stroke-width: 1; opacity: 0.8;"></rect><rect class="rect" id="4_23" width="13" height="13" x="-538" y="344" style="fill: rgb(224, 224, 224); stroke: black; stroke-width: 1; opacity: 0.8;"></rect><rect class="rect" id="4_24" width="13" height="13" x="-530" y="352" style="fill: rgb(160, 160, 160); stroke: black; stroke-width: 1; opacity: 0.8;"></rect><rect class="rect" id="4_25" width="13" height="13" x="-522" y="360" style="fill: rgb(224, 224, 224); stroke: black; stroke-width: 1; opacity: 0.8;"></rect><rect class="rect" id="4_26" width="13" height="13" x="-514" y="368" style="fill: rgb(160, 160, 160); stroke: black; stroke-width: 1; opacity: 0.8;"></rect><rect class="rect" id="4_27" width="13" height="13" x="-506" y="376" style="fill: rgb(224, 224, 224); stroke: black; stroke-width: 1; opacity: 0.8;"></rect><rect class="rect" id="4_28" width="13" height="13" x="-498" y="384" style="fill: rgb(160, 160, 160); stroke: black; stroke-width: 1; opacity: 0.8;"></rect><rect class="rect" id="4_29" width="13" height="13" x="-490" y="392" style="fill: rgb(224, 224, 224); stroke: black; stroke-width: 1; opacity: 0.8;"></rect><rect class="rect" id="4_30" width="13" height="13" x="-482" y="400" style="fill: rgb(160, 160, 160); stroke: black; stroke-width: 1; opacity: 0.8;"></rect><rect class="rect" id="4_31" width="13" height="13" x="-474" y="408" style="fill: rgb(224, 224, 224); stroke: black; stroke-width: 1; opacity: 0.8;"></rect><rect class="rect" id="5_0" width="11" height="11" x="-561" y="33" style="fill: rgb(160, 160, 160); stroke: black; stroke-width: 1; opacity: 0.8;"></rect><rect class="rect" id="5_1" width="11" height="11" x="-553" y="41" style="fill: rgb(224, 224, 224); stroke: black; stroke-width: 1; opacity: 0.8;"></rect><rect class="rect" id="5_2" width="11" height="11" x="-545" y="49" style="fill: rgb(160, 160, 160); stroke: black; stroke-width: 1; opacity: 0.8;"></rect><rect class="rect" id="5_3" width="11" height="11" x="-537" y="57" style="fill: rgb(224, 224, 224); stroke: black; stroke-width: 1; opacity: 0.8;"></rect><rect class="rect" id="5_4" width="11" height="11" x="-529" y="65" style="fill: rgb(160, 160, 160); stroke: black; stroke-width: 1; opacity: 0.8;"></rect><rect class="rect" id="5_5" width="11" height="11" x="-521" y="73" style="fill: rgb(224, 224, 224); stroke: black; stroke-width: 1; opacity: 0.8;"></rect><rect class="rect" id="5_6" width="11" height="11" x="-513" y="81" style="fill: rgb(160, 160, 160); stroke: black; stroke-width: 1; opacity: 0.8;"></rect><rect class="rect" id="5_7" width="11" height="11" x="-505" y="89" style="fill: rgb(224, 224, 224); stroke: black; stroke-width: 1; opacity: 0.8;"></rect><rect class="rect" id="5_8" width="11" height="11" x="-497" y="97" style="fill: rgb(160, 160, 160); stroke: black; stroke-width: 1; opacity: 0.8;"></rect><rect class="rect" id="5_9" width="11" height="11" x="-489" y="105" style="fill: rgb(224, 224, 224); stroke: black; stroke-width: 1; opacity: 0.8;"></rect><rect class="rect" id="5_10" width="11" height="11" x="-481" y="113" style="fill: rgb(160, 160, 160); stroke: black; stroke-width: 1; opacity: 0.8;"></rect><rect class="rect" id="5_11" width="11" height="11" x="-473" y="121" style="fill: rgb(224, 224, 224); stroke: black; stroke-width: 1; opacity: 0.8;"></rect><rect class="rect" id="5_12" width="11" height="11" x="-465" y="129" style="fill: rgb(160, 160, 160); stroke: black; stroke-width: 1; opacity: 0.8;"></rect><rect class="rect" id="5_13" width="11" height="11" x="-457" y="137" style="fill: rgb(224, 224, 224); stroke: black; stroke-width: 1; opacity: 0.8;"></rect><rect class="rect" id="5_14" width="11" height="11" x="-449" y="145" style="fill: rgb(160, 160, 160); stroke: black; stroke-width: 1; opacity: 0.8;"></rect><rect class="rect" id="5_15" width="11" height="11" x="-441" y="153" style="fill: rgb(224, 224, 224); stroke: black; stroke-width: 1; opacity: 0.8;"></rect><rect class="rect" id="5_16" width="11" height="11" x="-433" y="161" style="fill: rgb(160, 160, 160); stroke: black; stroke-width: 1; opacity: 0.8;"></rect><rect class="rect" id="5_17" width="11" height="11" x="-425" y="169" style="fill: rgb(224, 224, 224); stroke: black; stroke-width: 1; opacity: 0.8;"></rect><rect class="rect" id="5_18" width="11" height="11" x="-417" y="177" style="fill: rgb(160, 160, 160); stroke: black; stroke-width: 1; opacity: 0.8;"></rect><rect class="rect" id="5_19" width="11" height="11" x="-409" y="185" style="fill: rgb(224, 224, 224); stroke: black; stroke-width: 1; opacity: 0.8;"></rect><rect class="rect" id="5_20" width="11" height="11" x="-401" y="193" style="fill: rgb(160, 160, 160); stroke: black; stroke-width: 1; opacity: 0.8;"></rect><rect class="rect" id="5_21" width="11" height="11" x="-393" y="201" style="fill: rgb(224, 224, 224); stroke: black; stroke-width: 1; opacity: 0.8;"></rect><rect class="rect" id="5_22" width="11" height="11" x="-385" y="209" style="fill: rgb(160, 160, 160); stroke: black; stroke-width: 1; opacity: 0.8;"></rect><rect class="rect" id="5_23" width="11" height="11" x="-377" y="217" style="fill: rgb(224, 224, 224); stroke: black; stroke-width: 1; opacity: 0.8;"></rect><rect class="rect" id="5_24" width="11" height="11" x="-369" y="225" style="fill: rgb(160, 160, 160); stroke: black; stroke-width: 1; opacity: 0.8;"></rect><rect class="rect" id="5_25" width="11" height="11" x="-361" y="233" style="fill: rgb(224, 224, 224); stroke: black; stroke-width: 1; opacity: 0.8;"></rect><rect class="rect" id="5_26" width="11" height="11" x="-353" y="241" style="fill: rgb(160, 160, 160); stroke: black; stroke-width: 1; opacity: 0.8;"></rect><rect class="rect" id="5_27" width="11" height="11" x="-345" y="249" style="fill: rgb(224, 224, 224); stroke: black; stroke-width: 1; opacity: 0.8;"></rect><rect class="rect" id="5_28" width="11" height="11" x="-337" y="257" style="fill: rgb(160, 160, 160); stroke: black; stroke-width: 1; opacity: 0.8;"></rect><rect class="rect" id="5_29" width="11" height="11" x="-329" y="265" style="fill: rgb(224, 224, 224); stroke: black; stroke-width: 1; opacity: 0.8;"></rect><rect class="rect" id="5_30" width="11" height="11" x="-321" y="273" style="fill: rgb(160, 160, 160); stroke: black; stroke-width: 1; opacity: 0.8;"></rect><rect class="rect" id="5_31" width="11" height="11" x="-313" y="281" style="fill: rgb(224, 224, 224); stroke: black; stroke-width: 1; opacity: 0.8;"></rect><rect class="rect" id="5_32" width="11" height="11" x="-305" y="289" style="fill: rgb(160, 160, 160); stroke: black; stroke-width: 1; opacity: 0.8;"></rect><rect class="rect" id="5_33" width="11" height="11" x="-297" y="297" style="fill: rgb(224, 224, 224); stroke: black; stroke-width: 1; opacity: 0.8;"></rect><rect class="rect" id="5_34" width="11" height="11" x="-289" y="305" style="fill: rgb(160, 160, 160); stroke: black; stroke-width: 1; opacity: 0.8;"></rect><rect class="rect" id="5_35" width="11" height="11" x="-281" y="313" style="fill: rgb(224, 224, 224); stroke: black; stroke-width: 1; opacity: 0.8;"></rect><rect class="rect" id="5_36" width="11" height="11" x="-273" y="321" style="fill: rgb(160, 160, 160); stroke: black; stroke-width: 1; opacity: 0.8;"></rect><rect class="rect" id="5_37" width="11" height="11" x="-265" y="329" style="fill: rgb(224, 224, 224); stroke: black; stroke-width: 1; opacity: 0.8;"></rect><rect class="rect" id="5_38" width="11" height="11" x="-257" y="337" style="fill: rgb(160, 160, 160); stroke: black; stroke-width: 1; opacity: 0.8;"></rect><rect class="rect" id="5_39" width="11" height="11" x="-249" y="345" style="fill: rgb(224, 224, 224); stroke: black; stroke-width: 1; opacity: 0.8;"></rect><rect class="rect" id="5_40" width="11" height="11" x="-241" y="353" style="fill: rgb(160, 160, 160); stroke: black; stroke-width: 1; opacity: 0.8;"></rect><rect class="rect" id="5_41" width="11" height="11" x="-233" y="361" style="fill: rgb(224, 224, 224); stroke: black; stroke-width: 1; opacity: 0.8;"></rect><rect class="rect" id="5_42" width="11" height="11" x="-225" y="369" style="fill: rgb(160, 160, 160); stroke: black; stroke-width: 1; opacity: 0.8;"></rect><rect class="rect" id="5_43" width="11" height="11" x="-217" y="377" style="fill: rgb(224, 224, 224); stroke: black; stroke-width: 1; opacity: 0.8;"></rect><rect class="rect" id="5_44" width="11" height="11" x="-209" y="385" style="fill: rgb(160, 160, 160); stroke: black; stroke-width: 1; opacity: 0.8;"></rect><rect class="rect" id="5_45" width="11" height="11" x="-201" y="393" style="fill: rgb(224, 224, 224); stroke: black; stroke-width: 1; opacity: 0.8;"></rect><rect class="rect" id="5_46" width="11" height="11" x="-193" y="401" style="fill: rgb(160, 160, 160); stroke: black; stroke-width: 1; opacity: 0.8;"></rect><rect class="rect" id="5_47" width="11" height="11" x="-185" y="409" style="fill: rgb(224, 224, 224); stroke: black; stroke-width: 1; opacity: 0.8;"></rect><rect class="rect" id="5_48" width="11" height="11" x="-177" y="417" style="fill: rgb(160, 160, 160); stroke: black; stroke-width: 1; opacity: 0.8;"></rect><rect class="rect" id="5_49" width="11" height="11" x="-169" y="425" style="fill: rgb(224, 224, 224); stroke: black; stroke-width: 1; opacity: 0.8;"></rect><rect class="rect" id="5_50" width="11" height="11" x="-161" y="433" style="fill: rgb(160, 160, 160); stroke: black; stroke-width: 1; opacity: 0.8;"></rect><rect class="rect" id="5_51" width="11" height="11" x="-153" y="441" style="fill: rgb(224, 224, 224); stroke: black; stroke-width: 1; opacity: 0.8;"></rect><rect class="rect" id="5_52" width="11" height="11" x="-145" y="449" style="fill: rgb(160, 160, 160); stroke: black; stroke-width: 1; opacity: 0.8;"></rect><rect class="rect" id="5_53" width="11" height="11" x="-137" y="457" style="fill: rgb(224, 224, 224); stroke: black; stroke-width: 1; opacity: 0.8;"></rect><rect class="rect" id="5_54" width="11" height="11" x="-129" y="465" style="fill: rgb(160, 160, 160); stroke: black; stroke-width: 1; opacity: 0.8;"></rect><rect class="rect" id="5_55" width="11" height="11" x="-121" y="473" style="fill: rgb(224, 224, 224); stroke: black; stroke-width: 1; opacity: 0.8;"></rect><rect class="rect" id="5_56" width="11" height="11" x="-113" y="481" style="fill: rgb(160, 160, 160); stroke: black; stroke-width: 1; opacity: 0.8;"></rect><rect class="rect" id="5_57" width="11" height="11" x="-105" y="489" style="fill: rgb(224, 224, 224); stroke: black; stroke-width: 1; opacity: 0.8;"></rect><rect class="rect" id="5_58" width="11" height="11" x="-97" y="497" style="fill: rgb(160, 160, 160); stroke: black; stroke-width: 1; opacity: 0.8;"></rect><rect class="rect" id="5_59" width="11" height="11" x="-89" y="505" style="fill: rgb(224, 224, 224); stroke: black; stroke-width: 1; opacity: 0.8;"></rect><rect class="rect" id="5_60" width="11" height="11" x="-81" y="513" style="fill: rgb(160, 160, 160); stroke: black; stroke-width: 1; opacity: 0.8;"></rect><rect class="rect" id="5_61" width="11" height="11" x="-73" y="521" style="fill: rgb(224, 224, 224); stroke: black; stroke-width: 1; opacity: 0.8;"></rect><rect class="rect" id="5_62" width="11" height="11" x="-65" y="529" style="fill: rgb(160, 160, 160); stroke: black; stroke-width: 1; opacity: 0.8;"></rect><rect class="rect" id="5_63" width="11" height="11" x="-57" y="537" style="fill: rgb(224, 224, 224); stroke: black; stroke-width: 1; opacity: 0.8;"></rect><rect class="rect" id="6_0" width="5" height="5" x="-55" y="36" style="fill: rgb(160, 160, 160); stroke: black; stroke-width: 1; opacity: 0.8;"></rect><rect class="rect" id="6_1" width="5" height="5" x="-47" y="44" style="fill: rgb(224, 224, 224); stroke: black; stroke-width: 1; opacity: 0.8;"></rect><rect class="rect" id="6_2" width="5" height="5" x="-39" y="52" style="fill: rgb(160, 160, 160); stroke: black; stroke-width: 1; opacity: 0.8;"></rect><rect class="rect" id="6_3" width="5" height="5" x="-31" y="60" style="fill: rgb(224, 224, 224); stroke: black; stroke-width: 1; opacity: 0.8;"></rect><rect class="rect" id="6_4" width="5" height="5" x="-23" y="68" style="fill: rgb(160, 160, 160); stroke: black; stroke-width: 1; opacity: 0.8;"></rect><rect class="rect" id="6_5" width="5" height="5" x="-15" y="76" style="fill: rgb(224, 224, 224); stroke: black; stroke-width: 1; opacity: 0.8;"></rect><rect class="rect" id="6_6" width="5" height="5" x="-7" y="84" style="fill: rgb(160, 160, 160); stroke: black; stroke-width: 1; opacity: 0.8;"></rect><rect class="rect" id="6_7" width="5" height="5" x="1" y="92" style="fill: rgb(224, 224, 224); stroke: black; stroke-width: 1; opacity: 0.8;"></rect><rect class="rect" id="6_8" width="5" height="5" x="9" y="100" style="fill: rgb(160, 160, 160); stroke: black; stroke-width: 1; opacity: 0.8;"></rect><rect class="rect" id="6_9" width="5" height="5" x="17" y="108" style="fill: rgb(224, 224, 224); stroke: black; stroke-width: 1; opacity: 0.8;"></rect><rect class="rect" id="6_10" width="5" height="5" x="25" y="116" style="fill: rgb(160, 160, 160); stroke: black; stroke-width: 1; opacity: 0.8;"></rect><rect class="rect" id="6_11" width="5" height="5" x="33" y="124" style="fill: rgb(224, 224, 224); stroke: black; stroke-width: 1; opacity: 0.8;"></rect><rect class="rect" id="6_12" width="5" height="5" x="41" y="132" style="fill: rgb(160, 160, 160); stroke: black; stroke-width: 1; opacity: 0.8;"></rect><rect class="rect" id="6_13" width="5" height="5" x="49" y="140" style="fill: rgb(224, 224, 224); stroke: black; stroke-width: 1; opacity: 0.8;"></rect><rect class="rect" id="6_14" width="5" height="5" x="57" y="148" style="fill: rgb(160, 160, 160); stroke: black; stroke-width: 1; opacity: 0.8;"></rect><rect class="rect" id="6_15" width="5" height="5" x="65" y="156" style="fill: rgb(224, 224, 224); stroke: black; stroke-width: 1; opacity: 0.8;"></rect><rect class="rect" id="6_16" width="5" height="5" x="73" y="164" style="fill: rgb(160, 160, 160); stroke: black; stroke-width: 1; opacity: 0.8;"></rect><rect class="rect" id="6_17" width="5" height="5" x="81" y="172" style="fill: rgb(224, 224, 224); stroke: black; stroke-width: 1; opacity: 0.8;"></rect><rect class="rect" id="6_18" width="5" height="5" x="89" y="180" style="fill: rgb(160, 160, 160); stroke: black; stroke-width: 1; opacity: 0.8;"></rect><rect class="rect" id="6_19" width="5" height="5" x="97" y="188" style="fill: rgb(224, 224, 224); stroke: black; stroke-width: 1; opacity: 0.8;"></rect><rect class="rect" id="6_20" width="5" height="5" x="105" y="196" style="fill: rgb(160, 160, 160); stroke: black; stroke-width: 1; opacity: 0.8;"></rect><rect class="rect" id="6_21" width="5" height="5" x="113" y="204" style="fill: rgb(224, 224, 224); stroke: black; stroke-width: 1; opacity: 0.8;"></rect><rect class="rect" id="6_22" width="5" height="5" x="121" y="212" style="fill: rgb(160, 160, 160); stroke: black; stroke-width: 1; opacity: 0.8;"></rect><rect class="rect" id="6_23" width="5" height="5" x="129" y="220" style="fill: rgb(224, 224, 224); stroke: black; stroke-width: 1; opacity: 0.8;"></rect><rect class="rect" id="6_24" width="5" height="5" x="137" y="228" style="fill: rgb(160, 160, 160); stroke: black; stroke-width: 1; opacity: 0.8;"></rect><rect class="rect" id="6_25" width="5" height="5" x="145" y="236" style="fill: rgb(224, 224, 224); stroke: black; stroke-width: 1; opacity: 0.8;"></rect><rect class="rect" id="6_26" width="5" height="5" x="153" y="244" style="fill: rgb(160, 160, 160); stroke: black; stroke-width: 1; opacity: 0.8;"></rect><rect class="rect" id="6_27" width="5" height="5" x="161" y="252" style="fill: rgb(224, 224, 224); stroke: black; stroke-width: 1; opacity: 0.8;"></rect><rect class="rect" id="6_28" width="5" height="5" x="169" y="260" style="fill: rgb(160, 160, 160); stroke: black; stroke-width: 1; opacity: 0.8;"></rect><rect class="rect" id="6_29" width="5" height="5" x="177" y="268" style="fill: rgb(224, 224, 224); stroke: black; stroke-width: 1; opacity: 0.8;"></rect><rect class="rect" id="6_30" width="5" height="5" x="185" y="276" style="fill: rgb(160, 160, 160); stroke: black; stroke-width: 1; opacity: 0.8;"></rect><rect class="rect" id="6_31" width="5" height="5" x="193" y="284" style="fill: rgb(224, 224, 224); stroke: black; stroke-width: 1; opacity: 0.8;"></rect><rect class="rect" id="6_32" width="5" height="5" x="201" y="292" style="fill: rgb(160, 160, 160); stroke: black; stroke-width: 1; opacity: 0.8;"></rect><rect class="rect" id="6_33" width="5" height="5" x="209" y="300" style="fill: rgb(224, 224, 224); stroke: black; stroke-width: 1; opacity: 0.8;"></rect><rect class="rect" id="6_34" width="5" height="5" x="217" y="308" style="fill: rgb(160, 160, 160); stroke: black; stroke-width: 1; opacity: 0.8;"></rect><rect class="rect" id="6_35" width="5" height="5" x="225" y="316" style="fill: rgb(224, 224, 224); stroke: black; stroke-width: 1; opacity: 0.8;"></rect><rect class="rect" id="6_36" width="5" height="5" x="233" y="324" style="fill: rgb(160, 160, 160); stroke: black; stroke-width: 1; opacity: 0.8;"></rect><rect class="rect" id="6_37" width="5" height="5" x="241" y="332" style="fill: rgb(224, 224, 224); stroke: black; stroke-width: 1; opacity: 0.8;"></rect><rect class="rect" id="6_38" width="5" height="5" x="249" y="340" style="fill: rgb(160, 160, 160); stroke: black; stroke-width: 1; opacity: 0.8;"></rect><rect class="rect" id="6_39" width="5" height="5" x="257" y="348" style="fill: rgb(224, 224, 224); stroke: black; stroke-width: 1; opacity: 0.8;"></rect><rect class="rect" id="6_40" width="5" height="5" x="265" y="356" style="fill: rgb(160, 160, 160); stroke: black; stroke-width: 1; opacity: 0.8;"></rect><rect class="rect" id="6_41" width="5" height="5" x="273" y="364" style="fill: rgb(224, 224, 224); stroke: black; stroke-width: 1; opacity: 0.8;"></rect><rect class="rect" id="6_42" width="5" height="5" x="281" y="372" style="fill: rgb(160, 160, 160); stroke: black; stroke-width: 1; opacity: 0.8;"></rect><rect class="rect" id="6_43" width="5" height="5" x="289" y="380" style="fill: rgb(224, 224, 224); stroke: black; stroke-width: 1; opacity: 0.8;"></rect><rect class="rect" id="6_44" width="5" height="5" x="297" y="388" style="fill: rgb(160, 160, 160); stroke: black; stroke-width: 1; opacity: 0.8;"></rect><rect class="rect" id="6_45" width="5" height="5" x="305" y="396" style="fill: rgb(224, 224, 224); stroke: black; stroke-width: 1; opacity: 0.8;"></rect><rect class="rect" id="6_46" width="5" height="5" x="313" y="404" style="fill: rgb(160, 160, 160); stroke: black; stroke-width: 1; opacity: 0.8;"></rect><rect class="rect" id="6_47" width="5" height="5" x="321" y="412" style="fill: rgb(224, 224, 224); stroke: black; stroke-width: 1; opacity: 0.8;"></rect><rect class="rect" id="6_48" width="5" height="5" x="329" y="420" style="fill: rgb(160, 160, 160); stroke: black; stroke-width: 1; opacity: 0.8;"></rect><rect class="rect" id="6_49" width="5" height="5" x="337" y="428" style="fill: rgb(224, 224, 224); stroke: black; stroke-width: 1; opacity: 0.8;"></rect><rect class="rect" id="6_50" width="5" height="5" x="345" y="436" style="fill: rgb(160, 160, 160); stroke: black; stroke-width: 1; opacity: 0.8;"></rect><rect class="rect" id="6_51" width="5" height="5" x="353" y="444" style="fill: rgb(224, 224, 224); stroke: black; stroke-width: 1; opacity: 0.8;"></rect><rect class="rect" id="6_52" width="5" height="5" x="361" y="452" style="fill: rgb(160, 160, 160); stroke: black; stroke-width: 1; opacity: 0.8;"></rect><rect class="rect" id="6_53" width="5" height="5" x="369" y="460" style="fill: rgb(224, 224, 224); stroke: black; stroke-width: 1; opacity: 0.8;"></rect><rect class="rect" id="6_54" width="5" height="5" x="377" y="468" style="fill: rgb(160, 160, 160); stroke: black; stroke-width: 1; opacity: 0.8;"></rect><rect class="rect" id="6_55" width="5" height="5" x="385" y="476" style="fill: rgb(224, 224, 224); stroke: black; stroke-width: 1; opacity: 0.8;"></rect><rect class="rect" id="6_56" width="5" height="5" x="393" y="484" style="fill: rgb(160, 160, 160); stroke: black; stroke-width: 1; opacity: 0.8;"></rect><rect class="rect" id="6_57" width="5" height="5" x="401" y="492" style="fill: rgb(224, 224, 224); stroke: black; stroke-width: 1; opacity: 0.8;"></rect><rect class="rect" id="6_58" width="5" height="5" x="409" y="500" style="fill: rgb(160, 160, 160); stroke: black; stroke-width: 1; opacity: 0.8;"></rect><rect class="rect" id="6_59" width="5" height="5" x="417" y="508" style="fill: rgb(224, 224, 224); stroke: black; stroke-width: 1; opacity: 0.8;"></rect><rect class="rect" id="6_60" width="5" height="5" x="425" y="516" style="fill: rgb(160, 160, 160); stroke: black; stroke-width: 1; opacity: 0.8;"></rect><rect class="rect" id="6_61" width="5" height="5" x="433" y="524" style="fill: rgb(224, 224, 224); stroke: black; stroke-width: 1; opacity: 0.8;"></rect><rect class="rect" id="6_62" width="5" height="5" x="441" y="532" style="fill: rgb(160, 160, 160); stroke: black; stroke-width: 1; opacity: 0.8;"></rect><rect class="rect" id="6_63" width="5" height="5" x="449" y="540" style="fill: rgb(224, 224, 224); stroke: black; stroke-width: 1; opacity: 0.8;"></rect><rect class="conv" id="conv_0" width="3" height="3" x="-1192.0578531991264" y="274.40107752263157" style="fill-opacity: 0; stroke: black; stroke-width: 1; stroke-opacity: 0.8;"></rect><rect class="conv" id="conv_1" width="2" height="2" x="-963.0876848745777" y="349.2479533634493" style="fill-opacity: 0; stroke: black; stroke-width: 1; stroke-opacity: 0.8;"></rect><rect class="conv" id="conv_2" width="5" height="5" x="-839.4307575848002" y="340.3257225533459" style="fill-opacity: 0; stroke: black; stroke-width: 1; stroke-opacity: 0.8;"></rect><rect class="conv" id="conv_3" width="2" height="2" x="-643.5907809047227" y="423.2144436175849" style="fill-opacity: 0; stroke: black; stroke-width: 1; stroke-opacity: 0.8;"></rect><rect class="conv" id="conv_4" width="3" height="3" x="-470.41690678969485" y="411.9937571929253" style="fill-opacity: 0; stroke: black; stroke-width: 1; stroke-opacity: 0.8;"></rect><rect class="conv" id="conv_5" width="2" height="2" x="-52.839540629529665" y="540.6152420707106" style="fill-opacity: 0; stroke: black; stroke-width: 1; stroke-opacity: 0.8;"></rect><line class="link" id="conv_0" x1="-1189.0578531991264" y1="277.40107752263157" x2="-997.8456868581285" y2="327.5306033836583" style="stroke: black; stroke-width: 0.5; stroke-opacity: 0.8;"></line><line class="link" id="conv_0" x1="-1189.0578531991264" y1="274.40107752263157" x2="-997.8456868581285" y2="327.5306033836583" style="stroke: black; stroke-width: 0.5; stroke-opacity: 0.8;"></line><line class="link" id="conv_1" x1="-961.0876848745777" y1="351.2479533634493" x2="-836.2453038518652" y2="350.36977590444883" style="stroke: black; stroke-width: 0.5; stroke-opacity: 0.8;"></line><line class="link" id="conv_1" x1="-961.0876848745777" y1="349.2479533634493" x2="-836.2453038518652" y2="350.36977590444883" style="stroke: black; stroke-width: 0.5; stroke-opacity: 0.8;"></line><line class="link" id="conv_2" x1="-834.4307575848002" y1="345.3257225533459" x2="-626.6011713380618" y2="406.5305580361669" style="stroke: black; stroke-width: 0.5; stroke-opacity: 0.8;"></line><line class="link" id="conv_2" x1="-834.4307575848002" y1="340.3257225533459" x2="-626.6011713380618" y2="406.5305580361669" style="stroke: black; stroke-width: 0.5; stroke-opacity: 0.8;"></line><line class="link" id="conv_3" x1="-641.5907809047227" y1="425.2144436175849" x2="-471.1872060704558" y2="419.5515106811441" style="stroke: black; stroke-width: 0.5; stroke-opacity: 0.8;"></line><line class="link" id="conv_3" x1="-641.5907809047227" y1="423.2144436175849" x2="-471.1872060704558" y2="419.5515106811441" style="stroke: black; stroke-width: 0.5; stroke-opacity: 0.8;"></line><line class="link" id="conv_4" x1="-467.41690678969485" y1="414.9937571929253" x2="-53.0585974686644" y2="541.3931329122179" style="stroke: black; stroke-width: 0.5; stroke-opacity: 0.8;"></line><line class="link" id="conv_4" x1="-467.41690678969485" y1="411.9937571929253" x2="-53.0585974686644" y2="541.3931329122179" style="stroke: black; stroke-width: 0.5; stroke-opacity: 0.8;"></line><line class="link" id="conv_5" x1="-50.839540629529665" y1="542.6152420707106" x2="451.3113663169279" y2="542.0084678170615" style="stroke: black; stroke-width: 0.5; stroke-opacity: 0.8;"></line><line class="link" id="conv_5" x1="-50.839540629529665" y1="540.6152420707106" x2="451.3113663169279" y2="542.0084678170615" style="stroke: black; stroke-width: 0.5; stroke-opacity: 0.8;"></line><polygon class="poly" id="fc_0" points="456,162.5 466,162.5 722,418.5 712,418.5" style="fill: rgb(224, 224, 224); stroke: black; stroke-width: 1; opacity: 0.8;"></polygon><polygon class="poly" id="fc_1" points="724,226.5 734,226.5 862,354.5 852,354.5" style="fill: rgb(224, 224, 224); stroke: black; stroke-width: 1; opacity: 0.8;"></polygon><polygon class="poly" id="fc_2" points="864,285 874,285 885,296 875,296" style="fill: rgb(224, 224, 224); stroke: black; stroke-width: 1; opacity: 0.8;"></polygon><line class="line" id="fc_0" x1="454" y1="545" x2="712" y2="418.5" style="stroke: black; stroke-width: 0.5; stroke-opacity: 0.8; opacity: 1;"></line><line class="line" id="fc_0" x1="-50" y1="36" x2="456" y2="162.5" style="stroke: black; stroke-width: 0.5; stroke-opacity: 0.8; opacity: 1;"></line><line class="line" id="fc_1" x1="722" y1="418.5" x2="852" y2="354.5" style="stroke: black; stroke-width: 0.5; stroke-opacity: 0.8; opacity: 1;"></line><line class="line" id="fc_1" x1="466" y1="162.5" x2="724" y2="226.5" style="stroke: black; stroke-width: 0.5; stroke-opacity: 0.8; opacity: 1;"></line><line class="line" id="fc_2" x1="862" y1="354.5" x2="875" y2="296" style="stroke: black; stroke-width: 0.5; stroke-opacity: 0.8; opacity: 1;"></line><line class="line" id="fc_2" x1="734" y1="226.5" x2="864" y2="285" style="stroke: black; stroke-width: 0.5; stroke-opacity: 0.8; opacity: 1;"></line><text class="text" dy=".35em" font-family="sans-serif" x="-1105.5" y="765.5" style="font-size: 16px; opacity: 1;">2D Convolution</text><text class="text" dy=".35em" font-family="sans-serif" x="-942.25" y="765.5" style="font-size: 16px; opacity: 1;">Max-Pooling</text><text class="text" dy=".35em" font-family="sans-serif" x="-809.75" y="765.5" style="font-size: 16px; opacity: 1;">2D Convolution</text><text class="text" dy=".35em" font-family="sans-serif" x="-621.75" y="765.5" style="font-size: 16px; opacity: 1;">Max-Pooling</text><text class="text" dy=".35em" font-family="sans-serif" x="-397.25" y="765.5" style="font-size: 16px; opacity: 1;">2D Convolution</text><text class="text" dy=".35em" font-family="sans-serif" x="61.75" y="765.5" style="font-size: 16px; opacity: 1;">Max-Pooling</text><text class="text" dy=".35em" font-family="sans-serif" x="504" y="765.5" style="font-size: 16px; opacity: 1;"></text><text class="info" dy="-0.3em" font-family="sans-serif" x="-1221" y="235.5" style="font-size: 16px;">3@64x64</text><text class="info" dy="-0.3em" font-family="sans-serif" x="-1131" y="184.5" style="font-size: 16px;">16@62x62</text><text class="info" dy="-0.3em" font-family="sans-serif" x="-981" y="200" style="font-size: 16px;">16@31x31</text><text class="info" dy="-0.3em" font-family="sans-serif" x="-897" y="138" style="font-size: 16px;">32@27x27</text><text class="info" dy="-0.3em" font-family="sans-serif" x="-722" y="145" style="font-size: 16px;">32@13x13</text><text class="info" dy="-0.3em" font-family="sans-serif" x="-561" y="18" style="font-size: 16px;">64@11x11</text><text class="info" dy="-0.3em" font-family="sans-serif" x="-55" y="21" style="font-size: 16px;">64@5x5</text><text class="info" dy="-0.3em" font-family="sans-serif" x="456" y="147.5" style="font-size: 16px;">1x256</text><text class="info" dy="-0.3em" font-family="sans-serif" x="724" y="211.5" style="font-size: 16px;">1x128</text><text class="info" dy="-0.3em" font-family="sans-serif" x="864" y="270" style="font-size: 16px;">1x11</text></g></svg>